{
classes = (
{
automatic = 1;
code = "A Aacute Abreve Acircumflex Adieresis Agrave Amacron Aogonek Aring Aringacute Atilde AE AEacute B C Cacute Ccaron Ccedilla Ccircumflex Cdotaccent D Eth Dcaron Dcroat E Eacute Ebreve Ecaron Ecircumflex Edieresis Edotaccent Egrave Emacron Eogonek F G Gbreve Gcircumflex Gcommaaccent Gdotaccent H Hbar Hcircumflex I IJ Iacute Ibreve Icircumflex Idieresis Idotaccent Igrave Imacron Iogonek Itilde J Jcircumflex K Kcommaaccent L Lacute Lcaron Lcommaaccent Ldot Lslash M N Nacute Ncaron Ncommaaccent Eng Ntilde O Oacute Obreve Ocircumflex Odieresis Ograve Ohungarumlaut Omacron Oslash Oslashacute Otilde OE P Thorn Q R Racute Rcaron Rcommaaccent S Sacute Scaron Scedilla Scircumflex Scommaaccent T Tbar Tcaron Tcedilla Tcommaaccent U Uacute Ubreve Ucircumflex Udieresis Ugrave Uhungarumlaut Umacron Uogonek Uring Utilde V W Wacute Wcircumflex Wdieresis Wgrave X Y Yacute Ycircumflex Ydieresis Ygrave Z Zacute Zcaron Zdotaccent Delta Omega";
name = Uppercase;
},
{
automatic = 1;
code = "iMatra-deva iMatra-deva.0 iMatra-deva.1 iMatra-deva.10 iMatra-deva.11 iMatra-deva.12 iMatra-deva.13 iMatra-deva.14 iMatra-deva.15 iMatra-deva.16 iMatra-deva.17 iMatra-deva.18 iMatra-deva.19 iMatra-deva.2 iMatra-deva.3 iMatra-deva.4 iMatra-deva.5 iMatra-deva.6 iMatra-deva.7 iMatra-deva.8 iMatra-deva.9";
name = DevaIMatras;
},
{
automatic = 1;
code = "iMatra_reph-deva iMatra_reph-deva.0 iMatra_reph-deva.1 iMatra_reph-deva.10 iMatra_reph-deva.11 iMatra_reph-deva.12 iMatra_reph-deva.13 iMatra_reph-deva.14 iMatra_reph-deva.15 iMatra_reph-deva.16 iMatra_reph-deva.17 iMatra_reph-deva.18 iMatra_reph-deva.19 iMatra_reph-deva.2 iMatra_reph-deva.3 iMatra_reph-deva.4 iMatra_reph-deva.5 iMatra_reph-deva.6 iMatra_reph-deva.7 iMatra_reph-deva.8 iMatra_reph-deva.9";
name = DevaIMatraRephs;
},
{
automatic = 1;

glyphs = (
{
glyphname = A;
layers = (
{
anchors = (
{
name = ogonek;
position = "{891, 18}";
},
{
name = top;
position = "{496, 1241}";
}
);
layerId = "D4AD7B3F-884E-49D2-9CE4-555FBB692325";
name = Light;
paths = (
{
closed = 1;
nodes = (
"598 1241 LINE",
"393 1241 LINE",
"-2 0 LINE",
"158 0 LINE",
"242 276 LINE",
"735 276 LINE",
"819 0 LINE",
"991 0 LINE"
);
},
{
closed = 1;
nodes = (
"492 1112 LINE",
"492 1112 OFFCURVE",
"508 1016 OFFCURVE",
"522 975 CURVE SMOOTH",
"690 422 LINE",
"287 422 LINE",
"457 975 LINE SMOOTH",
"469 1014 OFFCURVE",
"485 1112 OFFCURVE",
"485 1112 CURVE"
);
}
);
width = 991;
}
);
unicode = 0041;
},
{
glyphname = Aacute;
layers = (
{
layerId = "D4AD7B3F-884E-49D2-9CE4-555FBB692325";
name = Light;
paths = (
{
closed = 1;
nodes = (
"598 1241 LINE",
"393 1241 LINE",
"-2 0 LINE",
"158 0 LINE",
"242 276 LINE",
"735 276 LINE",
"819 0 LINE",
"991 0 LINE"
);
},
{
closed = 1;
nodes = (
"492 1112 LINE",
"492 1112 OFFCURVE",
"508 1016 OFFCURVE",
"522 975 CURVE SMOOTH",
"690 422 LINE",
"287 422 LINE",
"457 975 LINE SMOOTH",
"469 1014 OFFCURVE",
"485 1112 OFFCURVE",
"485 1112 CURVE"
);
},
{
closed = 1;
nodes = (
"707 1599 LINE",
"543 1599 LINE",
"387 1360 LINE",
"512 1360 LINE",
"709 1593 LINE"
);
}
);
width = 991;
}
);
unicode = 00C1;
},
{
glyphname = Abreve;
layers = (
{
layerId = "D4AD7B3F-884E-49D2-9CE4-555FBB692325";
name = Light;
paths = (
{
closed = 1;
nodes = (
"598 1241 LINE",
"393 1241 LINE",
"-2 0 LINE",
"158 0 LINE",
"242 276 LINE",
"735 276 LINE",
"819 0 LINE",
"991 0 LINE"
);
},
{
closed = 1;
nodes = (
"492 1112 LINE",
"492 1112 OFFCURVE",
"508 1016 OFFCURVE",
"522 975 CURVE SMOOTH",
"690 422 LINE",
"287 422 LINE",
"457 975 LINE SMOOTH",
"469 1014 OFFCURVE",
"485 1112 OFFCURVE",
"485 1112 CURVE"
);
},
{
closed = 1;
nodes = (
"602 1599 LINE",
"600 1573 OFFCURVE",
"555 1538 OFFCURVE",
"494 1538 CURVE SMOOTH",
"434 1538 OFFCURVE",
"393 1573 OFFCURVE",
"387 1599 CURVE",
"272 1599 LINE",
"272 1518 OFFCURVE",
"356 1423 OFFCURVE",
"494 1423 CURVE SMOOTH",
"633 1423 OFFCURVE",
"719 1518 OFFCURVE",
"719 1599 CURVE"
);
}
);
width = 991;
}
);
unicode = 0102;
},
{
glyphname = Acircumflex;
layers = (
{
layerId = "D4AD7B3F-884E-49D2-9CE4-555FBB692325";
name = Light;
paths = (
{
closed = 1;
nodes = (
"598 1241 LINE",
"393 1241 LINE",
"-2 0 LINE",
"158 0 LINE",
"242 276 LINE",
"735 276 LINE",
"819 0 LINE",
"991 0 LINE"
);
},
{
closed = 1;
nodes = (
"492 1112 LINE",
"492 1112 OFFCURVE",
"508 1016 OFFCURVE",
"522 975 CURVE SMOOTH",
"690 422 LINE",
"287 422 LINE",
"457 975 LINE SMOOTH",
"469 1014 OFFCURVE",
"485 1112 OFFCURVE",
"485 1112 CURVE"
);
},
{
closed = 1;
nodes = (
"567 1597 LINE",
"426 1597 LINE",
"270 1352 LINE",
"414 1352 LINE",
"496 1495 LINE",
"575 1352 LINE",
"721 1352 LINE"
);
}
);
width = 991;
}
);
unicode = 00C2;
},
{
glyphname = Adieresis;
layers = (
{
layerId = "D4AD7B3F-884E-49D2-9CE4-555FBB692325";
name = Light;
paths = (
{
closed = 1;
nodes = (
"598 1241 LINE",
"393 1241 LINE",
"-2 0 LINE",
"158 0 LINE",
"242 276 LINE",
"735 276 LINE",
"819 0 LINE",
"991 0 LINE"
);
},
{
closed = 1;
nodes = (
"492 1112 LINE",
"492 1112 OFFCURVE",
"508 1016 OFFCURVE",
"522 975 CURVE SMOOTH",
"690 422 LINE",
"287 422 LINE",
"457 975 LINE SMOOTH",
"469 1014 OFFCURVE",
"485 1112 OFFCURVE",
"485 1112 CURVE"
);
},
{
closed = 1;
nodes = (
"438 1599 LINE",
"281 1599 LINE",
"281 1427 LINE",
"438 1427 LINE"
);
},
{
closed = 1;
nodes = (
"711 1599 LINE",
"553 1599 LINE",
"553 1427 LINE",
"711 1427 LINE"
);
}
);
width = 991;
}
);
unicode = 00C4;
},
{
glyphname = Agrave;
layers = (
{
layerId = "D4AD7B3F-884E-49D2-9CE4-555FBB692325";
name = Light;
paths = (
{
closed = 1;
nodes = (
"598 1241 LINE",
"393 1241 LINE",
"-2 0 LINE",
"158 0 LINE",
"242 276 LINE",
"735 276 LINE",
"819 0 LINE",
"991 0 LINE"
);
},
{
closed = 1;
nodes = (
"492 1112 LINE",
"492 1112 OFFCURVE",
"508 1016 OFFCURVE",
"522 975 CURVE SMOOTH",
"690 422 LINE",
"287 422 LINE",
"457 975 LINE SMOOTH",
"469 1014 OFFCURVE",
"485 1112 OFFCURVE",
"485 1112 CURVE"
);
},
{
closed = 1;
nodes = (
"446 1599 LINE",
"285 1599 LINE",
"283 1593 LINE",
"477 1360 LINE",
"602 1360 LINE"
);
}
);
width = 991;
}
);
unicode = 00C0;
},
{
glyphname = Amacron;
layers = (
{
layerId = "D4AD7B3F-884E-49D2-9CE4-555FBB692325";
name = Light;
paths = (
{
closed = 1;
nodes = (
"598 1241 LINE",
"393 1241 LINE",
"-2 0 LINE",
"158 0 LINE",
"242 276 LINE",
"735 276 LINE",
"819 0 LINE",
"991 0 LINE"
);
},
{
closed = 1;
nodes = (
"492 1112 LINE",
"492 1112 OFFCURVE",
"508 1016 OFFCURVE",
"522 975 CURVE SMOOTH",
"690 422 LINE",
"287 422 LINE",
"457 975 LINE SMOOTH",
"469 1014 OFFCURVE",
"485 1112 OFFCURVE",
"485 1112 CURVE"
);
},
{
closed = 1;
nodes = (
"723 1505 LINE",
"268 1505 LINE",
"268 1374 LINE",
"723 1374 LINE"
);
}
);
width = 991;
}
);
unicode = 0100;
},
{
glyphname = Aogonek;
layers = (
{
layerId = "D4AD7B3F-884E-49D2-9CE4-555FBB692325";
name = Light;
paths = (
{
closed = 1;
nodes = (
"819 0 LINE",
"991 0 LINE",
"598 1241 LINE",
"393 1241 LINE",
"-2 0 LINE",
"158 0 LINE",
"242 276 LINE",
"735 276 LINE"
);
},
{
closed = 1;
nodes = (
"492 1112 LINE",
"492 1112 OFFCURVE",
"508 1016 OFFCURVE",
"522 975 CURVE SMOOTH",
"690 422 LINE",
"287 422 LINE",
"457 975 LINE SMOOTH",
"469 1014 OFFCURVE",
"485 1112 OFFCURVE",
"485 1112 CURVE"
);
},
{
closed = 1;
nodes = (
"879 0 LINE",
"844 -43 OFFCURVE",
"807 -84 OFFCURVE",
"807 -166 CURVE SMOOTH",
"807 -291 OFFCURVE",
"899 -330 OFFCURVE",
"977 -330 CURVE SMOOTH",
"1014 -330 OFFCURVE",
"1051 -319 OFFCURVE",
"1087 -305 CURVE",
"1087 -211 LINE",
"1032 -211 LINE SMOOTH",
"971 -211 OFFCURVE",
"948 -164 OFFCURVE",
"948 -113 CURVE SMOOTH",
"948 -61 OFFCURVE",
"973 -27 OFFCURVE",
"991 0 CURVE"
);
}
);
width = 991;
}
);
unicode = 0104;
},
{
glyphname = Aring;
layers = (
{
layerId = "D4AD7B3F-884E-49D2-9CE4-555FBB692325";
name = Light;
paths = (
{
closed = 1;
nodes = (
"598 1241 LINE",
"393 1241 LINE",
"-2 0 LINE",
"158 0 LINE",
"242 276 LINE",
"735 276 LINE",
"819 0 LINE",
"991 0 LINE"
);
},
{
closed = 1;
nodes = (
"492 1112 LINE",
"492 1112 OFFCURVE",
"508 1016 OFFCURVE",
"522 975 CURVE SMOOTH",
"690 422 LINE",
"287 422 LINE",
"457 975 LINE SMOOTH",
"469 1014 OFFCURVE",
"485 1112 OFFCURVE",
"485 1112 CURVE"
);
},
{
closed = 1;
nodes = (
"397 1657 OFFCURVE",
"319 1579 OFFCURVE",
"319 1483 CURVE SMOOTH",
"319 1384 OFFCURVE",
"399 1309 OFFCURVE",
"494 1309 CURVE SMOOTH",
"592 1309 OFFCURVE",
"668 1386 OFFCURVE",
"668 1483 CURVE SMOOTH",
"668 1577 OFFCURVE",
"594 1657 OFFCURVE",
"494 1657 CURVE SMOOTH"
);
},
{
closed = 1;
nodes = (
"543 1575 OFFCURVE",
"586 1534 OFFCURVE",
"586 1483 CURVE SMOOTH",
"586 1432 OFFCURVE",
"543 1391 OFFCURVE",
"494 1391 CURVE SMOOTH",
"444 1391 OFFCURVE",
"401 1432 OFFCURVE",
"401 1483 CURVE SMOOTH",
"401 1534 OFFCURVE",
"444 1575 OFFCURVE",
"494 1575 CURVE SMOOTH"
);
}
);
width = 991;
}
);
unicode = 00C5;
},
{
glyphname = Aringacute;
layers = (
{
layerId = "D4AD7B3F-884E-49D2-9CE4-555FBB692325";
name = Light;
paths = (
{
closed = 1;
nodes = (
"399 1487 OFFCURVE",
"322 1413 OFFCURVE",
"322 1319 CURVE SMOOTH",
"322 1270 OFFCURVE",
"344 1225 OFFCURVE",
"379 1196 CURVE",
"-2 0 LINE",
"158 0 LINE",
"242 276 LINE",
"735 276 LINE",
"819 0 LINE",
"991 0 LINE",
"612 1194 LINE",
"647 1225 OFFCURVE",
"670 1270 OFFCURVE",
"670 1319 CURVE SMOOTH",
"670 1411 OFFCURVE",
"594 1487 OFFCURVE",
"496 1487 CURVE SMOOTH"
);
},
{
closed = 1;
nodes = (
"492 1112 LINE",
"492 1112 OFFCURVE",
"508 1016 OFFCURVE",
"522 975 CURVE SMOOTH",
"690 422 LINE",
"287 422 LINE",
"457 975 LINE SMOOTH",
"469 1014 OFFCURVE",
"485 1112 OFFCURVE",
"485 1112 CURVE"
);
},
{
closed = 1;
nodes = (
"733 1724 LINE",
"731 1733 LINE",
"569 1733 LINE",
"440 1536 LINE",
"565 1536 LINE"
);
},
{
closed = 1;
nodes = (
"545 1409 OFFCURVE",
"588 1368 OFFCURVE",
"588 1319 CURVE SMOOTH",
"588 1272 OFFCURVE",
"545 1231 OFFCURVE",
"496 1231 CURVE SMOOTH",
"444 1231 OFFCURVE",
"403 1272 OFFCURVE",
"403 1319 CURVE SMOOTH",
"403 1368 OFFCURVE",
"444 1409 OFFCURVE",
"496 1409 CURVE SMOOTH"
);
}
);
width = 991;
}
);
unicode = 01FA;
},
{
glyphname = Atilde;
layers = (
{
layerId = "D4AD7B3F-884E-49D2-9CE4-555FBB692325";
name = Light;
paths = (
{
closed = 1;
nodes = (
"598 1241 LINE",
"393 1241 LINE",
"-2 0 LINE",
"158 0 LINE",
"242 276 LINE",
"735 276 LINE",
"819 0 LINE",
"991 0 LINE"
);
},
{
closed = 1;
nodes = (
"492 1112 LINE",
"492 1112 OFFCURVE",
"508 1016 OFFCURVE",
"522 975 CURVE SMOOTH",
"690 422 LINE",
"287 422 LINE",
"457 975 LINE SMOOTH",
"469 1014 OFFCURVE",
"485 1112 OFFCURVE",
"485 1112 CURVE"
);
},
{
closed = 1;
nodes = (
"653 1599 LINE",
"647 1556 OFFCURVE",
"625 1544 OFFCURVE",
"592 1544 CURVE SMOOTH",
"522 1544 OFFCURVE",
"461 1599 OFFCURVE",
"383 1599 CURVE SMOOTH",
"274 1599 OFFCURVE",
"229 1493 OFFCURVE",
"229 1411 CURVE",
"336 1411 LINE",
"340 1452 OFFCURVE",
"365 1466 OFFCURVE",
"397 1466 CURVE SMOOTH",
"467 1466 OFFCURVE",
"526 1411 OFFCURVE",
"604 1411 CURVE SMOOTH",
"715 1411 OFFCURVE",
"758 1516 OFFCURVE",
"758 1599 CURVE"
);
}
);
width = 991;
}
);
unicode = 00C3;
},
{
glyphname = AE;
layers = (
{
anchors = (
{
name = top;
position = "{741, 1241}";
}
);
layerId = "D4AD7B3F-884E-49D2-9CE4-555FBB692325";
name = Light;
paths = (
{
closed = 1;
nodes = (
"1407 1241 LINE",
"506 1241 LINE",
"-2 0 LINE",
"158 0 LINE",
"264 276 LINE",
"758 276 LINE",
"819 0 LINE",
"1417 0 LINE",
"1417 145 LINE",
"958 145 LINE",
"864 563 LINE",
"1327 563 LINE",
"1327 709 LINE",
"831 709 LINE",
"741 1098 LINE",
"1407 1098 LINE"
);
},
{
closed = 1;
nodes = (
"586 1096 LINE",
"592 1057 OFFCURVE",
"596 1022 OFFCURVE",
"604 983 CURVE SMOOTH",
"727 422 LINE",
"319 422 LINE",
"539 983 LINE SMOOTH",
"555 1022 OFFCURVE",
"565 1057 OFFCURVE",
"578 1096 CURVE"
);
}
);
width = 1485;
}
);
unicode = 00C6;
},
{
glyphname = AEacute;
layers = (
{
layerId = "D4AD7B3F-884E-49D2-9CE4-555FBB692325";
name = Light;
paths = (
{
closed = 1;
nodes = (
"1407 1241 LINE",
"506 1241 LINE",
"-2 0 LINE",
"158 0 LINE",
"264 276 LINE",
"758 276 LINE",
"819 0 LINE",
"1417 0 LINE",
"1417 145 LINE",
"958 145 LINE",
"864 563 LINE",
"1327 563 LINE",
"1327 709 LINE",
"831 709 LINE",
"741 1098 LINE",
"1407 1098 LINE"
);
},
{
closed = 1;
nodes = (
"586 1096 LINE",
"592 1057 OFFCURVE",
"596 1022 OFFCURVE",
"604 983 CURVE SMOOTH",
"727 422 LINE",
"319 422 LINE",
"539 983 LINE SMOOTH",
"555 1022 OFFCURVE",
"565 1057 OFFCURVE",
"578 1096 CURVE"
);
},
{
closed = 1;
nodes = (
"1130 1599 LINE",
"967 1599 LINE",
"811 1360 LINE",
"936 1360 LINE",
"1130 1593 LINE"
);
}
);
width = 1485;
}
);
unicode = 01FC;
},
{
glyphname = B;
layers = (
{
layerId = "D4AD7B3F-884E-49D2-9CE4-555FBB692325";
name = Light;
paths = (
{
closed = 1;
nodes = (
"117 1241 LINE",
"117 0 LINE",
"588 0 LINE SMOOTH",
"778 0 OFFCURVE",
"938 121 OFFCURVE",
"938 330 CURVE SMOOTH",
"938 489 OFFCURVE",
"842 606 OFFCURVE",
"719 645 CURVE",
"719 651 LINE",
"825 690 OFFCURVE",
"909 795 OFFCURVE",
"909 938 CURVE SMOOTH",
"909 1120 OFFCURVE",
"772 1241 OFFCURVE",
"588 1241 CURVE SMOOTH"
);
},
{
closed = 1;
nodes = (
"276 563 LINE",
"555 563 LINE SMOOTH",
"688 563 OFFCURVE",
"772 463 OFFCURVE",
"772 350 CURVE SMOOTH",
"772 217 OFFCURVE",
"684 145 OFFCURVE",
"567 145 CURVE SMOOTH",
"276 145 LINE"
);
},
{
closed = 1;
nodes = (
"276 1098 LINE",
"553 1098 LINE SMOOTH",
"666 1098 OFFCURVE",
"741 1034 OFFCURVE",
"741 903 CURVE SMOOTH",
"741 799 OFFCURVE",
"664 709 OFFCURVE",
"541 709 CURVE SMOOTH",
"276 709 LINE"
);
}
);
width = 991;
}
);
unicode = 0042;
},
{
glyphname = C;
layers = (
{
anchors = (
{
name = bottom;
position = "{537, 0}";
},
{
name = top;
position = "{537, 1241}";
}
);
layerId = "D4AD7B3F-884E-49D2-9CE4-555FBB692325";
name = Light;
paths = (
{
closed = 1;
nodes = (
"242 1264 OFFCURVE",
"76 1053 OFFCURVE",
"76 621 CURVE SMOOTH",
"76 190 OFFCURVE",
"242 -23 OFFCURVE",
"565 -23 CURVE SMOOTH",
"819 -23 OFFCURVE",
"997 125 OFFCURVE",
"997 444 CURVE",
"840 444 LINE",
"840 229 OFFCURVE",
"731 125 OFFCURVE",
"565 125 CURVE SMOOTH",
"348 125 OFFCURVE",
"242 272 OFFCURVE",
"242 575 CURVE SMOOTH",
"242 666 LINE SMOOTH",
"242 969 OFFCURVE",
"348 1116 OFFCURVE",
"565 1116 CURVE SMOOTH",
"727 1116 OFFCURVE",
"836 1010 OFFCURVE",
"836 793 CURVE",
"997 793 LINE",
"997 1110 OFFCURVE",
"819 1264 OFFCURVE",
"565 1264 CURVE SMOOTH"
);
}
);
width = 1071;
}
);
unicode = 0043;
},
{
glyphname = Cacute;
layers = (
{
layerId = "D4AD7B3F-884E-49D2-9CE4-555FBB692325";
name = Light;
paths = (
{
closed = 1;
nodes = (
"242 1264 OFFCURVE",
"76 1053 OFFCURVE",
"76 621 CURVE SMOOTH",
"76 190 OFFCURVE",
"242 -23 OFFCURVE",
"565 -23 CURVE SMOOTH",
"819 -23 OFFCURVE",
"997 125 OFFCURVE",
"997 444 CURVE",
"840 444 LINE",
"840 229 OFFCURVE",
"731 125 OFFCURVE",
"565 125 CURVE SMOOTH",
"348 125 OFFCURVE",
"242 272 OFFCURVE",
"242 575 CURVE SMOOTH",
"242 666 LINE SMOOTH",
"242 969 OFFCURVE",
"348 1116 OFFCURVE",
"565 1116 CURVE SMOOTH",
"727 1116 OFFCURVE",
"836 1010 OFFCURVE",
"836 793 CURVE",
"997 793 LINE",
"997 1110 OFFCURVE",
"819 1264 OFFCURVE",
"565 1264 CURVE SMOOTH"
);
},
{
closed = 1;
nodes = (
"772 1599 LINE",
"610 1599 LINE",
"455 1360 LINE",
"580 1360 LINE",
"774 1593 LINE"
);
}
);
width = 1071;
}
);
unicode = 0106;
},
{
glyphname = Ccaron;
layers = (
{
layerId = "D4AD7B3F-884E-49D2-9CE4-555FBB692325";
name = Light;
paths = (
{
closed = 1;
nodes = (
"242 1264 OFFCURVE",
"76 1053 OFFCURVE",
"76 621 CURVE SMOOTH",
"76 190 OFFCURVE",
"242 -23 OFFCURVE",
"565 -23 CURVE SMOOTH",
"819 -23 OFFCURVE",
"997 125 OFFCURVE",
"997 444 CURVE",
"840 444 LINE",
"840 229 OFFCURVE",
"731 125 OFFCURVE",
"565 125 CURVE SMOOTH",
"348 125 OFFCURVE",
"242 272 OFFCURVE",
"242 575 CURVE SMOOTH",
"242 666 LINE SMOOTH",
"242 969 OFFCURVE",
"348 1116 OFFCURVE",
"565 1116 CURVE SMOOTH",
"727 1116 OFFCURVE",
"836 1010 OFFCURVE",
"836 793 CURVE",
"997 793 LINE",
"997 1110 OFFCURVE",
"819 1264 OFFCURVE",
"565 1264 CURVE SMOOTH"
);
},
{
closed = 1;
nodes = (
"604 1354 LINE",
"762 1599 LINE",
"616 1599 LINE",
"537 1456 LINE",
"455 1599 LINE",
"309 1599 LINE",
"463 1354 LINE"
);
}
);
width = 1071;
}
);
unicode = 010C;
},
{
glyphname = Ccedilla;
layers = (
{
layerId = "D4AD7B3F-884E-49D2-9CE4-555FBB692325";
name = Light;
paths = (
{
closed = 1;
nodes = (
"242 1264 OFFCURVE",
"76 1053 OFFCURVE",
"76 621 CURVE SMOOTH",
"76 236 OFFCURVE",
"209 25 OFFCURVE",
"467 -14 CURVE",
"446 -139 LINE",
"508 -139 LINE SMOOTH",
"555 -139 OFFCURVE",
"569 -154 OFFCURVE",
"569 -182 CURVE SMOOTH",
"569 -217 OFFCURVE",
"543 -227 OFFCURVE",
"504 -227 CURVE SMOOTH",
"367 -227 LINE",
"367 -315 LINE",
"410 -324 OFFCURVE",
"467 -330 OFFCURVE",
"518 -330 CURVE SMOOTH",
"592 -330 OFFCURVE",
"707 -305 OFFCURVE",
"707 -182 CURVE SMOOTH",
"707 -100 OFFCURVE",
"637 -70 OFFCURVE",
"559 -66 CURVE",
"565 -23 LINE",
"819 -23 OFFCURVE",
"997 125 OFFCURVE",
"997 444 CURVE",
"840 444 LINE",
"840 229 OFFCURVE",
"731 125 OFFCURVE",
"565 125 CURVE SMOOTH",
"348 125 OFFCURVE",
"242 272 OFFCURVE",
"242 575 CURVE SMOOTH",
"242 666 LINE SMOOTH",
"242 969 OFFCURVE",
"348 1116 OFFCURVE",
"565 1116 CURVE SMOOTH",
"727 1116 OFFCURVE",
"836 1010 OFFCURVE",
"836 793 CURVE",
"997 793 LINE",
"997 1110 OFFCURVE",
"819 1264 OFFCURVE",
"565 1264 CURVE SMOOTH"
);
}
);
width = 1071;
}
);
unicode = 00C7;
},
{
glyphname = Ccircumflex;
layers = (
{
layerId = "D4AD7B3F-884E-49D2-9CE4-555FBB692325";
name = Light;
paths = (
{
closed = 1;
nodes = (
"242 1264 OFFCURVE",
"76 1053 OFFCURVE",
"76 621 CURVE SMOOTH",
"76 190 OFFCURVE",
"242 -23 OFFCURVE",
"565 -23 CURVE SMOOTH",
"819 -23 OFFCURVE",
"997 125 OFFCURVE",
"997 444 CURVE",
"840 444 LINE",
"840 229 OFFCURVE",
"731 125 OFFCURVE",
"565 125 CURVE SMOOTH",
"348 125 OFFCURVE",
"242 272 OFFCURVE",
"242 575 CURVE SMOOTH",
"242 666 LINE SMOOTH",
"242 969 OFFCURVE",
"348 1116 OFFCURVE",
"565 1116 CURVE SMOOTH",
"727 1116 OFFCURVE",
"836 1010 OFFCURVE",
"836 793 CURVE",
"997 793 LINE",
"997 1110 OFFCURVE",
"819 1264 OFFCURVE",
"565 1264 CURVE SMOOTH"
);
},
{
closed = 1;
nodes = (
"762 1352 LINE",
"606 1597 LINE",
"465 1597 LINE",
"309 1352 LINE",
"455 1352 LINE",
"539 1495 LINE",
"616 1352 LINE"
);
}
);
width = 1071;
}
);
unicode = 0108;
},
{
glyphname = Cdotaccent;
layers = (
{
layerId = "D4AD7B3F-884E-49D2-9CE4-555FBB692325";
name = Light;
paths = (
{
closed = 1;
nodes = (
"242 1264 OFFCURVE",
"76 1053 OFFCURVE",
"76 621 CURVE SMOOTH",
"76 190 OFFCURVE",
"242 -23 OFFCURVE",
"565 -23 CURVE SMOOTH",
"819 -23 OFFCURVE",
"997 125 OFFCURVE",
"997 444 CURVE",
"840 444 LINE",
"840 229 OFFCURVE",
"731 125 OFFCURVE",
"565 125 CURVE SMOOTH",
"348 125 OFFCURVE",
"242 272 OFFCURVE",
"242 575 CURVE SMOOTH",
"242 666 LINE SMOOTH",
"242 969 OFFCURVE",
"348 1116 OFFCURVE",
"565 1116 CURVE SMOOTH",
"727 1116 OFFCURVE",
"836 1010 OFFCURVE",
"836 793 CURVE",
"997 793 LINE",
"997 1110 OFFCURVE",
"819 1264 OFFCURVE",
"565 1264 CURVE SMOOTH"
);
},
{
closed = 1;
nodes = (
"616 1427 LINE",
"616 1599 LINE",
"457 1599 LINE",
"457 1427 LINE"
);
}
);
width = 1071;
}
);
unicode = 010A;
},
{
glyphname = D;
layers = (
{
anchors = (
{
name = center;
position = "{537, 621}";
},
{
name = top;
position = "{537, 1241}";
}
);
layerId = "D4AD7B3F-884E-49D2-9CE4-555FBB692325";
name = Light;
paths = (
{
closed = 1;
nodes = (
"127 0 LINE",
"512 0 LINE SMOOTH",
"805 0 OFFCURVE",
"983 213 OFFCURVE",
"983 639 CURVE SMOOTH",
"983 1038 OFFCURVE",
"805 1241 OFFCURVE",
"512 1241 CURVE SMOOTH",
"127 1241 LINE"
);
},
{
closed = 1;
nodes = (
"287 1098 LINE",
"498 1098 LINE SMOOTH",
"694 1098 OFFCURVE",
"817 961 OFFCURVE",
"817 684 CURVE SMOOTH",
"817 594 LINE SMOOTH",
"817 291 OFFCURVE",
"694 145 OFFCURVE",
"498 145 CURVE SMOOTH",
"287 145 LINE"
);
}
);
width = 1071;
}
);
unicode = 0044;
},
{
glyphname = Eth;
layers = (
{
layerId = "D4AD7B3F-884E-49D2-9CE4-555FBB692325";
name = Light;
paths = (
{
closed = 1;
nodes = (
"8 700 LINE",
"8 586 LINE",
"127 586 LINE",
"127 0 LINE",
"512 0 LINE SMOOTH",
"805 0 OFFCURVE",
"983 213 OFFCURVE",
"983 639 CURVE SMOOTH",
"983 1038 OFFCURVE",
"805 1241 OFFCURVE",
"512 1241 CURVE SMOOTH",
"127 1241 LINE",
"127 700 LINE"
);
},
{
closed = 1;
nodes = (
"287 1098 LINE",
"498 1098 LINE SMOOTH",
"694 1098 OFFCURVE",
"817 961 OFFCURVE",
"817 684 CURVE SMOOTH",
"817 594 LINE SMOOTH",
"817 291 OFFCURVE",
"694 145 OFFCURVE",
"498 145 CURVE SMOOTH",
"287 145 LINE",
"287 586 LINE",
"569 586 LINE",
"569 700 LINE",
"287 700 LINE"
);
}
);
width = 1071;
}
);
unicode = 00D0;
},
{
glyphname = Dcaron;
layers = (
{
layerId = "D4AD7B3F-884E-49D2-9CE4-555FBB692325";
name = Light;
paths = (
{
closed = 1;
nodes = (
"604 1354 LINE",
"762 1599 LINE",
"616 1599 LINE",
"537 1456 LINE",
"455 1599 LINE",
"309 1599 LINE",
"463 1354 LINE"
);
},
{
closed = 1;
nodes = (
"127 0 LINE",
"512 0 LINE SMOOTH",
"805 0 OFFCURVE",
"983 213 OFFCURVE",
"983 639 CURVE SMOOTH",
"983 1038 OFFCURVE",
"805 1241 OFFCURVE",
"512 1241 CURVE SMOOTH",
"127 1241 LINE"
);
},
{
closed = 1;
nodes = (
"287 1098 LINE",
"498 1098 LINE SMOOTH",
"694 1098 OFFCURVE",
"817 961 OFFCURVE",
"817 684 CURVE SMOOTH",
"817 594 LINE SMOOTH",
"817 291 OFFCURVE",
"694 145 OFFCURVE",
"498 145 CURVE SMOOTH",
"287 145 LINE"
);
}
);
width = 1071;
}
);
unicode = 010E;
},
{
glyphname = Dcroat;
layers = (
{
layerId = "D4AD7B3F-884E-49D2-9CE4-555FBB692325";
name = Light;
paths = (
{
closed = 1;
nodes = (
"8 700 LINE",
"8 586 LINE",
"127 586 LINE",
"127 0 LINE",
"512 0 LINE SMOOTH",
"805 0 OFFCURVE",
"983 213 OFFCURVE",
"983 639 CURVE SMOOTH",
"983 1038 OFFCURVE",
"805 1241 OFFCURVE",
"512 1241 CURVE SMOOTH",
"127 1241 LINE",
"127 700 LINE"
);
},
{
closed = 1;
nodes = (
"287 1098 LINE",
"498 1098 LINE SMOOTH",
"694 1098 OFFCURVE",
"817 961 OFFCURVE",
"817 684 CURVE SMOOTH",
"817 594 LINE SMOOTH",
"817 291 OFFCURVE",
"694 145 OFFCURVE",
"498 145 CURVE SMOOTH",
"287 145 LINE",
"287 586 LINE",
"569 586 LINE",
"569 700 LINE",
"287 700 LINE"
);
}
);
width = 1071;
}
);
unicode = 0110;
},
{
glyphname = E;
layers = (
{
anchors = (
{
name = bottom;
position = "{496, 0}";
},
{
name = ogonek;
position = "{891, 18}";
},
{
name = top;
position = "{496, 1241}";
}
);
layerId = "D4AD7B3F-884E-49D2-9CE4-555FBB692325";
name = Light;
paths = (
{
closed = 1;
nodes = (
"127 0 LINE",
"903 0 LINE",
"903 145 LINE",
"287 145 LINE",
"287 563 LINE",
"813 563 LINE",
"813 709 LINE",
"287 709 LINE",
"287 1098 LINE",
"893 1098 LINE",
"893 1241 LINE",
"127 1241 LINE"
);
}
);
width = 991;
}
);
unicode = 0045;
},
{
glyphname = Eacute;
layers = (
{
layerId = "D4AD7B3F-884E-49D2-9CE4-555FBB692325";
name = Light;
paths = (
{
closed = 1;
nodes = (
"893 1241 LINE",
"127 1241 LINE",
"127 0 LINE",
"903 0 LINE",
"903 145 LINE",
"287 145 LINE",
"287 563 LINE",
"813 563 LINE",
"813 709 LINE",
"287 709 LINE",
"287 1098 LINE",
"893 1098 LINE"
);
},
{
closed = 1;
nodes = (
"707 1599 LINE",
"543 1599 LINE",
"387 1360 LINE",
"512 1360 LINE",
"709 1593 LINE"
);
}
);
width = 991;
}
);
unicode = 00C9;
},
{
glyphname = Ebreve;
layers = (
{
layerId = "D4AD7B3F-884E-49D2-9CE4-555FBB692325";
name = Light;
paths = (
{
closed = 1;
nodes = (
"602 1599 LINE",
"600 1573 OFFCURVE",
"555 1538 OFFCURVE",
"494 1538 CURVE SMOOTH",
"434 1538 OFFCURVE",
"393 1573 OFFCURVE",
"387 1599 CURVE",
"272 1599 LINE",
"272 1518 OFFCURVE",
"356 1423 OFFCURVE",
"494 1423 CURVE SMOOTH",
"633 1423 OFFCURVE",
"719 1518 OFFCURVE",
"719 1599 CURVE"
);
},
{
closed = 1;
nodes = (
"127 0 LINE",
"903 0 LINE",
"903 145 LINE",
"287 145 LINE",
"287 563 LINE",
"813 563 LINE",
"813 709 LINE",
"287 709 LINE",
"287 1098 LINE",
"893 1098 LINE",
"893 1241 LINE",
"127 1241 LINE"
);
}
);
width = 991;
}
);
unicode = 0114;
},
{
glyphname = Ecaron;
layers = (
{
layerId = "D4AD7B3F-884E-49D2-9CE4-555FBB692325";
name = Light;
paths = (
{
closed = 1;
nodes = (
"565 1354 LINE",
"721 1599 LINE",
"575 1599 LINE",
"494 1456 LINE",
"414 1599 LINE",
"270 1599 LINE",
"424 1354 LINE"
);
},
{
closed = 1;
nodes = (
"127 0 LINE",
"903 0 LINE",
"903 145 LINE",
"287 145 LINE",
"287 563 LINE",
"813 563 LINE",
"813 709 LINE",
"287 709 LINE",
"287 1098 LINE",
"893 1098 LINE",
"893 1241 LINE",
"127 1241 LINE"
);
}
);
width = 991;
}
);
unicode = 011A;
},
{
glyphname = Ecircumflex;
layers = (
{
layerId = "D4AD7B3F-884E-49D2-9CE4-555FBB692325";
name = Light;
paths = (
{
closed = 1;
nodes = (
"721 1352 LINE",
"567 1597 LINE",
"426 1597 LINE",
"270 1352 LINE",
"414 1352 LINE",
"496 1495 LINE",
"575 1352 LINE"
);
},
{
closed = 1;
nodes = (
"127 0 LINE",
"903 0 LINE",
"903 145 LINE",
"287 145 LINE",
"287 563 LINE",
"813 563 LINE",
"813 709 LINE",
"287 709 LINE",
"287 1098 LINE",
"893 1098 LINE",
"893 1241 LINE",
"127 1241 LINE"
);
}
);
width = 991;
}
);
unicode = 00CA;
},
{
glyphname = Edieresis;
layers = (
{
layerId = "D4AD7B3F-884E-49D2-9CE4-555FBB692325";
name = Light;
paths = (
{
closed = 1;
nodes = (
"893 1241 LINE",
"127 1241 LINE",
"127 0 LINE",
"903 0 LINE",
"903 145 LINE",
"287 145 LINE",
"287 563 LINE",
"813 563 LINE",
"813 709 LINE",
"287 709 LINE",
"287 1098 LINE",
"893 1098 LINE"
);
},
{
closed = 1;
nodes = (
"438 1599 LINE",
"281 1599 LINE",
"281 1427 LINE",
"438 1427 LINE"
);
},
{
closed = 1;
nodes = (
"711 1599 LINE",
"553 1599 LINE",
"553 1427 LINE",
"711 1427 LINE"
);
}
);
width = 991;
}
);
unicode = 00CB;
},
{
glyphname = Edotaccent;
layers = (
{
layerId = "D4AD7B3F-884E-49D2-9CE4-555FBB692325";
name = Light;
paths = (
{
closed = 1;
nodes = (
"573 1427 LINE",
"573 1599 LINE",
"416 1599 LINE",
"416 1427 LINE"
);
},
{
closed = 1;
nodes = (
"127 0 LINE",
"903 0 LINE",
"903 145 LINE",
"287 145 LINE",
"287 563 LINE",
"813 563 LINE",
"813 709 LINE",
"287 709 LINE",
"287 1098 LINE",
"893 1098 LINE",
"893 1241 LINE",
"127 1241 LINE"
);
}
);
width = 991;
}
);
unicode = 0116;
},
{
glyphname = Egrave;
layers = (
{
layerId = "D4AD7B3F-884E-49D2-9CE4-555FBB692325";
name = Light;
paths = (
{
closed = 1;
nodes = (
"893 1241 LINE",
"127 1241 LINE",
"127 0 LINE",
"903 0 LINE",
"903 145 LINE",
"287 145 LINE",
"287 563 LINE",
"813 563 LINE",
"813 709 LINE",
"287 709 LINE",
"287 1098 LINE",
"893 1098 LINE"
);
},
{
closed = 1;
nodes = (
"446 1599 LINE",
"285 1599 LINE",
"283 1593 LINE",
"477 1360 LINE",
"602 1360 LINE"
);
}
);
width = 991;
}
);
unicode = 00C8;
},
{
glyphname = Emacron;
layers = (
{
layerId = "D4AD7B3F-884E-49D2-9CE4-555FBB692325";
name = Light;
paths = (
{
closed = 1;
nodes = (
"723 1374 LINE",
"723 1505 LINE",
"268 1505 LINE",
"268 1374 LINE"
);
},
{
closed = 1;
nodes = (
"127 0 LINE",
"903 0 LINE",
"903 145 LINE",
"287 145 LINE",
"287 563 LINE",
"813 563 LINE",
"813 709 LINE",
"287 709 LINE",
"287 1098 LINE",
"893 1098 LINE",
"893 1241 LINE",
"127 1241 LINE"
);
}
);
width = 991;
}
);
unicode = 0112;
},
{
glyphname = Eogonek;
layers = (
{
layerId = "D4AD7B3F-884E-49D2-9CE4-555FBB692325";
name = Light;
paths = (
{
closed = 1;
nodes = (
"893 1098 LINE",
"893 1241 LINE",
"127 1241 LINE",
"127 0 LINE",
"786 0 LINE",
"748 -41 OFFCURVE",
"719 -90 OFFCURVE",
"719 -166 CURVE SMOOTH",
"719 -291 OFFCURVE",
"811 -330 OFFCURVE",
"889 -330 CURVE SMOOTH",
"926 -330 OFFCURVE",
"961 -319 OFFCURVE",
"999 -305 CURVE",
"999 -211 LINE",
"944 -211 LINE SMOOTH",
"883 -211 OFFCURVE",
"860 -164 OFFCURVE",
"860 -113 CURVE SMOOTH",
"860 -70 OFFCURVE",
"883 -27 OFFCURVE",
"903 0 CURVE",
"903 145 LINE",
"287 145 LINE",
"287 563 LINE",
"813 563 LINE",
"813 709 LINE",
"287 709 LINE",
"287 1098 LINE"
);
}
);
width = 991;
}
);
unicode = 0118;
},
{
glyphname = F;
layers = (
{
layerId = "D4AD7B3F-884E-49D2-9CE4-555FBB692325";
name = Light;
paths = (
{
closed = 1;
nodes = (
"127 0 LINE",
"287 0 LINE",
"287 551 LINE",
"778 551 LINE",
"778 694 LINE",
"287 694 LINE",
"287 1098 LINE",
"844 1098 LINE",
"844 1241 LINE",
"127 1241 LINE"
);
}
);
width = 907;
}
);
unicode = 0046;
},
{
glyphname = G;
layers = (
{
anchors = (
{
name = bottom;
position = "{578, 0}";
},
{
name = top;
position = "{578, 1241}";
}
);
layerId = "D4AD7B3F-884E-49D2-9CE4-555FBB692325";
name = Light;
paths = (
{
closed = 1;
nodes = (
"276 1264 OFFCURVE",
"88 1053 OFFCURVE",
"88 621 CURVE SMOOTH",
"88 190 OFFCURVE",
"264 -23 OFFCURVE",
"578 -23 CURVE SMOOTH",
"711 -23 OFFCURVE",
"821 25 OFFCURVE",
"897 137 CURVE",
"932 0 LINE",
"1038 0 LINE",
"1038 647 LINE",
"553 647 LINE",
"553 508 LINE",
"942 508 LINE",
"874 573 LINE",
"874 477 LINE SMOOTH",
"874 242 OFFCURVE",
"784 125 OFFCURVE",
"578 125 CURVE SMOOTH",
"369 125 OFFCURVE",
"256 272 OFFCURVE",
"256 575 CURVE SMOOTH",
"256 666 LINE SMOOTH",
"256 969 OFFCURVE",
"383 1116 OFFCURVE",
"586 1116 CURVE SMOOTH",
"758 1116 OFFCURVE",
"874 1024 OFFCURVE",
"874 819 CURVE",
"1038 819 LINE",
"1038 1118 OFFCURVE",
"846 1264 OFFCURVE",
"586 1264 CURVE SMOOTH"
);
}
);
width = 1155;
}
);
unicode = 0047;
},
{
glyphname = Gbreve;
layers = (
{
layerId = "D4AD7B3F-884E-49D2-9CE4-555FBB692325";
name = Light;
paths = (
{
closed = 1;
nodes = (
"686 1599 LINE",
"682 1573 OFFCURVE",
"639 1538 OFFCURVE",
"578 1538 CURVE SMOOTH",
"518 1538 OFFCURVE",
"475 1573 OFFCURVE",
"471 1599 CURVE",
"354 1599 LINE",
"354 1518 OFFCURVE",
"440 1423 OFFCURVE",
"578 1423 CURVE SMOOTH",
"717 1423 OFFCURVE",
"803 1518 OFFCURVE",
"803 1599 CURVE"
);
},
{
closed = 1;
nodes = (
"276 1264 OFFCURVE",
"88 1053 OFFCURVE",
"88 621 CURVE SMOOTH",
"88 190 OFFCURVE",
"264 -23 OFFCURVE",
"578 -23 CURVE SMOOTH",
"711 -23 OFFCURVE",
"821 25 OFFCURVE",
"897 137 CURVE",
"932 0 LINE",
"1038 0 LINE",
"1038 647 LINE",
"553 647 LINE",
"553 508 LINE",
"942 508 LINE",
"874 573 LINE",
"874 477 LINE SMOOTH",
"874 242 OFFCURVE",
"784 125 OFFCURVE",
"578 125 CURVE SMOOTH",
"369 125 OFFCURVE",
"256 272 OFFCURVE",
"256 575 CURVE SMOOTH",
"256 666 LINE SMOOTH",
"256 969 OFFCURVE",
"383 1116 OFFCURVE",
"586 1116 CURVE SMOOTH",
"758 1116 OFFCURVE",
"874 1024 OFFCURVE",
"874 819 CURVE",
"1038 819 LINE",
"1038 1118 OFFCURVE",
"846 1264 OFFCURVE",
"586 1264 CURVE SMOOTH"
);
}
);
width = 1155;
}
);
unicode = 011E;
},
{
glyphname = Gcircumflex;
layers = (
{
layerId = "D4AD7B3F-884E-49D2-9CE4-555FBB692325";
name = Light;
paths = (
{
closed = 1;
nodes = (
"803 1352 LINE",
"649 1597 LINE",
"508 1597 LINE",
"352 1352 LINE",
"498 1352 LINE",
"580 1495 LINE",
"659 1352 LINE"
);
},
{
closed = 1;
nodes = (
"276 1264 OFFCURVE",
"88 1053 OFFCURVE",
"88 621 CURVE SMOOTH",
"88 190 OFFCURVE",
"264 -23 OFFCURVE",
"578 -23 CURVE SMOOTH",
"711 -23 OFFCURVE",
"821 25 OFFCURVE",
"897 137 CURVE",
"932 0 LINE",
"1038 0 LINE",
"1038 647 LINE",
"553 647 LINE",
"553 508 LINE",
"942 508 LINE",
"874 573 LINE",
"874 477 LINE SMOOTH",
"874 242 OFFCURVE",
"784 125 OFFCURVE",
"578 125 CURVE SMOOTH",
"369 125 OFFCURVE",
"256 272 OFFCURVE",
"256 575 CURVE SMOOTH",
"256 666 LINE SMOOTH",
"256 969 OFFCURVE",
"383 1116 OFFCURVE",
"586 1116 CURVE SMOOTH",
"758 1116 OFFCURVE",
"874 1024 OFFCURVE",
"874 819 CURVE",
"1038 819 LINE",
"1038 1118 OFFCURVE",
"846 1264 OFFCURVE",
"586 1264 CURVE SMOOTH"
);
}
);
width = 1155;
}
);
unicode = 011C;
},
{
glyphname = Gcommaaccent;
layers = (
{
layerId = "D4AD7B3F-884E-49D2-9CE4-555FBB692325";
name = Light;
paths = (
{
closed = 1;
nodes = (
"655 -260 LINE",
"655 -109 LINE",
"502 -109 LINE",
"502 -272 LINE",
"563 -272 LINE",
"522 -401 LINE",
"602 -401 LINE"
);
},
{
closed = 1;
nodes = (
"276 1264 OFFCURVE",
"88 1053 OFFCURVE",
"88 621 CURVE SMOOTH",
"88 190 OFFCURVE",
"264 -23 OFFCURVE",
"578 -23 CURVE SMOOTH",
"711 -23 OFFCURVE",
"821 25 OFFCURVE",
"897 137 CURVE",
"932 0 LINE",
"1038 0 LINE",
"1038 647 LINE",
"553 647 LINE",
"553 508 LINE",
"942 508 LINE",
"874 573 LINE",
"874 477 LINE SMOOTH",
"874 242 OFFCURVE",
"784 125 OFFCURVE",
"578 125 CURVE SMOOTH",
"369 125 OFFCURVE",
"256 272 OFFCURVE",
"256 575 CURVE SMOOTH",
"256 666 LINE SMOOTH",
"256 969 OFFCURVE",
"383 1116 OFFCURVE",
"586 1116 CURVE SMOOTH",
"758 1116 OFFCURVE",
"874 1024 OFFCURVE",
"874 819 CURVE",
"1038 819 LINE",
"1038 1118 OFFCURVE",
"846 1264 OFFCURVE",
"586 1264 CURVE SMOOTH"
);
}
);
width = 1155;
}
);
unicode = 0122;
},
{
glyphname = Gdotaccent;
layers = (
{
layerId = "D4AD7B3F-884E-49D2-9CE4-555FBB692325";
name = Light;
paths = (
{
closed = 1;
nodes = (
"657 1427 LINE",
"657 1599 LINE",
"500 1599 LINE",
"500 1427 LINE"
);
},
{
closed = 1;
nodes = (
"276 1264 OFFCURVE",
"88 1053 OFFCURVE",
"88 621 CURVE SMOOTH",
"88 190 OFFCURVE",
"264 -23 OFFCURVE",
"578 -23 CURVE SMOOTH",
"711 -23 OFFCURVE",
"821 25 OFFCURVE",
"897 137 CURVE",
"932 0 LINE",
"1038 0 LINE",
"1038 647 LINE",
"553 647 LINE",
"553 508 LINE",
"942 508 LINE",
"874 573 LINE",
"874 477 LINE SMOOTH",
"874 242 OFFCURVE",
"784 125 OFFCURVE",
"578 125 CURVE SMOOTH",
"369 125 OFFCURVE",
"256 272 OFFCURVE",
"256 575 CURVE SMOOTH",
"256 666 LINE SMOOTH",
"256 969 OFFCURVE",
"383 1116 OFFCURVE",
"586 1116 CURVE SMOOTH",
"758 1116 OFFCURVE",
"874 1024 OFFCURVE",
"874 819 CURVE",
"1038 819 LINE",
"1038 1118 OFFCURVE",
"846 1264 OFFCURVE",
"586 1264 CURVE SMOOTH"
);
}
);
width = 1155;
}
);
unicode = 0120;
},
{
glyphname = H;
layers = (
{
anchors = (
{
name = center;
position = "{537, 621}";
},
{
name = top;
position = "{537, 1241}";
}
);
layerId = "D4AD7B3F-884E-49D2-9CE4-555FBB692325";
name = Light;
paths = (
{
closed = 1;
nodes = (
"944 1241 LINE",
"786 1241 LINE",
"786 709 LINE",
"287 709 LINE",
"287 1241 LINE",
"127 1241 LINE",
"127 0 LINE",
"287 0 LINE",
"287 563 LINE",
"786 563 LINE",
"786 0 LINE",
"944 0 LINE"
);
}
);
width = 1071;
}
);
unicode = 0048;
},
{
glyphname = Hbar;
layers = (
{
layerId = "D4AD7B3F-884E-49D2-9CE4-555FBB692325";
name = Light;
paths = (
{
closed = 1;
nodes = (
"1036 887 LINE",
"1036 1018 LINE",
"944 1018 LINE",
"944 1241 LINE",
"786 1241 LINE",
"786 1018 LINE",
"287 1018 LINE",
"287 1241 LINE",
"127 1241 LINE",
"127 1018 LINE",
"37 1018 LINE",
"37 887 LINE",
"127 887 LINE",
"127 0 LINE",
"287 0 LINE",
"287 555 LINE",
"786 555 LINE",
"786 0 LINE",
"944 0 LINE",
"944 887 LINE"
);
},
{
closed = 1;
nodes = (
"786 698 LINE",
"287 698 LINE",
"287 887 LINE",
"786 887 LINE"
);
}
);
width = 1071;
}
);
unicode = 0126;
},
{
glyphname = Hcircumflex;
layers = (
{
layerId = "D4AD7B3F-884E-49D2-9CE4-555FBB692325";
name = Light;
paths = (
{
closed = 1;
nodes = (
"944 1241 LINE",
"786 1241 LINE",
"786 709 LINE",
"287 709 LINE",
"287 1241 LINE",
"127 1241 LINE",
"127 0 LINE",
"287 0 LINE",
"287 563 LINE",
"786 563 LINE",
"786 0 LINE",
"944 0 LINE"
);
},
{
closed = 1;
nodes = (
"606 1597 LINE",
"465 1597 LINE",
"309 1352 LINE",
"455 1352 LINE",
"539 1495 LINE",
"616 1352 LINE",
"762 1352 LINE"
);
}
);
width = 1071;
}
);
unicode = 0124;
},
{
glyphname = I;
layers = (
{
anchors = (
{
name = ogonek;
position = "{371, 18}";
},
{
name = top;
position = "{207, 1241}";
}
);
layerId = "D4AD7B3F-884E-49D2-9CE4-555FBB692325";
name = Light;
paths = (
{
closed = 1;
nodes = (
"287 0 LINE",
"287 1241 LINE",
"127 1241 LINE",
"127 0 LINE"
);
}
);
width = 414;
}
);
unicode = 0049;
},
{
glyphname = IJ;
layers = (
{
layerId = "D4AD7B3F-884E-49D2-9CE4-555FBB692325";
name = Light;
paths = (
{
closed = 1;
nodes = (
"1038 1241 LINE",
"879 1241 LINE",
"879 287 LINE SMOOTH",
"879 180 OFFCURVE",
"827 125 OFFCURVE",
"737 125 CURVE SMOOTH",
"647 125 OFFCURVE",
"596 180 OFFCURVE",
"596 287 CURVE SMOOTH",
"596 377 LINE",
"436 377 LINE",
"436 295 LINE SMOOTH",
"436 88 OFFCURVE",
"547 -23 OFFCURVE",
"737 -23 CURVE SMOOTH",
"928 -23 OFFCURVE",
"1038 88 OFFCURVE",
"1038 295 CURVE SMOOTH"
);
},
{
closed = 1;
nodes = (
"287 1241 LINE",
"127 1241 LINE",
"127 0 LINE",
"287 0 LINE"
);
}
);
width = 1155;
}
);
unicode = 0132;
},
{
glyphname = Iacute;
layers = (
{
layerId = "D4AD7B3F-884E-49D2-9CE4-555FBB692325";
name = Light;
paths = (
{
closed = 1;
nodes = (
"287 1241 LINE",
"127 1241 LINE",
"127 0 LINE",
"287 0 LINE"
);
},
{
closed = 1;
nodes = (
"416 1599 LINE",
"256 1599 LINE",
"100 1360 LINE",
"225 1360 LINE",
"418 1593 LINE"
);
}
);
width = 414;
}
);
unicode = 00CD;
},
{
glyphname = Ibreve;
layers = (
{
layerId = "D4AD7B3F-884E-49D2-9CE4-555FBB692325";
name = Light;
paths = (
{
closed = 1;
nodes = (
"287 0 LINE",
"287 1241 LINE",
"127 1241 LINE",
"127 0 LINE"
);
},
{
closed = 1;
nodes = (
"315 1599 LINE",
"311 1573 OFFCURVE",
"268 1538 OFFCURVE",
"207 1538 CURVE SMOOTH",
"147 1538 OFFCURVE",
"104 1573 OFFCURVE",
"100 1599 CURVE",
"-18 1599 LINE",
"-18 1518 OFFCURVE",
"70 1423 OFFCURVE",
"207 1423 CURVE SMOOTH",
"346 1423 OFFCURVE",
"430 1518 OFFCURVE",
"430 1599 CURVE"
);
}
);
width = 414;
}
);
unicode = 012C;
},
{
glyphname = Icircumflex;
layers = (
{
layerId = "D4AD7B3F-884E-49D2-9CE4-555FBB692325";
name = Light;
paths = (
{
closed = 1;
nodes = (
"287 0 LINE",
"287 1241 LINE",
"127 1241 LINE",
"127 0 LINE"
);
},
{
closed = 1;
nodes = (
"432 1352 LINE",
"279 1597 LINE",
"137 1597 LINE",
"-20 1352 LINE",
"127 1352 LINE",
"209 1495 LINE",
"289 1352 LINE"
);
}
);
width = 414;
}
);
unicode = 00CE;
},
{
glyphname = Idieresis;
layers = (
{
layerId = "D4AD7B3F-884E-49D2-9CE4-555FBB692325";
name = Light;
paths = (
{
closed = 1;
nodes = (
"287 1241 LINE",
"127 1241 LINE",
"127 0 LINE",
"287 0 LINE"
);
},
{
closed = 1;
nodes = (
"150 1599 LINE",
"-8 1599 LINE",
"-8 1427 LINE",
"150 1427 LINE"
);
},
{
closed = 1;
nodes = (
"422 1599 LINE",
"264 1599 LINE",
"264 1427 LINE",
"422 1427 LINE"
);
}
);
width = 414;
}
);
unicode = 00CF;
},
{
glyphname = Idotaccent;
layers = (
{
layerId = "D4AD7B3F-884E-49D2-9CE4-555FBB692325";
name = Light;
paths = (
{
closed = 1;
nodes = (
"287 0 LINE",
"287 1241 LINE",
"127 1241 LINE",
"127 0 LINE"
);
},
{
closed = 1;
nodes = (
"287 1427 LINE",
"287 1599 LINE",
"129 1599 LINE",
"129 1427 LINE"
);
}
);
width = 414;
}
);
unicode = 0130;
},
{
glyphname = Igrave;
layers = (
{
layerId = "D4AD7B3F-884E-49D2-9CE4-555FBB692325";
name = Light;
paths = (
{
closed = 1;
nodes = (
"287 1241 LINE",
"127 1241 LINE",
"127 0 LINE",
"287 0 LINE"
);
},
{
closed = 1;
nodes = (
"160 1599 LINE",
"-4 1599 LINE",
"-6 1593 LINE",
"190 1360 LINE",
"315 1360 LINE"
);
}
);
width = 414;
}
);
unicode = 00CC;
},
{
glyphname = Imacron;
layers = (
{
layerId = "D4AD7B3F-884E-49D2-9CE4-555FBB692325";
name = Light;
paths = (
{
closed = 1;
nodes = (
"287 0 LINE",
"287 1241 LINE",
"127 1241 LINE",
"127 0 LINE"
);
},
{
closed = 1;
nodes = (
"434 1374 LINE",
"434 1505 LINE",
"-20 1505 LINE",
"-20 1374 LINE"
);
}
);
width = 414;
}
);
unicode = 012A;
},
{
glyphname = Iogonek;
layers = (
{
layerId = "D4AD7B3F-884E-49D2-9CE4-555FBB692325";
name = Light;
paths = (
{
closed = 1;
nodes = (
"287 1241 LINE",
"127 1241 LINE",
"127 0 LINE",
"168 0 LINE",
"131 -41 OFFCURVE",
"102 -88 OFFCURVE",
"102 -166 CURVE SMOOTH",
"102 -291 OFFCURVE",
"195 -330 OFFCURVE",
"272 -330 CURVE SMOOTH",
"309 -330 OFFCURVE",
"346 -319 OFFCURVE",
"383 -305 CURVE",
"383 -211 LINE",
"326 -211 LINE SMOOTH",
"266 -211 OFFCURVE",
"242 -164 OFFCURVE",
"242 -113 CURVE SMOOTH",
"242 -61 OFFCURVE",
"268 -27 OFFCURVE",
"287 0 CURVE"
);
}
);
width = 414;
}
);
unicode = 012E;
},
{
glyphname = Itilde;
layers = (
{
layerId = "D4AD7B3F-884E-49D2-9CE4-555FBB692325";
name = Light;
paths = (
{
closed = 1;
nodes = (
"287 0 LINE",
"287 1241 LINE",
"127 1241 LINE",
"127 0 LINE"
);
},
{
closed = 1;
nodes = (
"367 1599 LINE",
"360 1556 OFFCURVE",
"336 1544 OFFCURVE",
"305 1544 CURVE SMOOTH",
"233 1544 OFFCURVE",
"174 1599 OFFCURVE",
"96 1599 CURVE SMOOTH",
"-12 1599 OFFCURVE",
"-57 1493 OFFCURVE",
"-57 1411 CURVE",
"47 1411 LINE",
"53 1452 OFFCURVE",
"76 1466 OFFCURVE",
"109 1466 CURVE SMOOTH",
"180 1466 OFFCURVE",
"240 1411 OFFCURVE",
"317 1411 CURVE SMOOTH",
"426 1411 OFFCURVE",
"471 1516 OFFCURVE",
"471 1599 CURVE"
);
}
);
width = 414;
}
);
unicode = 0128;
},
{
glyphname = J;
layers = (
{
anchors = (
{
name = top;
position = "{371, 1241}";
}
);
layerId = "D4AD7B3F-884E-49D2-9CE4-555FBB692325";
name = Light;
paths = (
{
closed = 1;
nodes = (
"625 1241 LINE",
"465 1241 LINE",
"465 287 LINE SMOOTH",
"465 180 OFFCURVE",
"414 125 OFFCURVE",
"324 125 CURVE SMOOTH",
"233 125 OFFCURVE",
"182 180 OFFCURVE",
"182 287 CURVE SMOOTH",
"182 377 LINE",
"23 377 LINE",
"23 295 LINE SMOOTH",
"23 88 OFFCURVE",
"133 -23 OFFCURVE",
"324 -23 CURVE SMOOTH",
"514 -23 OFFCURVE",
"625 88 OFFCURVE",
"625 295 CURVE SMOOTH"
);
}
);
width = 741;
}
);
unicode = 004A;
},
{
glyphname = Jcircumflex;
layers = (
{
layerId = "D4AD7B3F-884E-49D2-9CE4-555FBB692325";
name = Light;
paths = (
{
closed = 1;
nodes = (
"625 1241 LINE",
"465 1241 LINE",
"465 287 LINE SMOOTH",
"465 180 OFFCURVE",
"414 125 OFFCURVE",
"324 125 CURVE SMOOTH",
"233 125 OFFCURVE",
"182 180 OFFCURVE",
"182 287 CURVE SMOOTH",
"182 377 LINE",
"23 377 LINE",
"23 295 LINE SMOOTH",
"23 88 OFFCURVE",
"133 -23 OFFCURVE",
"324 -23 CURVE SMOOTH",
"514 -23 OFFCURVE",
"625 88 OFFCURVE",
"625 295 CURVE SMOOTH"
);
},
{
closed = 1;
nodes = (
"616 1597 LINE",
"475 1597 LINE",
"319 1352 LINE",
"465 1352 LINE",
"549 1495 LINE",
"629 1352 LINE",
"772 1352 LINE"
);
}
);
width = 741;
}
);
unicode = 0134;
},
{
glyphname = K;
layers = (
{
anchors = (
{
name = bottom;
position = "{496, 0}";
},
{
name = top;
position = "{496, 1241}";
}
);
layerId = "D4AD7B3F-884E-49D2-9CE4-555FBB692325";
name = Light;
paths = (
{
closed = 1;
nodes = (
"287 586 LINE",
"287 1241 LINE",
"127 1241 LINE",
"127 0 LINE",
"287 0 LINE",
"287 385 LINE",
"485 606 LINE",
"788 0 LINE",
"969 0 LINE",
"584 741 LINE",
"956 1241 LINE",
"778 1241 LINE"
);
}
);
width = 991;
}
);
unicode = 004B;
},
{
glyphname = Kcommaaccent;
layers = (
{
layerId = "D4AD7B3F-884E-49D2-9CE4-555FBB692325";
name = Light;
paths = (
{
closed = 1;
nodes = (
"571 -260 LINE",
"571 -109 LINE",
"418 -109 LINE",
"418 -272 LINE",
"479 -272 LINE",
"440 -401 LINE",
"520 -401 LINE"
);
},
{
closed = 1;
nodes = (
"287 586 LINE",
"287 1241 LINE",
"127 1241 LINE",
"127 0 LINE",
"287 0 LINE",
"287 385 LINE",
"485 606 LINE",
"788 0 LINE",
"969 0 LINE",
"584 741 LINE",
"956 1241 LINE",
"778 1241 LINE"
);
}
);
width = 991;
}
);
unicode = 0136;
},
{
glyphname = L;
layers = (
{
anchors = (
{
name = bottom;
position = "{414, 0}";
},
{
name = top;
position = "{414, 1241}";
}
);
layerId = "D4AD7B3F-884E-49D2-9CE4-555FBB692325";
name = Light;
paths = (
{
closed = 1;
nodes = (
"287 1241 LINE",
"127 1241 LINE",
"127 0 LINE",
"793 0 LINE",
"793 145 LINE",
"287 145 LINE"
);
}
);
width = 825;
}
);
unicode = 004C;
},
{
glyphname = Lacute;
layers = (
{
layerId = "D4AD7B3F-884E-49D2-9CE4-555FBB692325";
name = Light;
paths = (
{
closed = 1;
nodes = (
"287 1241 LINE",
"127 1241 LINE",
"127 0 LINE",
"793 0 LINE",
"793 145 LINE",
"287 145 LINE"
);
},
{
closed = 1;
nodes = (
"412 1599 LINE",
"248 1599 LINE",
"92 1360 LINE",
"219 1360 LINE",
"414 1593 LINE"
);
}
);
width = 825;
}
);
unicode = 0139;
},
{
glyphname = Lcaron;
layers = (
{
layerId = "D4AD7B3F-884E-49D2-9CE4-555FBB692325";
name = Light;
paths = (
{
closed = 1;
nodes = (
"287 1241 LINE",
"127 1241 LINE",
"127 0 LINE",
"793 0 LINE",
"793 145 LINE",
"287 145 LINE"
);
},
{
closed = 1;
nodes = (
"758 1241 LINE",
"578 1241 LINE",
"578 1047 LINE",
"649 1047 LINE",
"578 821 LINE",
"672 821 LINE",
"758 1063 LINE"
);
}
);
width = 825;
}
);
unicode = 013D;
},
{
glyphname = Lcommaaccent;
layers = (
{
layerId = "D4AD7B3F-884E-49D2-9CE4-555FBB692325";
name = Light;
paths = (
{
closed = 1;
nodes = (
"287 1241 LINE",
"127 1241 LINE",
"127 0 LINE",
"793 0 LINE",
"793 145 LINE",
"287 145 LINE"
);
},
{
closed = 1;
nodes = (
"492 -109 LINE",
"336 -109 LINE",
"336 -272 LINE",
"397 -272 LINE",
"356 -401 LINE",
"438 -401 LINE",
"492 -260 LINE"
);
}
);
width = 825;
}
);
unicode = 013B;
},
{
glyphname = Ldot;
layers = (
{
layerId = "D4AD7B3F-884E-49D2-9CE4-555FBB692325";
name = Light;
paths = (
{
closed = 1;
nodes = (
"287 1241 LINE",
"127 1241 LINE",
"127 0 LINE",
"793 0 LINE",
"793 145 LINE",
"287 145 LINE"
);
},
{
closed = 1;
nodes = (
"717 950 LINE",
"535 950 LINE",
"535 750 LINE",
"717 750 LINE"
);
}
);
width = 825;
}
);
unicode = 013F;
},
{
glyphname = Lslash;
layers = (
{
layerId = "D4AD7B3F-884E-49D2-9CE4-555FBB692325";
name = Light;
paths = (
{
closed = 1;
nodes = (
"287 1241 LINE",
"127 1241 LINE",
"127 573 LINE",
"0 461 LINE",
"0 334 LINE",
"127 444 LINE",
"127 0 LINE",
"793 0 LINE",
"793 145 LINE",
"287 145 LINE",
"287 586 LINE",
"535 803 LINE",
"535 936 LINE",
"287 715 LINE"
);
}
);
width = 825;
}
);
unicode = 0141;
},
{
glyphname = M;
layers = (
{
layerId = "D4AD7B3F-884E-49D2-9CE4-555FBB692325";
name = Light;
paths = (
{
closed = 1;
nodes = (
"1124 1241 LINE",
"883 1241 LINE",
"664 428 LINE SMOOTH",
"639 340 OFFCURVE",
"623 147 OFFCURVE",
"623 147 CURVE SMOOTH",
"616 147 LINE SMOOTH",
"616 147 OFFCURVE",
"598 336 OFFCURVE",
"573 428 CURVE SMOOTH",
"354 1241 LINE",
"113 1241 LINE",
"113 0 LINE",
"256 0 LINE",
"256 901 LINE SMOOTH",
"256 938 OFFCURVE",
"244 1094 OFFCURVE",
"244 1094 CURVE",
"252 1094 LINE",
"264 1030 OFFCURVE",
"272 963 OFFCURVE",
"289 901 CURVE SMOOTH",
"539 0 LINE",
"680 0 LINE",
"928 901 LINE SMOOTH",
"946 965 OFFCURVE",
"956 1030 OFFCURVE",
"971 1094 CURVE",
"977 1094 LINE",
"977 1094 OFFCURVE",
"965 944 OFFCURVE",
"965 901 CURVE SMOOTH",
"965 0 LINE",
"1124 0 LINE"
);
}
);
width = 1237;
}
);
unicode = 004D;
},
{
glyphname = N;
layers = (
{
anchors = (
{
name = bottom;
position = "{537, 0}";
},
{
name = top;
position = "{537, 1241}";
}
);
layerId = "D4AD7B3F-884E-49D2-9CE4-555FBB692325";
name = Light;
paths = (
{
closed = 1;
nodes = (
"944 1241 LINE",
"803 1241 LINE",
"803 461 LINE SMOOTH",
"803 422 OFFCURVE",
"807 297 OFFCURVE",
"807 297 CURVE",
"803 295 LINE",
"803 295 OFFCURVE",
"754 414 OFFCURVE",
"725 461 CURVE SMOOTH",
"264 1241 LINE",
"127 1241 LINE",
"127 0 LINE",
"270 0 LINE",
"270 791 LINE SMOOTH",
"270 842 OFFCURVE",
"262 956 OFFCURVE",
"262 956 CURVE",
"268 958 LINE",
"268 958 OFFCURVE",
"317 844 OFFCURVE",
"348 791 CURVE SMOOTH",
"813 0 LINE",
"944 0 LINE"
);
}
);
width = 1071;
}
);
unicode = 004E;
},
{
glyphname = Nacute;
layers = (
{
layerId = "D4AD7B3F-884E-49D2-9CE4-555FBB692325";
name = Light;
paths = (
{
closed = 1;
nodes = (
"944 1241 LINE",
"803 1241 LINE",
"803 461 LINE SMOOTH",
"803 422 OFFCURVE",
"807 297 OFFCURVE",
"807 297 CURVE",
"803 295 LINE",
"803 295 OFFCURVE",
"754 414 OFFCURVE",
"725 461 CURVE SMOOTH",
"264 1241 LINE",
"127 1241 LINE",
"127 0 LINE",
"270 0 LINE",
"270 791 LINE SMOOTH",
"270 842 OFFCURVE",
"262 956 OFFCURVE",
"262 956 CURVE",
"268 958 LINE",
"268 958 OFFCURVE",
"317 844 OFFCURVE",
"348 791 CURVE SMOOTH",
"813 0 LINE",
"944 0 LINE"
);
},
{
closed = 1;
nodes = (
"745 1599 LINE",
"584 1599 LINE",
"428 1360 LINE",
"555 1360 LINE",
"748 1593 LINE"
);
}
);
width = 1071;
}
);
unicode = 0143;
},
{
glyphname = Ncaron;
layers = (
{
layerId = "D4AD7B3F-884E-49D2-9CE4-555FBB692325";
name = Light;
paths = (
{
closed = 1;
nodes = (
"944 1241 LINE",
"803 1241 LINE",
"803 461 LINE SMOOTH",
"803 422 OFFCURVE",
"807 297 OFFCURVE",
"807 297 CURVE",
"803 295 LINE",
"803 295 OFFCURVE",
"754 414 OFFCURVE",
"725 461 CURVE SMOOTH",
"264 1241 LINE",
"127 1241 LINE",
"127 0 LINE",
"270 0 LINE",
"270 791 LINE SMOOTH",
"270 842 OFFCURVE",
"262 956 OFFCURVE",
"262 956 CURVE",
"268 958 LINE",
"268 958 OFFCURVE",
"317 844 OFFCURVE",
"348 791 CURVE SMOOTH",
"813 0 LINE",
"944 0 LINE"
);
},
{
closed = 1;
nodes = (
"762 1599 LINE",
"616 1599 LINE",
"537 1456 LINE",
"455 1599 LINE",
"309 1599 LINE",
"463 1354 LINE",
"604 1354 LINE"
);
}
);
width = 1071;
}
);
unicode = 0147;
},
{
glyphname = Ncommaaccent;
layers = (
{
layerId = "D4AD7B3F-884E-49D2-9CE4-555FBB692325";
name = Light;
paths = (
{
closed = 1;
nodes = (
"944 1241 LINE",
"803 1241 LINE",
"803 461 LINE SMOOTH",
"803 422 OFFCURVE",
"807 297 OFFCURVE",
"807 297 CURVE",
"803 295 LINE",
"803 295 OFFCURVE",
"754 414 OFFCURVE",
"725 461 CURVE SMOOTH",
"264 1241 LINE",
"127 1241 LINE",
"127 0 LINE",
"270 0 LINE",
"270 791 LINE SMOOTH",
"270 842 OFFCURVE",
"262 956 OFFCURVE",
"262 956 CURVE",
"268 958 LINE",
"268 958 OFFCURVE",
"317 844 OFFCURVE",
"348 791 CURVE SMOOTH",
"813 0 LINE",
"944 0 LINE"
);
},
{
closed = 1;
nodes = (
"614 -109 LINE",
"459 -109 LINE",
"459 -272 LINE",
"522 -272 LINE",
"479 -401 LINE",
"561 -401 LINE",
"614 -260 LINE"
);
}
);
width = 1071;
}
);
unicode = 0145;
},
{
glyphname = Eng;
layers = (
{
layerId = "D4AD7B3F-884E-49D2-9CE4-555FBB692325";
name = Light;
paths = (
{
closed = 1;
nodes = (
"944 1241 LINE",
"797 1241 LINE",
"803 461 LINE SMOOTH",
"803 422 OFFCURVE",
"807 297 OFFCURVE",
"807 297 CURVE",
"803 295 LINE",
"803 295 OFFCURVE",
"754 414 OFFCURVE",
"725 461 CURVE SMOOTH",
"264 1241 LINE",
"127 1241 LINE",
"127 0 LINE",
"270 0 LINE",
"270 791 LINE SMOOTH",
"270 842 OFFCURVE",
"262 956 OFFCURVE",
"262 956 CURVE",
"268 958 LINE",
"268 958 OFFCURVE",
"317 844 OFFCURVE",
"348 791 CURVE SMOOTH",
"797 27 LINE",
"797 -117 LINE SMOOTH",
"797 -174 OFFCURVE",
"768 -205 OFFCURVE",
"711 -205 CURVE SMOOTH",
"633 -205 LINE",
"633 -307 LINE",
"664 -319 OFFCURVE",
"713 -330 OFFCURVE",
"758 -330 CURVE SMOOTH",
"901 -330 OFFCURVE",
"944 -219 OFFCURVE",
"944 -111 CURVE SMOOTH"
);
}
);
width = 1071;
}
);
unicode = 014A;
},
{
glyphname = Ntilde;
layers = (
{
layerId = "D4AD7B3F-884E-49D2-9CE4-555FBB692325";
name = Light;
paths = (
{
closed = 1;
nodes = (
"944 1241 LINE",
"803 1241 LINE",
"803 461 LINE SMOOTH",
"803 422 OFFCURVE",
"807 297 OFFCURVE",
"807 297 CURVE",
"803 295 LINE",
"803 295 OFFCURVE",
"754 414 OFFCURVE",
"725 461 CURVE SMOOTH",
"264 1241 LINE",
"127 1241 LINE",
"127 0 LINE",
"270 0 LINE",
"270 791 LINE SMOOTH",
"270 842 OFFCURVE",
"262 956 OFFCURVE",
"262 956 CURVE",
"268 958 LINE",
"268 958 OFFCURVE",
"317 844 OFFCURVE",
"348 791 CURVE SMOOTH",
"813 0 LINE",
"944 0 LINE"
);
},
{
closed = 1;
nodes = (
"694 1599 LINE",
"690 1556 OFFCURVE",
"666 1544 OFFCURVE",
"633 1544 CURVE SMOOTH",
"563 1544 OFFCURVE",
"504 1599 OFFCURVE",
"426 1599 CURVE SMOOTH",
"317 1599 OFFCURVE",
"272 1493 OFFCURVE",
"272 1411 CURVE",
"377 1411 LINE",
"383 1452 OFFCURVE",
"406 1466 OFFCURVE",
"438 1466 CURVE SMOOTH",
"508 1466 OFFCURVE",
"567 1411 OFFCURVE",
"647 1411 CURVE SMOOTH",
"756 1411 OFFCURVE",
"801 1516 OFFCURVE",
"801 1599 CURVE"
);
}
);
width = 1071;
}
);
unicode = 00D1;
},
{
glyphname = O;
layers = (
{
anchors = (
{
name = top;
position = "{578, 1241}";
}
);
layerId = "D4AD7B3F-884E-49D2-9CE4-555FBB692325";
name = Light;
paths = (
{
closed = 1;
nodes = (
"272 1264 OFFCURVE",
"88 1053 OFFCURVE",
"88 621 CURVE SMOOTH",
"88 190 OFFCURVE",
"272 -23 OFFCURVE",
"578 -23 CURVE SMOOTH",
"883 -23 OFFCURVE",
"1067 190 OFFCURVE",
"1067 621 CURVE SMOOTH",
"1067 1053 OFFCURVE",
"883 1264 OFFCURVE",
"578 1264 CURVE SMOOTH"
);
},
{
closed = 1;
nodes = (
"776 1116 OFFCURVE",
"899 969 OFFCURVE",
"899 666 CURVE SMOOTH",
"899 575 LINE SMOOTH",
"899 272 OFFCURVE",
"776 125 OFFCURVE",
"578 125 CURVE SMOOTH",
"379 125 OFFCURVE",
"256 272 OFFCURVE",
"256 575 CURVE SMOOTH",
"256 666 LINE SMOOTH",
"256 969 OFFCURVE",
"379 1116 OFFCURVE",
"578 1116 CURVE SMOOTH"
);
}
);
width = 1155;
}
);
unicode = 004F;
},
{
glyphname = Oacute;
layers = (
{
layerId = "D4AD7B3F-884E-49D2-9CE4-555FBB692325";
name = Light;
paths = (
{
closed = 1;
nodes = (
"272 1264 OFFCURVE",
"88 1053 OFFCURVE",
"88 621 CURVE SMOOTH",
"88 190 OFFCURVE",
"272 -23 OFFCURVE",
"578 -23 CURVE SMOOTH",
"883 -23 OFFCURVE",
"1067 190 OFFCURVE",
"1067 621 CURVE SMOOTH",
"1067 1053 OFFCURVE",
"883 1264 OFFCURVE",
"578 1264 CURVE SMOOTH"
);
},
{
closed = 1;
nodes = (
"776 1116 OFFCURVE",
"899 969 OFFCURVE",
"899 666 CURVE SMOOTH",
"899 575 LINE SMOOTH",
"899 272 OFFCURVE",
"776 125 OFFCURVE",
"578 125 CURVE SMOOTH",
"379 125 OFFCURVE",
"256 272 OFFCURVE",
"256 575 CURVE SMOOTH",
"256 666 LINE SMOOTH",
"256 969 OFFCURVE",
"379 1116 OFFCURVE",
"578 1116 CURVE SMOOTH"
);
},
{
closed = 1;
nodes = (
"788 1599 LINE",
"627 1599 LINE",
"471 1360 LINE",
"596 1360 LINE",
"791 1593 LINE"
);
}
);
width = 1155;
}
);
unicode = 00D3;
},
{
glyphname = Obreve;
layers = (
{
layerId = "D4AD7B3F-884E-49D2-9CE4-555FBB692325";
name = Light;
paths = (
{
closed = 1;
nodes = (
"272 1264 OFFCURVE",
"88 1053 OFFCURVE",
"88 621 CURVE SMOOTH",
"88 190 OFFCURVE",
"272 -23 OFFCURVE",
"578 -23 CURVE SMOOTH",
"883 -23 OFFCURVE",
"1067 190 OFFCURVE",
"1067 621 CURVE SMOOTH",
"1067 1053 OFFCURVE",
"883 1264 OFFCURVE",
"578 1264 CURVE SMOOTH"
);
},
{
closed = 1;
nodes = (
"776 1116 OFFCURVE",
"899 969 OFFCURVE",
"899 666 CURVE SMOOTH",
"899 575 LINE SMOOTH",
"899 272 OFFCURVE",
"776 125 OFFCURVE",
"578 125 CURVE SMOOTH",
"379 125 OFFCURVE",
"256 272 OFFCURVE",
"256 575 CURVE SMOOTH",
"256 666 LINE SMOOTH",
"256 969 OFFCURVE",
"379 1116 OFFCURVE",
"578 1116 CURVE SMOOTH"
);
},
{
closed = 1;
nodes = (
"686 1599 LINE",
"682 1573 OFFCURVE",
"639 1538 OFFCURVE",
"578 1538 CURVE SMOOTH",
"518 1538 OFFCURVE",
"475 1573 OFFCURVE",
"471 1599 CURVE",
"354 1599 LINE",
"354 1518 OFFCURVE",
"440 1423 OFFCURVE",
"578 1423 CURVE SMOOTH",
"717 1423 OFFCURVE",
"803 1518 OFFCURVE",
"803 1599 CURVE"
);
}
);
width = 1155;
}
);
unicode = 014E;
},
{
glyphname = Ocircumflex;
layers = (
{
layerId = "D4AD7B3F-884E-49D2-9CE4-555FBB692325";
name = Light;
paths = (
{
closed = 1;
nodes = (
"272 1264 OFFCURVE",
"88 1053 OFFCURVE",
"88 621 CURVE SMOOTH",
"88 190 OFFCURVE",
"272 -23 OFFCURVE",
"578 -23 CURVE SMOOTH",
"883 -23 OFFCURVE",
"1067 190 OFFCURVE",
"1067 621 CURVE SMOOTH",
"1067 1053 OFFCURVE",
"883 1264 OFFCURVE",
"578 1264 CURVE SMOOTH"
);
},
{
closed = 1;
nodes = (
"776 1116 OFFCURVE",
"899 969 OFFCURVE",
"899 666 CURVE SMOOTH",
"899 575 LINE SMOOTH",
"899 272 OFFCURVE",
"776 125 OFFCURVE",
"578 125 CURVE SMOOTH",
"379 125 OFFCURVE",
"256 272 OFFCURVE",
"256 575 CURVE SMOOTH",
"256 666 LINE SMOOTH",
"256 969 OFFCURVE",
"379 1116 OFFCURVE",
"578 1116 CURVE SMOOTH"
);
},
{
closed = 1;
nodes = (
"803 1352 LINE",
"649 1597 LINE",
"508 1597 LINE",
"352 1352 LINE",
"498 1352 LINE",
"580 1495 LINE",
"659 1352 LINE"
);
}
);
width = 1155;
}
);
unicode = 00D4;
},
{
glyphname = Odieresis;
layers = (
{
layerId = "D4AD7B3F-884E-49D2-9CE4-555FBB692325";
name = Light;
paths = (
{
closed = 1;
nodes = (
"272 1264 OFFCURVE",
"88 1053 OFFCURVE",
"88 621 CURVE SMOOTH",
"88 190 OFFCURVE",
"272 -23 OFFCURVE",
"578 -23 CURVE SMOOTH",
"883 -23 OFFCURVE",
"1067 190 OFFCURVE",
"1067 621 CURVE SMOOTH",
"1067 1053 OFFCURVE",
"883 1264 OFFCURVE",
"578 1264 CURVE SMOOTH"
);
},
{
closed = 1;
nodes = (
"776 1116 OFFCURVE",
"899 969 OFFCURVE",
"899 666 CURVE SMOOTH",
"899 575 LINE SMOOTH",
"899 272 OFFCURVE",
"776 125 OFFCURVE",
"578 125 CURVE SMOOTH",
"379 125 OFFCURVE",
"256 272 OFFCURVE",
"256 575 CURVE SMOOTH",
"256 666 LINE SMOOTH",
"256 969 OFFCURVE",
"379 1116 OFFCURVE",
"578 1116 CURVE SMOOTH"
);
},
{
closed = 1;
nodes = (
"522 1599 LINE",
"365 1599 LINE",
"365 1427 LINE",
"522 1427 LINE"
);
},
{
closed = 1;
nodes = (
"793 1599 LINE",
"635 1599 LINE",
"635 1427 LINE",
"793 1427 LINE"
);
}
);
width = 1155;
}
);
unicode = 00D6;
},
{
glyphname = Ograve;
layers = (
{
layerId = "D4AD7B3F-884E-49D2-9CE4-555FBB692325";
name = Light;
paths = (
{
closed = 1;
nodes = (
"272 1264 OFFCURVE",
"88 1053 OFFCURVE",
"88 621 CURVE SMOOTH",
"88 190 OFFCURVE",
"272 -23 OFFCURVE",
"578 -23 CURVE SMOOTH",
"883 -23 OFFCURVE",
"1067 190 OFFCURVE",
"1067 621 CURVE SMOOTH",
"1067 1053 OFFCURVE",
"883 1264 OFFCURVE",
"578 1264 CURVE SMOOTH"
);
},
{
closed = 1;
nodes = (
"776 1116 OFFCURVE",
"899 969 OFFCURVE",
"899 666 CURVE SMOOTH",
"899 575 LINE SMOOTH",
"899 272 OFFCURVE",
"776 125 OFFCURVE",
"578 125 CURVE SMOOTH",
"379 125 OFFCURVE",
"256 272 OFFCURVE",
"256 575 CURVE SMOOTH",
"256 666 LINE SMOOTH",
"256 969 OFFCURVE",
"379 1116 OFFCURVE",
"578 1116 CURVE SMOOTH"
);
},
{
closed = 1;
nodes = (
"530 1599 LINE",
"367 1599 LINE",
"367 1593 LINE",
"561 1360 LINE",
"686 1360 LINE"
);
}
);
width = 1155;
}
);
unicode = 00D2;
},
{
glyphname = Ohungarumlaut;
layers = (
{
layerId = "D4AD7B3F-884E-49D2-9CE4-555FBB692325";
name = Light;
paths = (
{
closed = 1;
nodes = (
"272 1264 OFFCURVE",
"88 1053 OFFCURVE",
"88 621 CURVE SMOOTH",
"88 190 OFFCURVE",
"272 -23 OFFCURVE",
"578 -23 CURVE SMOOTH",
"883 -23 OFFCURVE",
"1067 190 OFFCURVE",
"1067 621 CURVE SMOOTH",
"1067 1053 OFFCURVE",
"883 1264 OFFCURVE",
"578 1264 CURVE SMOOTH"
);
},
{
closed = 1;
nodes = (
"776 1116 OFFCURVE",
"899 969 OFFCURVE",
"899 666 CURVE SMOOTH",
"899 575 LINE SMOOTH",
"899 272 OFFCURVE",
"776 125 OFFCURVE",
"578 125 CURVE SMOOTH",
"379 125 OFFCURVE",
"256 272 OFFCURVE",
"256 575 CURVE SMOOTH",
"256 666 LINE SMOOTH",
"256 969 OFFCURVE",
"379 1116 OFFCURVE",
"578 1116 CURVE SMOOTH"
);
},
{
closed = 1;
nodes = (
"678 1599 LINE",
"518 1599 LINE",
"406 1360 LINE",
"528 1360 LINE",
"680 1593 LINE"
);
},
{
closed = 1;
nodes = (
"915 1599 LINE",
"754 1599 LINE",
"641 1360 LINE",
"766 1360 LINE",
"918 1593 LINE"
);
}
);
width = 1155;
}
);
unicode = 0150;
},
{
glyphname = Omacron;
layers = (
{
layerId = "D4AD7B3F-884E-49D2-9CE4-555FBB692325";
name = Light;
paths = (
{
closed = 1;
nodes = (
"272 1264 OFFCURVE",
"88 1053 OFFCURVE",
"88 621 CURVE SMOOTH",
"88 190 OFFCURVE",
"272 -23 OFFCURVE",
"578 -23 CURVE SMOOTH",
"883 -23 OFFCURVE",
"1067 190 OFFCURVE",
"1067 621 CURVE SMOOTH",
"1067 1053 OFFCURVE",
"883 1264 OFFCURVE",
"578 1264 CURVE SMOOTH"
);
},
{
closed = 1;
nodes = (
"776 1116 OFFCURVE",
"899 969 OFFCURVE",
"899 666 CURVE SMOOTH",
"899 575 LINE SMOOTH",
"899 272 OFFCURVE",
"776 125 OFFCURVE",
"578 125 CURVE SMOOTH",
"379 125 OFFCURVE",
"256 272 OFFCURVE",
"256 575 CURVE SMOOTH",
"256 666 LINE SMOOTH",
"256 969 OFFCURVE",
"379 1116 OFFCURVE",
"578 1116 CURVE SMOOTH"
);
},
{
closed = 1;
nodes = (
"805 1374 LINE",
"805 1505 LINE",
"350 1505 LINE",
"350 1374 LINE"
);
}
);
width = 1155;
}
);
unicode = 014C;
},
{
glyphname = Oslash;
layers = (
{
anchors = (
{
name = top;
position = "{578, 1241}";
}
);
layerId = "D4AD7B3F-884E-49D2-9CE4-555FBB692325";
name = Light;
paths = (
{
closed = 1;
nodes = (
"1067 1309 LINE",
"950 1309 LINE",
"866 1174 LINE",
"788 1233 OFFCURVE",
"692 1264 OFFCURVE",
"578 1264 CURVE SMOOTH",
"272 1264 OFFCURVE",
"88 1053 OFFCURVE",
"88 621 CURVE SMOOTH",
"88 406 OFFCURVE",
"133 244 OFFCURVE",
"219 137 CURVE",
"90 -68 LINE",
"207 -68 LINE",
"289 68 LINE",
"367 8 OFFCURVE",
"463 -23 OFFCURVE",
"578 -23 CURVE SMOOTH",
"883 -23 OFFCURVE",
"1067 190 OFFCURVE",
"1067 621 CURVE SMOOTH",
"1067 836 OFFCURVE",
"1020 995 OFFCURVE",
"936 1102 CURVE"
);
},
{
closed = 1;
nodes = (
"844 954 LINE",
"881 883 OFFCURVE",
"899 786 OFFCURVE",
"899 666 CURVE SMOOTH",
"899 575 LINE SMOOTH",
"899 272 OFFCURVE",
"776 125 OFFCURVE",
"578 125 CURVE SMOOTH",
"494 125 OFFCURVE",
"426 150 OFFCURVE",
"373 201 CURVE"
);
},
{
closed = 1;
nodes = (
"659 1116 OFFCURVE",
"727 1092 OFFCURVE",
"782 1038 CURVE",
"311 287 LINE",
"274 358 OFFCURVE",
"256 455 OFFCURVE",
"256 575 CURVE SMOOTH",
"256 666 LINE SMOOTH",
"256 969 OFFCURVE",
"379 1116 OFFCURVE",
"578 1116 CURVE SMOOTH"
);
}
);
width = 1155;
}
);
unicode = 00D8;
},
{
glyphname = Oslashacute;
layers = (
{
layerId = "D4AD7B3F-884E-49D2-9CE4-555FBB692325";
name = Light;
paths = (
{
closed = 1;
nodes = (
"1067 1309 LINE",
"950 1309 LINE",
"866 1174 LINE",
"788 1233 OFFCURVE",
"692 1264 OFFCURVE",
"578 1264 CURVE SMOOTH",
"272 1264 OFFCURVE",
"88 1053 OFFCURVE",
"88 621 CURVE SMOOTH",
"88 406 OFFCURVE",
"133 244 OFFCURVE",
"219 137 CURVE",
"90 -68 LINE",
"207 -68 LINE",
"289 68 LINE",
"367 8 OFFCURVE",
"463 -23 OFFCURVE",
"578 -23 CURVE SMOOTH",
"883 -23 OFFCURVE",
"1067 190 OFFCURVE",
"1067 621 CURVE SMOOTH",
"1067 836 OFFCURVE",
"1020 995 OFFCURVE",
"936 1102 CURVE"
);
},
{
closed = 1;
nodes = (
"844 954 LINE",
"881 883 OFFCURVE",
"899 786 OFFCURVE",
"899 666 CURVE SMOOTH",
"899 575 LINE SMOOTH",
"899 272 OFFCURVE",
"776 125 OFFCURVE",
"578 125 CURVE SMOOTH",
"494 125 OFFCURVE",
"426 150 OFFCURVE",
"373 201 CURVE"
);
},
{
closed = 1;
nodes = (
"659 1116 OFFCURVE",
"727 1092 OFFCURVE",
"782 1038 CURVE",
"311 287 LINE",
"274 358 OFFCURVE",
"256 455 OFFCURVE",
"256 575 CURVE SMOOTH",
"256 666 LINE SMOOTH",
"256 969 OFFCURVE",
"379 1116 OFFCURVE",
"578 1116 CURVE SMOOTH"
);
},
{
closed = 1;
nodes = (
"788 1599 LINE",
"627 1599 LINE",
"471 1360 LINE",
"596 1360 LINE",
"791 1593 LINE"
);
}
);
width = 1155;
}
);
unicode = 01FE;
},
{
glyphname = Otilde;
layers = (
{
layerId = "D4AD7B3F-884E-49D2-9CE4-555FBB692325";
name = Light;
paths = (
{
closed = 1;
nodes = (
"272 1264 OFFCURVE",
"88 1053 OFFCURVE",
"88 621 CURVE SMOOTH",
"88 190 OFFCURVE",
"272 -23 OFFCURVE",
"578 -23 CURVE SMOOTH",
"883 -23 OFFCURVE",
"1067 190 OFFCURVE",
"1067 621 CURVE SMOOTH",
"1067 1053 OFFCURVE",
"883 1264 OFFCURVE",
"578 1264 CURVE SMOOTH"
);
},
{
closed = 1;
nodes = (
"776 1116 OFFCURVE",
"899 969 OFFCURVE",
"899 666 CURVE SMOOTH",
"899 575 LINE SMOOTH",
"899 272 OFFCURVE",
"776 125 OFFCURVE",
"578 125 CURVE SMOOTH",
"379 125 OFFCURVE",
"256 272 OFFCURVE",
"256 575 CURVE SMOOTH",
"256 666 LINE SMOOTH",
"256 969 OFFCURVE",
"379 1116 OFFCURVE",
"578 1116 CURVE SMOOTH"
);
},
{
closed = 1;
nodes = (
"737 1599 LINE",
"731 1556 OFFCURVE",
"709 1544 OFFCURVE",
"676 1544 CURVE SMOOTH",
"604 1544 OFFCURVE",
"545 1599 OFFCURVE",
"467 1599 CURVE SMOOTH",
"358 1599 OFFCURVE",
"313 1493 OFFCURVE",
"313 1411 CURVE",
"418 1411 LINE",
"424 1452 OFFCURVE",
"446 1466 OFFCURVE",
"479 1466 CURVE SMOOTH",
"551 1466 OFFCURVE",
"610 1411 OFFCURVE",
"688 1411 CURVE SMOOTH",
"797 1411 OFFCURVE",
"842 1516 OFFCURVE",
"842 1599 CURVE"
);
}
);
width = 1155;
}
);
unicode = 00D5;
},
{
glyphname = OE;
layers = (
{
anchors = (
{
name = top;
position = "{741, 1241}";
}
);
layerId = "D4AD7B3F-884E-49D2-9CE4-555FBB692325";
name = Light;
paths = (
{
closed = 1;
nodes = (
"240 1264 OFFCURVE",
"88 1053 OFFCURVE",
"88 621 CURVE SMOOTH",
"88 190 OFFCURVE",
"240 -23 OFFCURVE",
"494 -23 CURVE SMOOTH",
"610 -23 OFFCURVE",
"702 25 OFFCURVE",
"770 123 CURVE",
"770 0 LINE",
"1419 0 LINE",
"1419 145 LINE",
"928 145 LINE",
"928 563 LINE",
"1327 563 LINE",
"1327 709 LINE",
"928 709 LINE",
"928 1098 LINE",
"1409 1098 LINE",
"1409 1241 LINE",
"770 1241 LINE",
"770 1118 LINE",
"702 1214 OFFCURVE",
"610 1264 OFFCURVE",
"494 1264 CURVE SMOOTH"
);
},
{
closed = 1;
nodes = (
"672 1116 OFFCURVE",
"770 969 OFFCURVE",
"770 666 CURVE SMOOTH",
"770 575 LINE SMOOTH",
"770 272 OFFCURVE",
"672 125 OFFCURVE",
"512 125 CURVE SMOOTH",
"352 125 OFFCURVE",
"256 272 OFFCURVE",
"256 575 CURVE SMOOTH",
"256 666 LINE SMOOTH",
"256 969 OFFCURVE",
"352 1116 OFFCURVE",
"512 1116 CURVE SMOOTH"
);
}
);
width = 1485;
}
);
unicode = 0152;
},
{
glyphname = P;
layers = (
{
layerId = "D4AD7B3F-884E-49D2-9CE4-555FBB692325";
name = Light;
paths = (
{
closed = 1;
nodes = (
"287 512 LINE",
"569 512 LINE SMOOTH",
"801 512 OFFCURVE",
"942 662 OFFCURVE",
"942 881 CURVE SMOOTH",
"942 1096 OFFCURVE",
"815 1241 OFFCURVE",
"569 1241 CURVE SMOOTH",
"127 1241 LINE",
"127 0 LINE",
"287 0 LINE"
);
},
{
closed = 1;
nodes = (
"287 1098 LINE",
"565 1098 LINE SMOOTH",
"700 1098 OFFCURVE",
"774 1014 OFFCURVE",
"774 881 CURVE SMOOTH",
"774 745 OFFCURVE",
"692 657 OFFCURVE",
"565 657 CURVE SMOOTH",
"287 657 LINE"
);
}
);
width = 991;
}
);
unicode = 0050;
},
{
glyphname = Thorn;
layers = (
{
layerId = "D4AD7B3F-884E-49D2-9CE4-555FBB692325";
name = Light;
paths = (
{
closed = 1;
nodes = (
"287 1241 LINE",
"127 1241 LINE",
"127 0 LINE",
"287 0 LINE",
"287 266 LINE",
"569 266 LINE SMOOTH",
"801 266 OFFCURVE",
"942 414 OFFCURVE",
"942 633 CURVE SMOOTH",
"942 850 OFFCURVE",
"815 995 OFFCURVE",
"569 995 CURVE SMOOTH",
"287 995 LINE"
);
},
{
closed = 1;
nodes = (
"565 850 LINE",
"700 850 OFFCURVE",
"774 768 OFFCURVE",
"774 633 CURVE SMOOTH",
"774 500 OFFCURVE",
"692 412 OFFCURVE",
"565 412 CURVE SMOOTH",
"287 412 LINE",
"287 850 LINE"
);
}
);
width = 991;
}
);
unicode = 00DE;
},
{
glyphname = Q;
layers = (
{
layerId = "D4AD7B3F-884E-49D2-9CE4-555FBB692325";
name = Light;
paths = (
{
closed = 1;
nodes = (
"88 190 OFFCURVE",
"272 -23 OFFCURVE",
"578 -23 CURVE SMOOTH",
"600 -23 LINE",
"815 -225 LINE",
"1028 -225 LINE",
"772 12 LINE",
"958 88 OFFCURVE",
"1067 291 OFFCURVE",
"1067 621 CURVE SMOOTH",
"1067 1053 OFFCURVE",
"883 1264 OFFCURVE",
"578 1264 CURVE SMOOTH",
"272 1264 OFFCURVE",
"88 1053 OFFCURVE",
"88 621 CURVE SMOOTH"
);
},
{
closed = 1;
nodes = (
"256 666 LINE",
"256 969 OFFCURVE",
"379 1116 OFFCURVE",
"578 1116 CURVE SMOOTH",
"776 1116 OFFCURVE",
"899 969 OFFCURVE",
"899 666 CURVE SMOOTH",
"899 575 LINE SMOOTH",
"899 272 OFFCURVE",
"776 125 OFFCURVE",
"578 125 CURVE SMOOTH",
"379 125 OFFCURVE",
"256 272 OFFCURVE",
"256 575 CURVE SMOOTH"
);
}
);
width = 1155;
}
);
unicode = 0051;
},
{
glyphname = R;
layers = (
{
anchors = (
{
name = bottom;
position = "{537, 0}";
},
{
name = top;
position = "{537, 1241}";
}
);
layerId = "D4AD7B3F-884E-49D2-9CE4-555FBB692325";
name = Light;
paths = (
{
closed = 1;
nodes = (
"127 1241 LINE",
"127 0 LINE",
"287 0 LINE",
"287 549 LINE",
"618 549 LINE",
"850 0 LINE",
"1026 0 LINE",
"776 578 LINE",
"915 625 OFFCURVE",
"997 743 OFFCURVE",
"997 897 CURVE SMOOTH",
"997 1102 OFFCURVE",
"870 1241 OFFCURVE",
"627 1241 CURVE SMOOTH"
);
},
{
closed = 1;
nodes = (
"621 1098 LINE",
"758 1098 OFFCURVE",
"831 1022 OFFCURVE",
"831 897 CURVE SMOOTH",
"831 774 OFFCURVE",
"748 694 OFFCURVE",
"621 694 CURVE SMOOTH",
"287 694 LINE",
"287 1098 LINE"
);
}
);
width = 1071;
}
);
unicode = 0052;
},
{
glyphname = Racute;
layers = (
{
layerId = "D4AD7B3F-884E-49D2-9CE4-555FBB692325";
name = Light;
paths = (
{
closed = 1;
nodes = (
"127 1241 LINE",
"127 0 LINE",
"287 0 LINE",
"287 549 LINE",
"618 549 LINE",
"850 0 LINE",
"1026 0 LINE",
"776 578 LINE",
"915 625 OFFCURVE",
"997 743 OFFCURVE",
"997 897 CURVE SMOOTH",
"997 1102 OFFCURVE",
"870 1241 OFFCURVE",
"627 1241 CURVE SMOOTH"
);
},
{
closed = 1;
nodes = (
"621 1098 LINE",
"758 1098 OFFCURVE",
"831 1022 OFFCURVE",
"831 897 CURVE SMOOTH",
"831 774 OFFCURVE",
"748 694 OFFCURVE",
"621 694 CURVE SMOOTH",
"287 694 LINE",
"287 1098 LINE"
);
},
{
closed = 1;
nodes = (
"707 1599 LINE",
"543 1599 LINE",
"387 1360 LINE",
"514 1360 LINE",
"709 1593 LINE"
);
}
);
width = 1071;
}
);
unicode = 0154;
},
{
glyphname = Rcaron;
layers = (
{
layerId = "D4AD7B3F-884E-49D2-9CE4-555FBB692325";
name = Light;
paths = (
{
closed = 1;
nodes = (
"127 1241 LINE",
"127 0 LINE",
"287 0 LINE",
"287 549 LINE",
"618 549 LINE",
"850 0 LINE",
"1026 0 LINE",
"776 578 LINE",
"915 625 OFFCURVE",
"997 743 OFFCURVE",
"997 897 CURVE SMOOTH",
"997 1102 OFFCURVE",
"870 1241 OFFCURVE",
"627 1241 CURVE SMOOTH"
);
},
{
closed = 1;
nodes = (
"621 1098 LINE",
"758 1098 OFFCURVE",
"831 1022 OFFCURVE",
"831 897 CURVE SMOOTH",
"831 774 OFFCURVE",
"748 694 OFFCURVE",
"621 694 CURVE SMOOTH",
"287 694 LINE",
"287 1098 LINE"
);
},
{
closed = 1;
nodes = (
"762 1599 LINE",
"616 1599 LINE",
"537 1456 LINE",
"455 1599 LINE",
"309 1599 LINE",
"463 1354 LINE",
"604 1354 LINE"
);
}
);
width = 1071;
}
);
unicode = 0158;
},
{
glyphname = Rcommaaccent;
layers = (
{
layerId = "D4AD7B3F-884E-49D2-9CE4-555FBB692325";
name = Light;
paths = (
{
closed = 1;
nodes = (
"127 1241 LINE",
"127 0 LINE",
"287 0 LINE",
"287 549 LINE",
"618 549 LINE",
"850 0 LINE",
"1026 0 LINE",
"776 578 LINE",
"915 625 OFFCURVE",
"997 743 OFFCURVE",
"997 897 CURVE SMOOTH",
"997 1102 OFFCURVE",
"870 1241 OFFCURVE",
"627 1241 CURVE SMOOTH"
);
},
{
closed = 1;
nodes = (
"614 -109 LINE",
"459 -109 LINE",
"459 -272 LINE",
"522 -272 LINE",
"479 -401 LINE",
"561 -401 LINE",
"614 -260 LINE"
);
},
{
closed = 1;
nodes = (
"621 1098 LINE",
"758 1098 OFFCURVE",
"831 1022 OFFCURVE",
"831 897 CURVE SMOOTH",
"831 774 OFFCURVE",
"748 694 OFFCURVE",
"621 694 CURVE SMOOTH",
"287 694 LINE",
"287 1098 LINE"
);
}
);
width = 1071;
}
);
unicode = 0156;
},
{
glyphname = S;
layers = (
{
anchors = (
{
name = bottom;
position = "{496, 0}";
},
{
name = top;
position = "{496, 1241}";
}
);
layerId = "D4AD7B3F-884E-49D2-9CE4-555FBB692325";
name = Light;
paths = (
{
closed = 1;
nodes = (
"276 1264 OFFCURVE",
"100 1159 OFFCURVE",
"100 930 CURVE SMOOTH",
"100 481 OFFCURVE",
"745 645 OFFCURVE",
"745 332 CURVE SMOOTH",
"745 197 OFFCURVE",
"651 125 OFFCURVE",
"485 125 CURVE SMOOTH",
"344 125 OFFCURVE",
"240 197 OFFCURVE",
"240 350 CURVE SMOOTH",
"240 360 OFFCURVE",
"242 385 OFFCURVE",
"242 387 CURVE",
"76 387 LINE",
"76 383 OFFCURVE",
"74 365 OFFCURVE",
"74 350 CURVE SMOOTH",
"74 78 OFFCURVE",
"266 -23 OFFCURVE",
"492 -23 CURVE SMOOTH",
"733 -23 OFFCURVE",
"913 80 OFFCURVE",
"913 358 CURVE SMOOTH",
"913 795 OFFCURVE",
"268 647 OFFCURVE",
"268 944 CURVE SMOOTH",
"268 1063 OFFCURVE",
"367 1116 OFFCURVE",
"498 1116 CURVE SMOOTH",
"623 1116 OFFCURVE",
"719 1047 OFFCURVE",
"719 920 CURVE SMOOTH",
"719 893 LINE",
"883 893 LINE",
"883 913 LINE SMOOTH",
"883 1163 OFFCURVE",
"711 1264 OFFCURVE",
"494 1264 CURVE SMOOTH"
);
}
);
width = 991;
}
);
unicode = 0053;
},
{
glyphname = Sacute;
layers = (
{
layerId = "D4AD7B3F-884E-49D2-9CE4-555FBB692325";
name = Light;
paths = (
{
closed = 1;
nodes = (
"276 1264 OFFCURVE",
"100 1159 OFFCURVE",
"100 930 CURVE SMOOTH",
"100 481 OFFCURVE",
"745 645 OFFCURVE",
"745 332 CURVE SMOOTH",
"745 197 OFFCURVE",
"651 125 OFFCURVE",
"485 125 CURVE SMOOTH",
"344 125 OFFCURVE",
"240 197 OFFCURVE",
"240 350 CURVE SMOOTH",
"240 360 OFFCURVE",
"242 385 OFFCURVE",
"242 387 CURVE",
"76 387 LINE",
"76 383 OFFCURVE",
"74 365 OFFCURVE",
"74 350 CURVE SMOOTH",
"74 78 OFFCURVE",
"266 -23 OFFCURVE",
"492 -23 CURVE SMOOTH",
"733 -23 OFFCURVE",
"913 80 OFFCURVE",
"913 358 CURVE SMOOTH",
"913 795 OFFCURVE",
"268 647 OFFCURVE",
"268 944 CURVE SMOOTH",
"268 1063 OFFCURVE",
"367 1116 OFFCURVE",
"498 1116 CURVE SMOOTH",
"623 1116 OFFCURVE",
"719 1047 OFFCURVE",
"719 920 CURVE SMOOTH",
"719 893 LINE",
"883 893 LINE",
"883 913 LINE SMOOTH",
"883 1163 OFFCURVE",
"711 1264 OFFCURVE",
"494 1264 CURVE SMOOTH"
);
},
{
closed = 1;
nodes = (
"707 1599 LINE",
"543 1599 LINE",
"387 1360 LINE",
"512 1360 LINE",
"709 1593 LINE"
);
}
);
width = 991;
}
);
unicode = 015A;
},
{
glyphname = Scaron;
layers = (
{
layerId = "D4AD7B3F-884E-49D2-9CE4-555FBB692325";
name = Light;
paths = (
{
closed = 1;
nodes = (
"276 1264 OFFCURVE",
"100 1159 OFFCURVE",
"100 930 CURVE SMOOTH",
"100 481 OFFCURVE",
"745 645 OFFCURVE",
"745 332 CURVE SMOOTH",
"745 197 OFFCURVE",
"651 125 OFFCURVE",
"485 125 CURVE SMOOTH",
"344 125 OFFCURVE",
"240 197 OFFCURVE",
"240 350 CURVE SMOOTH",
"240 360 OFFCURVE",
"242 385 OFFCURVE",
"242 387 CURVE",
"76 387 LINE",
"76 383 OFFCURVE",
"74 365 OFFCURVE",
"74 350 CURVE SMOOTH",
"74 78 OFFCURVE",
"266 -23 OFFCURVE",
"492 -23 CURVE SMOOTH",
"733 -23 OFFCURVE",
"913 80 OFFCURVE",
"913 358 CURVE SMOOTH",
"913 795 OFFCURVE",
"268 647 OFFCURVE",
"268 944 CURVE SMOOTH",
"268 1063 OFFCURVE",
"367 1116 OFFCURVE",
"498 1116 CURVE SMOOTH",
"623 1116 OFFCURVE",
"719 1047 OFFCURVE",
"719 920 CURVE SMOOTH",
"719 893 LINE",
"883 893 LINE",
"883 913 LINE SMOOTH",
"883 1163 OFFCURVE",
"711 1264 OFFCURVE",
"494 1264 CURVE SMOOTH"
);
},
{
closed = 1;
nodes = (
"565 1354 LINE",
"721 1599 LINE",
"575 1599 LINE",
"494 1456 LINE",
"414 1599 LINE",
"270 1599 LINE",
"424 1354 LINE"
);
}
);
width = 991;
}
);
unicode = 0160;
},
{
glyphname = Scedilla;
layers = (
{
layerId = "D4AD7B3F-884E-49D2-9CE4-555FBB692325";
name = Light;
paths = (
{
closed = 1;
nodes = (
"276 1264 OFFCURVE",
"100 1159 OFFCURVE",
"100 930 CURVE SMOOTH",
"100 481 OFFCURVE",
"745 645 OFFCURVE",
"745 332 CURVE SMOOTH",
"745 197 OFFCURVE",
"651 125 OFFCURVE",
"485 125 CURVE SMOOTH",
"344 125 OFFCURVE",
"240 197 OFFCURVE",
"240 350 CURVE SMOOTH",
"240 360 OFFCURVE",
"242 385 OFFCURVE",
"242 387 CURVE",
"76 387 LINE",
"76 383 OFFCURVE",
"74 365 OFFCURVE",
"74 350 CURVE SMOOTH",
"74 104 OFFCURVE",
"227 0 OFFCURVE",
"426 -18 CURVE",
"408 -139 LINE",
"467 -139 LINE SMOOTH",
"514 -139 OFFCURVE",
"528 -154 OFFCURVE",
"528 -182 CURVE SMOOTH",
"528 -217 OFFCURVE",
"504 -227 OFFCURVE",
"463 -227 CURVE SMOOTH",
"326 -227 LINE",
"326 -315 LINE",
"369 -324 OFFCURVE",
"426 -330 OFFCURVE",
"477 -330 CURVE SMOOTH",
"551 -330 OFFCURVE",
"666 -305 OFFCURVE",
"666 -182 CURVE SMOOTH",
"666 -100 OFFCURVE",
"598 -70 OFFCURVE",
"520 -66 CURVE",
"524 -20 LINE",
"750 -10 OFFCURVE",
"913 92 OFFCURVE",
"913 358 CURVE SMOOTH",
"913 795 OFFCURVE",
"268 647 OFFCURVE",
"268 944 CURVE SMOOTH",
"268 1063 OFFCURVE",
"367 1116 OFFCURVE",
"498 1116 CURVE SMOOTH",
"623 1116 OFFCURVE",
"719 1047 OFFCURVE",
"719 920 CURVE SMOOTH",
"719 893 LINE",
"883 893 LINE",
"883 913 LINE SMOOTH",
"883 1163 OFFCURVE",
"711 1264 OFFCURVE",
"494 1264 CURVE SMOOTH"
);
}
);
width = 991;
}
);
unicode = 015E;
},
{
glyphname = Scircumflex;
layers = (
{
layerId = "D4AD7B3F-884E-49D2-9CE4-555FBB692325";
name = Light;
paths = (
{
closed = 1;
nodes = (
"276 1264 OFFCURVE",
"100 1159 OFFCURVE",
"100 930 CURVE SMOOTH",
"100 481 OFFCURVE",
"745 645 OFFCURVE",
"745 332 CURVE SMOOTH",
"745 197 OFFCURVE",
"651 125 OFFCURVE",
"485 125 CURVE SMOOTH",
"344 125 OFFCURVE",
"240 197 OFFCURVE",
"240 350 CURVE SMOOTH",
"240 360 OFFCURVE",
"242 385 OFFCURVE",
"242 387 CURVE",
"76 387 LINE",
"76 383 OFFCURVE",
"74 365 OFFCURVE",
"74 350 CURVE SMOOTH",
"74 78 OFFCURVE",
"266 -23 OFFCURVE",
"492 -23 CURVE SMOOTH",
"733 -23 OFFCURVE",
"913 80 OFFCURVE",
"913 358 CURVE SMOOTH",
"913 795 OFFCURVE",
"268 647 OFFCURVE",
"268 944 CURVE SMOOTH",
"268 1063 OFFCURVE",
"367 1116 OFFCURVE",
"498 1116 CURVE SMOOTH",
"623 1116 OFFCURVE",
"719 1047 OFFCURVE",
"719 920 CURVE SMOOTH",
"719 893 LINE",
"883 893 LINE",
"883 913 LINE SMOOTH",
"883 1163 OFFCURVE",
"711 1264 OFFCURVE",
"494 1264 CURVE SMOOTH"
);
},
{
closed = 1;
nodes = (
"721 1352 LINE",
"567 1597 LINE",
"426 1597 LINE",
"270 1352 LINE",
"414 1352 LINE",
"496 1495 LINE",
"575 1352 LINE"
);
}
);
width = 991;
}
);
unicode = 015C;
},
{
glyphname = T;
layers = (
{
anchors = (
{
name = bottom;
position = "{455, 0}";
},
{
name = center;
position = "{455, 621}";
},
{
name = top;
position = "{455, 1241}";
}
);
layerId = "D4AD7B3F-884E-49D2-9CE4-555FBB692325";
name = Light;
paths = (
{
closed = 1;
nodes = (
"870 1241 LINE",
"35 1241 LINE",
"35 1098 LINE",
"373 1098 LINE",
"373 0 LINE",
"532 0 LINE",
"532 1098 LINE",
"870 1098 LINE"
);
}
);
width = 907;
}
);
unicode = 0054;
},
{
glyphname = Tbar;
layers = (
{
layerId = "D4AD7B3F-884E-49D2-9CE4-555FBB692325";
name = Light;
paths = (
{
closed = 1;
nodes = (
"870 1241 LINE",
"35 1241 LINE",
"35 1098 LINE",
"373 1098 LINE",
"373 711 LINE",
"139 711 LINE",
"139 580 LINE",
"373 580 LINE",
"373 0 LINE",
"532 0 LINE",
"532 580 LINE",
"770 580 LINE",
"770 711 LINE",
"532 711 LINE",
"532 1098 LINE",
"870 1098 LINE"
);
}
);
width = 907;
}
);
unicode = 0166;
},
{
glyphname = Tcaron;
layers = (
{
layerId = "D4AD7B3F-884E-49D2-9CE4-555FBB692325";
name = Light;
paths = (
{
closed = 1;
nodes = (
"870 1241 LINE",
"35 1241 LINE",
"35 1098 LINE",
"373 1098 LINE",
"373 0 LINE",
"532 0 LINE",
"532 1098 LINE",
"870 1098 LINE"
);
},
{
closed = 1;
nodes = (
"678 1599 LINE",
"535 1599 LINE",
"453 1456 LINE",
"373 1599 LINE",
"227 1599 LINE",
"383 1354 LINE",
"522 1354 LINE"
);
}
);
width = 907;
}
);
unicode = 0164;
},
{
glyphname = Tcommaaccent;
layers = (
{
layerId = "D4AD7B3F-884E-49D2-9CE4-555FBB692325";
name = Light;
paths = (
{
closed = 1;
nodes = (
"870 1241 LINE",
"35 1241 LINE",
"35 1098 LINE",
"373 1098 LINE",
"373 0 LINE",
"532 0 LINE",
"532 1098 LINE",
"870 1098 LINE"
);
},
{
closed = 1;
nodes = (
"530 -109 LINE",
"377 -109 LINE",
"377 -272 LINE",
"438 -272 LINE",
"397 -401 LINE",
"477 -401 LINE",
"530 -260 LINE"
);
}
);
width = 907;
}
);
unicode = 021A;
},
{
glyphname = U;
layers = (
{
anchors = (
{
name = ogonek;
position = "{965, 18}";
},
{
name = top;
position = "{537, 1241}";
}
);
layerId = "D4AD7B3F-884E-49D2-9CE4-555FBB692325";
name = Light;
paths = (
{
closed = 1;
nodes = (
"944 1241 LINE",
"786 1241 LINE",
"786 395 LINE SMOOTH",
"786 219 OFFCURVE",
"692 125 OFFCURVE",
"537 125 CURVE SMOOTH",
"381 125 OFFCURVE",
"287 219 OFFCURVE",
"287 395 CURVE SMOOTH",
"287 1241 LINE",
"127 1241 LINE",
"127 403 LINE SMOOTH",
"127 125 OFFCURVE",
"281 -23 OFFCURVE",
"537 -23 CURVE SMOOTH",
"791 -23 OFFCURVE",
"944 125 OFFCURVE",
"944 403 CURVE SMOOTH"
);
}
);
width = 1071;
}
);
unicode = 0055;
},
{
glyphname = Uacute;
layers = (
{
layerId = "D4AD7B3F-884E-49D2-9CE4-555FBB692325";
name = Light;
paths = (
{
closed = 1;
nodes = (
"944 1241 LINE",
"786 1241 LINE",
"786 395 LINE SMOOTH",
"786 219 OFFCURVE",
"692 125 OFFCURVE",
"537 125 CURVE SMOOTH",
"381 125 OFFCURVE",
"287 219 OFFCURVE",
"287 395 CURVE SMOOTH",
"287 1241 LINE",
"127 1241 LINE",
"127 403 LINE SMOOTH",
"127 125 OFFCURVE",
"281 -23 OFFCURVE",
"537 -23 CURVE SMOOTH",
"791 -23 OFFCURVE",
"944 125 OFFCURVE",
"944 403 CURVE SMOOTH"
);
},
{
closed = 1;
nodes = (
"745 1599 LINE",
"584 1599 LINE",
"428 1360 LINE",
"555 1360 LINE",
"748 1593 LINE"
);
}
);
width = 1071;
}
);
unicode = 00DA;
},
{
glyphname = Ubreve;
layers = (
{
layerId = "D4AD7B3F-884E-49D2-9CE4-555FBB692325";
name = Light;
paths = (
{
closed = 1;
nodes = (
"944 1241 LINE",
"786 1241 LINE",
"786 395 LINE SMOOTH",
"786 219 OFFCURVE",
"692 125 OFFCURVE",
"537 125 CURVE SMOOTH",
"381 125 OFFCURVE",
"287 219 OFFCURVE",
"287 395 CURVE SMOOTH",
"287 1241 LINE",
"127 1241 LINE",
"127 403 LINE SMOOTH",
"127 125 OFFCURVE",
"281 -23 OFFCURVE",
"537 -23 CURVE SMOOTH",
"791 -23 OFFCURVE",
"944 125 OFFCURVE",
"944 403 CURVE SMOOTH"
);
},
{
closed = 1;
nodes = (
"645 1599 LINE",
"641 1573 OFFCURVE",
"598 1538 OFFCURVE",
"537 1538 CURVE SMOOTH",
"475 1538 OFFCURVE",
"434 1573 OFFCURVE",
"430 1599 CURVE",
"311 1599 LINE",
"311 1518 OFFCURVE",
"397 1423 OFFCURVE",
"537 1423 CURVE SMOOTH",
"676 1423 OFFCURVE",
"760 1518 OFFCURVE",
"760 1599 CURVE"
);
}
);
width = 1071;
}
);
unicode = 016C;
},
{
glyphname = Ucircumflex;
layers = (
{
layerId = "D4AD7B3F-884E-49D2-9CE4-555FBB692325";
name = Light;
paths = (
{
closed = 1;
nodes = (
"944 1241 LINE",
"786 1241 LINE",
"786 395 LINE SMOOTH",
"786 219 OFFCURVE",
"692 125 OFFCURVE",
"537 125 CURVE SMOOTH",
"381 125 OFFCURVE",
"287 219 OFFCURVE",
"287 395 CURVE SMOOTH",
"287 1241 LINE",
"127 1241 LINE",
"127 403 LINE SMOOTH",
"127 125 OFFCURVE",
"281 -23 OFFCURVE",
"537 -23 CURVE SMOOTH",
"791 -23 OFFCURVE",
"944 125 OFFCURVE",
"944 403 CURVE SMOOTH"
);
},
{
closed = 1;
nodes = (
"606 1597 LINE",
"465 1597 LINE",
"309 1352 LINE",
"455 1352 LINE",
"539 1495 LINE",
"616 1352 LINE",
"762 1352 LINE"
);
}
);
width = 1071;
}
);
unicode = 00DB;
},
{
glyphname = Udieresis;
layers = (
{
layerId = "D4AD7B3F-884E-49D2-9CE4-555FBB692325";
name = Light;
paths = (
{
closed = 1;
nodes = (
"944 1241 LINE",
"786 1241 LINE",
"786 395 LINE SMOOTH",
"786 219 OFFCURVE",
"692 125 OFFCURVE",
"537 125 CURVE SMOOTH",
"381 125 OFFCURVE",
"287 219 OFFCURVE",
"287 395 CURVE SMOOTH",
"287 1241 LINE",
"127 1241 LINE",
"127 403 LINE SMOOTH",
"127 125 OFFCURVE",
"281 -23 OFFCURVE",
"537 -23 CURVE SMOOTH",
"791 -23 OFFCURVE",
"944 125 OFFCURVE",
"944 403 CURVE SMOOTH"
);
},
{
closed = 1;
nodes = (
"477 1599 LINE",
"319 1599 LINE",
"319 1427 LINE",
"477 1427 LINE"
);
},
{
closed = 1;
nodes = (
"752 1599 LINE",
"592 1599 LINE",
"592 1427 LINE",
"752 1427 LINE"
);
}
);
width = 1071;
}
);
unicode = 00DC;
},
{
glyphname = Ugrave;
layers = (
{
layerId = "D4AD7B3F-884E-49D2-9CE4-555FBB692325";
name = Light;
paths = (
{
closed = 1;
nodes = (
"944 1241 LINE",
"786 1241 LINE",
"786 395 LINE SMOOTH",
"786 219 OFFCURVE",
"692 125 OFFCURVE",
"537 125 CURVE SMOOTH",
"381 125 OFFCURVE",
"287 219 OFFCURVE",
"287 395 CURVE SMOOTH",
"287 1241 LINE",
"127 1241 LINE",
"127 403 LINE SMOOTH",
"127 125 OFFCURVE",
"281 -23 OFFCURVE",
"537 -23 CURVE SMOOTH",
"791 -23 OFFCURVE",
"944 125 OFFCURVE",
"944 403 CURVE SMOOTH"
);
},
{
closed = 1;
nodes = (
"489 1599 LINE",
"324 1599 LINE",
"322 1593 LINE",
"520 1360 LINE",
"643 1360 LINE"
);
}
);
width = 1071;
}
);
unicode = 00D9;
},
{
glyphname = Uhungarumlaut;
layers = (
{
layerId = "D4AD7B3F-884E-49D2-9CE4-555FBB692325";
name = Light;
paths = (
{
closed = 1;
nodes = (
"944 1241 LINE",
"786 1241 LINE",
"786 395 LINE SMOOTH",
"786 219 OFFCURVE",
"692 125 OFFCURVE",
"537 125 CURVE SMOOTH",
"381 125 OFFCURVE",
"287 219 OFFCURVE",
"287 395 CURVE SMOOTH",
"287 1241 LINE",
"127 1241 LINE",
"127 403 LINE SMOOTH",
"127 125 OFFCURVE",
"281 -23 OFFCURVE",
"537 -23 CURVE SMOOTH",
"791 -23 OFFCURVE",
"944 125 OFFCURVE",
"944 403 CURVE SMOOTH"
);
},
{
closed = 1;
nodes = (
"637 1599 LINE",
"475 1599 LINE",
"362 1360 LINE",
"487 1360 LINE",
"639 1593 LINE"
);
},
{
closed = 1;
nodes = (
"872 1599 LINE",
"711 1599 LINE",
"600 1360 LINE",
"723 1360 LINE",
"874 1593 LINE"
);
}
);
width = 1071;
}
);
unicode = 0170;
},
{
glyphname = Umacron;
layers = (
{
layerId = "D4AD7B3F-884E-49D2-9CE4-555FBB692325";
name = Light;
paths = (
{
closed = 1;
nodes = (
"944 1241 LINE",
"786 1241 LINE",
"786 395 LINE SMOOTH",
"786 219 OFFCURVE",
"692 125 OFFCURVE",
"537 125 CURVE SMOOTH",
"381 125 OFFCURVE",
"287 219 OFFCURVE",
"287 395 CURVE SMOOTH",
"287 1241 LINE",
"127 1241 LINE",
"127 403 LINE SMOOTH",
"127 125 OFFCURVE",
"281 -23 OFFCURVE",
"537 -23 CURVE SMOOTH",
"791 -23 OFFCURVE",
"944 125 OFFCURVE",
"944 403 CURVE SMOOTH"
);
},
{
closed = 1;
nodes = (
"762 1505 LINE",
"309 1505 LINE",
"309 1374 LINE",
"762 1374 LINE"
);
}
);
width = 1071;
}
);
unicode = 016A;
},
{
glyphname = Uogonek;
layers = (
{
layerId = "D4AD7B3F-884E-49D2-9CE4-555FBB692325";
name = Light;
paths = (
{
closed = 1;
nodes = (
"944 1241 LINE",
"786 1241 LINE",
"786 395 LINE SMOOTH",
"786 219 OFFCURVE",
"692 125 OFFCURVE",
"537 125 CURVE SMOOTH",
"381 125 OFFCURVE",
"287 219 OFFCURVE",
"287 395 CURVE SMOOTH",
"287 1241 LINE",
"127 1241 LINE",
"127 403 LINE SMOOTH",
"127 125 OFFCURVE",
"281 -23 OFFCURVE",
"537 -23 CURVE SMOOTH",
"567 -23 OFFCURVE",
"588 -20 OFFCURVE",
"610 -14 CURVE",
"604 10 LINE",
"561 -35 OFFCURVE",
"528 -86 OFFCURVE",
"528 -166 CURVE SMOOTH",
"528 -291 OFFCURVE",
"621 -330 OFFCURVE",
"698 -330 CURVE SMOOTH",
"735 -330 OFFCURVE",
"772 -319 OFFCURVE",
"809 -305 CURVE",
"809 -211 LINE",
"754 -211 LINE SMOOTH",
"692 -211 OFFCURVE",
"670 -164 OFFCURVE",
"670 -113 CURVE SMOOTH",
"670 -63 OFFCURVE",
"696 -16 OFFCURVE",
"719 8 CURVE",
"862 68 OFFCURVE",
"944 199 OFFCURVE",
"944 403 CURVE SMOOTH"
);
}
);
width = 1071;
}
);
unicode = 0172;
},
{
glyphname = Uring;
layers = (
{
layerId = "D4AD7B3F-884E-49D2-9CE4-555FBB692325";
name = Light;
paths = (
{
closed = 1;
nodes = (
"944 1241 LINE",
"786 1241 LINE",
"786 395 LINE SMOOTH",
"786 219 OFFCURVE",
"692 125 OFFCURVE",
"537 125 CURVE SMOOTH",
"381 125 OFFCURVE",
"287 219 OFFCURVE",
"287 395 CURVE SMOOTH",
"287 1241 LINE",
"127 1241 LINE",
"127 403 LINE SMOOTH",
"127 125 OFFCURVE",
"281 -23 OFFCURVE",
"537 -23 CURVE SMOOTH",
"791 -23 OFFCURVE",
"944 125 OFFCURVE",
"944 403 CURVE SMOOTH"
);
},
{
closed = 1;
nodes = (
"440 1657 OFFCURVE",
"362 1579 OFFCURVE",
"362 1483 CURVE SMOOTH",
"362 1384 OFFCURVE",
"442 1309 OFFCURVE",
"537 1309 CURVE SMOOTH",
"633 1309 OFFCURVE",
"711 1386 OFFCURVE",
"711 1483 CURVE SMOOTH",
"711 1577 OFFCURVE",
"633 1657 OFFCURVE",
"537 1657 CURVE SMOOTH"
);
},
{
closed = 1;
nodes = (
"586 1575 OFFCURVE",
"629 1534 OFFCURVE",
"629 1483 CURVE SMOOTH",
"629 1432 OFFCURVE",
"586 1391 OFFCURVE",
"537 1391 CURVE SMOOTH",
"485 1391 OFFCURVE",
"444 1432 OFFCURVE",
"444 1483 CURVE SMOOTH",
"444 1534 OFFCURVE",
"485 1575 OFFCURVE",
"537 1575 CURVE SMOOTH"
);
}
);
width = 1071;
}
);
unicode = 016E;
},
{
glyphname = Utilde;
layers = (
{
layerId = "D4AD7B3F-884E-49D2-9CE4-555FBB692325";
name = Light;
paths = (
{
closed = 1;
nodes = (
"944 1241 LINE",
"786 1241 LINE",
"786 395 LINE SMOOTH",
"786 219 OFFCURVE",
"692 125 OFFCURVE",
"537 125 CURVE SMOOTH",
"381 125 OFFCURVE",
"287 219 OFFCURVE",
"287 395 CURVE SMOOTH",
"287 1241 LINE",
"127 1241 LINE",
"127 403 LINE SMOOTH",
"127 125 OFFCURVE",
"281 -23 OFFCURVE",
"537 -23 CURVE SMOOTH",
"791 -23 OFFCURVE",
"944 125 OFFCURVE",
"944 403 CURVE SMOOTH"
);
},
{
closed = 1;
nodes = (
"694 1599 LINE",
"690 1556 OFFCURVE",
"666 1544 OFFCURVE",
"633 1544 CURVE SMOOTH",
"563 1544 OFFCURVE",
"504 1599 OFFCURVE",
"426 1599 CURVE SMOOTH",
"317 1599 OFFCURVE",
"272 1493 OFFCURVE",
"272 1411 CURVE",
"377 1411 LINE",
"383 1452 OFFCURVE",
"406 1466 OFFCURVE",
"438 1466 CURVE SMOOTH",
"508 1466 OFFCURVE",
"567 1411 OFFCURVE",
"647 1411 CURVE SMOOTH",
"756 1411 OFFCURVE",
"801 1516 OFFCURVE",
"801 1599 CURVE"
);
}
);
width = 1071;
}
);
unicode = 0168;
},
{
glyphname = V;
layers = (
{
layerId = "D4AD7B3F-884E-49D2-9CE4-555FBB692325";
name = Light;
paths = (
{
closed = 1;
nodes = (
"598 0 LINE",
"975 1241 LINE",
"821 1241 LINE",
"506 176 LINE",
"498 176 LINE",
"190 1241 LINE",
"14 1241 LINE",
"393 0 LINE"
);
}
);
width = 991;
}
);
unicode = 0056;
},
{
glyphname = W;
layers = (
{
anchors = (
{
name = top;
position = "{700, 1241}";
}
);
layerId = "D4AD7B3F-884E-49D2-9CE4-555FBB692325";
name = Light;
paths = (
{
closed = 1;
nodes = (
"1096 0 LINE",
"1382 1241 LINE",
"1239 1241 LINE",
"1049 383 LINE SMOOTH",
"1030 303 OFFCURVE",
"1010 164 OFFCURVE",
"1010 164 CURVE SMOOTH",
"1004 164 LINE SMOOTH",
"1004 164 OFFCURVE",
"987 293 OFFCURVE",
"971 383 CURVE SMOOTH",
"817 1241 LINE",
"596 1241 LINE",
"453 383 LINE SMOOTH",
"434 274 OFFCURVE",
"422 164 OFFCURVE",
"422 164 CURVE SMOOTH",
"414 164 LINE SMOOTH",
"414 164 OFFCURVE",
"393 311 OFFCURVE",
"377 383 CURVE SMOOTH",
"186 1241 LINE",
"18 1241 LINE",
"305 0 LINE",
"512 0 LINE",
"662 842 LINE SMOOTH",
"676 926 OFFCURVE",
"694 1092 OFFCURVE",
"694 1092 CURVE",
"702 1092 LINE",
"702 1092 OFFCURVE",
"723 926 OFFCURVE",
"737 842 CURVE SMOOTH",
"889 0 LINE"
);
}
);
width = 1401;
}
);
unicode = 0057;
},
{
glyphname = Wacute;
layers = (
{
layerId = "D4AD7B3F-884E-49D2-9CE4-555FBB692325";
name = Light;
paths = (
{
closed = 1;
nodes = (
"1382 1241 LINE",
"1239 1241 LINE",
"1049 383 LINE SMOOTH",
"1030 303 OFFCURVE",
"1010 164 OFFCURVE",
"1010 164 CURVE SMOOTH",
"1004 164 LINE SMOOTH",
"1004 164 OFFCURVE",
"987 293 OFFCURVE",
"971 383 CURVE SMOOTH",
"817 1241 LINE",
"596 1241 LINE",
"453 383 LINE SMOOTH",
"434 274 OFFCURVE",
"422 164 OFFCURVE",
"422 164 CURVE SMOOTH",
"414 164 LINE SMOOTH",
"414 164 OFFCURVE",
"393 311 OFFCURVE",
"377 383 CURVE SMOOTH",
"186 1241 LINE",
"18 1241 LINE",
"305 0 LINE",
"512 0 LINE",
"662 842 LINE SMOOTH",
"676 926 OFFCURVE",
"694 1092 OFFCURVE",
"694 1092 CURVE",
"702 1092 LINE",
"702 1092 OFFCURVE",
"723 926 OFFCURVE",
"737 842 CURVE SMOOTH",
"889 0 LINE",
"1096 0 LINE"
);
},
{
closed = 1;
nodes = (
"911 1599 LINE",
"750 1599 LINE",
"594 1360 LINE",
"719 1360 LINE",
"913 1593 LINE"
);
}
);
width = 1401;
}
);
unicode = 1E82;
},
{
glyphname = Wcircumflex;
layers = (
{
layerId = "D4AD7B3F-884E-49D2-9CE4-555FBB692325";
name = Light;
paths = (
{
closed = 1;
nodes = (
"1096 0 LINE",
"1382 1241 LINE",
"1239 1241 LINE",
"1049 383 LINE SMOOTH",
"1030 303 OFFCURVE",
"1010 164 OFFCURVE",
"1010 164 CURVE SMOOTH",
"1004 164 LINE SMOOTH",
"1004 164 OFFCURVE",
"987 293 OFFCURVE",
"971 383 CURVE SMOOTH",
"817 1241 LINE",
"596 1241 LINE",
"453 383 LINE SMOOTH",
"434 274 OFFCURVE",
"422 164 OFFCURVE",
"422 164 CURVE SMOOTH",
"414 164 LINE SMOOTH",
"414 164 OFFCURVE",
"393 311 OFFCURVE",
"377 383 CURVE SMOOTH",
"186 1241 LINE",
"18 1241 LINE",
"305 0 LINE",
"512 0 LINE",
"662 842 LINE SMOOTH",
"676 926 OFFCURVE",
"694 1092 OFFCURVE",
"694 1092 CURVE",
"702 1092 LINE",
"702 1092 OFFCURVE",
"723 926 OFFCURVE",
"737 842 CURVE SMOOTH",
"889 0 LINE"
);
},
{
closed = 1;
nodes = (
"928 1352 LINE",
"772 1597 LINE",
"633 1597 LINE",
"475 1352 LINE",
"621 1352 LINE",
"702 1495 LINE",
"782 1352 LINE"
);
}
);
width = 1401;
}
);
unicode = 0174;
},
{
glyphname = Wdieresis;
layers = (
{
layerId = "D4AD7B3F-884E-49D2-9CE4-555FBB692325";
name = Light;
paths = (
{
closed = 1;
nodes = (
"1382 1241 LINE",
"1239 1241 LINE",
"1049 383 LINE SMOOTH",
"1030 303 OFFCURVE",
"1010 164 OFFCURVE",
"1010 164 CURVE SMOOTH",
"1004 164 LINE SMOOTH",
"1004 164 OFFCURVE",
"987 293 OFFCURVE",
"971 383 CURVE SMOOTH",
"817 1241 LINE",
"596 1241 LINE",
"453 383 LINE SMOOTH",
"434 274 OFFCURVE",
"422 164 OFFCURVE",
"422 164 CURVE SMOOTH",
"414 164 LINE SMOOTH",
"414 164 OFFCURVE",
"393 311 OFFCURVE",
"377 383 CURVE SMOOTH",
"186 1241 LINE",
"18 1241 LINE",
"305 0 LINE",
"512 0 LINE",
"662 842 LINE SMOOTH",
"676 926 OFFCURVE",
"694 1092 OFFCURVE",
"694 1092 CURVE",
"702 1092 LINE",
"702 1092 OFFCURVE",
"723 926 OFFCURVE",
"737 842 CURVE SMOOTH",
"889 0 LINE",
"1096 0 LINE"
);
},
{
closed = 1;
nodes = (
"643 1599 LINE",
"487 1599 LINE",
"487 1427 LINE",
"643 1427 LINE"
);
},
{
closed = 1;
nodes = (
"915 1599 LINE",
"758 1599 LINE",
"758 1427 LINE",
"915 1427 LINE"
);
}
);
width = 1401;
}
);
unicode = 1E84;
},
{
glyphname = Wgrave;
layers = (
{
layerId = "D4AD7B3F-884E-49D2-9CE4-555FBB692325";
name = Light;
paths = (
{
closed = 1;
nodes = (
"1382 1241 LINE",
"1239 1241 LINE",
"1049 383 LINE SMOOTH",
"1030 303 OFFCURVE",
"1010 164 OFFCURVE",
"1010 164 CURVE SMOOTH",
"1004 164 LINE SMOOTH",
"1004 164 OFFCURVE",
"987 293 OFFCURVE",
"971 383 CURVE SMOOTH",
"817 1241 LINE",
"596 1241 LINE",
"453 383 LINE SMOOTH",
"434 274 OFFCURVE",
"422 164 OFFCURVE",
"422 164 CURVE SMOOTH",
"414 164 LINE SMOOTH",
"414 164 OFFCURVE",
"393 311 OFFCURVE",
"377 383 CURVE SMOOTH",
"186 1241 LINE",
"18 1241 LINE",
"305 0 LINE",
"512 0 LINE",
"662 842 LINE SMOOTH",
"676 926 OFFCURVE",
"694 1092 OFFCURVE",
"694 1092 CURVE",
"702 1092 LINE",
"702 1092 OFFCURVE",
"723 926 OFFCURVE",
"737 842 CURVE SMOOTH",
"889 0 LINE",
"1096 0 LINE"
);
},
{
closed = 1;
nodes = (
"653 1599 LINE",
"492 1599 LINE",
"489 1593 LINE",
"684 1360 LINE",
"809 1360 LINE"
);
}
);
width = 1401;
}
);
unicode = 1E80;
},
{
glyphname = X;
layers = (
{
layerId = "D4AD7B3F-884E-49D2-9CE4-555FBB692325";
name = Light;
paths = (
{
closed = 1;
nodes = (
"944 1241 LINE",
"772 1241 LINE",
"494 788 LINE",
"506 788 LINE",
"231 1241 LINE",
"43 1241 LINE",
"403 645 LINE",
"8 0 LINE",
"178 0 LINE",
"494 514 LINE",
"485 514 LINE",
"795 0 LINE",
"983 0 LINE",
"584 659 LINE"
);
}
);
width = 991;
}
);
unicode = 0058;
},
{
glyphname = Y;
layers = (
{
anchors = (
{
name = top;
position = "{496, 1241}";
}
);
layerId = "D4AD7B3F-884E-49D2-9CE4-555FBB692325";
name = Light;
paths = (
{
closed = 1;
nodes = (
"575 514 LINE",
"975 1241 LINE",
"821 1241 LINE",
"512 666 LINE",
"506 666 LINE",
"190 1241 LINE",
"14 1241 LINE",
"416 514 LINE",
"416 0 LINE",
"575 0 LINE"
);
}
);
width = 991;
}
);
unicode = 0059;
},
{
glyphname = Yacute;
layers = (
{
layerId = "D4AD7B3F-884E-49D2-9CE4-555FBB692325";
name = Light;
paths = (
{
closed = 1;
nodes = (
"975 1241 LINE",
"821 1241 LINE",
"512 666 LINE",
"506 666 LINE",
"190 1241 LINE",
"14 1241 LINE",
"416 514 LINE",
"416 0 LINE",
"575 0 LINE",
"575 514 LINE"
);
},
{
closed = 1;
nodes = (
"707 1599 LINE",
"543 1599 LINE",
"387 1360 LINE",
"512 1360 LINE",
"709 1593 LINE"
);
}
);
width = 991;
}
);
unicode = 00DD;
},
{
glyphname = Ycircumflex;
layers = (
{
layerId = "D4AD7B3F-884E-49D2-9CE4-555FBB692325";
name = Light;
paths = (
{
closed = 1;
nodes = (
"575 514 LINE",
"975 1241 LINE",
"821 1241 LINE",
"512 666 LINE",
"506 666 LINE",
"190 1241 LINE",
"14 1241 LINE",
"416 514 LINE",
"416 0 LINE",
"575 0 LINE"
);
},
{
closed = 1;
nodes = (
"721 1352 LINE",
"567 1597 LINE",
"426 1597 LINE",
"270 1352 LINE",
"414 1352 LINE",
"496 1495 LINE",
"575 1352 LINE"
);
}
);
width = 991;
}
);
unicode = 0176;
},
{
glyphname = Ydieresis;
layers = (
{
layerId = "D4AD7B3F-884E-49D2-9CE4-555FBB692325";
name = Light;
paths = (
{
closed = 1;
nodes = (
"975 1241 LINE",
"821 1241 LINE",
"512 666 LINE",
"506 666 LINE",
"190 1241 LINE",
"14 1241 LINE",
"416 514 LINE",
"416 0 LINE",
"575 0 LINE",
"575 514 LINE"
);
},
{
closed = 1;
nodes = (
"438 1599 LINE",
"281 1599 LINE",
"281 1427 LINE",
"438 1427 LINE"
);
},
{
closed = 1;
nodes = (
"711 1599 LINE",
"553 1599 LINE",
"553 1427 LINE",
"711 1427 LINE"
);
}
);
width = 991;
}
);
unicode = 0178;
},
{
glyphname = Ygrave;
layers = (
{
layerId = "D4AD7B3F-884E-49D2-9CE4-555FBB692325";
name = Light;
paths = (
{
closed = 1;
nodes = (
"975 1241 LINE",
"821 1241 LINE",
"512 666 LINE",
"506 666 LINE",
"190 1241 LINE",
"14 1241 LINE",
"416 514 LINE",
"416 0 LINE",
"575 0 LINE",
"575 514 LINE"
);
},
{
closed = 1;
nodes = (
"446 1599 LINE",
"285 1599 LINE",
"283 1593 LINE",
"477 1360 LINE",
"602 1360 LINE"
);
}
);
width = 991;
}
);
unicode = 1EF2;
},
{
glyphname = Z;
layers = (
{
anchors = (
{
name = top;
position = "{455, 1241}";
}
);
layerId = "D4AD7B3F-884E-49D2-9CE4-555FBB692325";
name = Light;
paths = (
{
closed = 1;
nodes = (
"854 1241 LINE",
"74 1241 LINE",
"74 1098 LINE",
"627 1098 LINE",
"37 70 LINE",
"37 0 LINE",
"866 0 LINE",
"866 145 LINE",
"262 145 LINE",
"854 1174 LINE"
);
}
);
width = 907;
}
);
unicode = 005A;
},
{
glyphname = Zacute;
layers = (
{
layerId = "D4AD7B3F-884E-49D2-9CE4-555FBB692325";
name = Light;
paths = (
{
closed = 1;
nodes = (
"854 1241 LINE",
"74 1241 LINE",
"74 1098 LINE",
"627 1098 LINE",
"37 70 LINE",
"37 0 LINE",
"866 0 LINE",
"866 145 LINE",
"262 145 LINE",
"854 1174 LINE"
);
},
{
closed = 1;
nodes = (
"664 1599 LINE",
"502 1599 LINE",
"346 1360 LINE",
"471 1360 LINE",
"666 1593 LINE"
);
}
);
width = 907;
}
);
unicode = 0179;
},
{
glyphname = Zcaron;
layers = (
{
layerId = "D4AD7B3F-884E-49D2-9CE4-555FBB692325";
name = Light;
paths = (
{
closed = 1;
nodes = (
"854 1241 LINE",
"74 1241 LINE",
"74 1098 LINE",
"627 1098 LINE",
"37 70 LINE",
"37 0 LINE",
"866 0 LINE",
"866 145 LINE",
"262 145 LINE",
"854 1174 LINE"
);
},
{
closed = 1;
nodes = (
"678 1599 LINE",
"535 1599 LINE",
"453 1456 LINE",
"373 1599 LINE",
"227 1599 LINE",
"383 1354 LINE",
"522 1354 LINE"
);
}
);
width = 907;
}
);
unicode = 017D;
},
{
glyphname = Zdotaccent;
layers = (
{
layerId = "D4AD7B3F-884E-49D2-9CE4-555FBB692325";
name = Light;
paths = (
{
closed = 1;
nodes = (
"854 1241 LINE",
"74 1241 LINE",
"74 1098 LINE",
"627 1098 LINE",
"37 70 LINE",
"37 0 LINE",
"866 0 LINE",
"866 145 LINE",
"262 145 LINE",
"854 1174 LINE"
);
},
{
closed = 1;
nodes = (
"532 1599 LINE",
"375 1599 LINE",
"375 1427 LINE",
"532 1427 LINE"
);
}
);
width = 907;
}
);
unicode = 017B;
},
{
glyphname = a;
layers = (
{
anchors = (
{
name = ogonek;
position = "{741, 18}";
},
{
name = top;
position = "{414, 952}";
}
);
layerId = "D4AD7B3F-884E-49D2-9CE4-555FBB692325";
name = Light;
paths = (
{
closed = 1;
nodes = (
"225 975 OFFCURVE",
"98 883 OFFCURVE",
"98 711 CURVE SMOOTH",
"98 694 OFFCURVE",
"98 680 OFFCURVE",
"100 670 CURVE",
"246 670 LINE",
"246 692 LINE SMOOTH",
"246 764 OFFCURVE",
"281 842 OFFCURVE",
"393 842 CURVE SMOOTH",
"514 842 OFFCURVE",
"543 778 OFFCURVE",
"543 688 CURVE SMOOTH",
"543 565 LINE",
"266 565 OFFCURVE",
"61 508 OFFCURVE",
"61 246 CURVE SMOOTH",
"61 16 OFFCURVE",
"217 -23 OFFCURVE",
"311 -23 CURVE SMOOTH",
"412 -23 OFFCURVE",
"494 25 OFFCURVE",
"543 102 CURVE",
"553 102 LINE",
"569 33 OFFCURVE",
"625 -14 OFFCURVE",
"702 -14 CURVE SMOOTH",
"750 -14 OFFCURVE",
"784 -2 OFFCURVE",
"801 8 CURVE",
"801 111 LINE",
"741 111 LINE SMOOTH",
"717 111 OFFCURVE",
"692 129 OFFCURVE",
"692 174 CURVE SMOOTH",
"692 709 LINE SMOOTH",
"692 877 OFFCURVE",
"596 975 OFFCURVE",
"403 975 CURVE SMOOTH"
);
},
{
closed = 1;
nodes = (
"543 346 LINE",
"543 188 OFFCURVE",
"440 111 OFFCURVE",
"346 111 CURVE SMOOTH",
"262 111 OFFCURVE",
"217 147 OFFCURVE",
"217 256 CURVE SMOOTH",
"217 403 OFFCURVE",
"350 432 OFFCURVE",
"543 432 CURVE"
);
}
);
width = 825;
}
);
unicode = 0061;
},
{
glyphname = aacute;
layers = (
{
layerId = "D4AD7B3F-884E-49D2-9CE4-555FBB692325";
name = Light;
paths = (
{
closed = 1;
nodes = (
"225 975 OFFCURVE",
"98 883 OFFCURVE",
"98 711 CURVE SMOOTH",
"98 694 OFFCURVE",
"98 680 OFFCURVE",
"100 670 CURVE",
"246 670 LINE",
"246 692 LINE SMOOTH",
"246 764 OFFCURVE",
"281 842 OFFCURVE",
"393 842 CURVE SMOOTH",
"514 842 OFFCURVE",
"543 778 OFFCURVE",
"543 688 CURVE SMOOTH",
"543 565 LINE",
"266 565 OFFCURVE",
"61 508 OFFCURVE",
"61 246 CURVE SMOOTH",
"61 16 OFFCURVE",
"217 -23 OFFCURVE",
"311 -23 CURVE SMOOTH",
"412 -23 OFFCURVE",
"494 25 OFFCURVE",
"543 102 CURVE",
"553 102 LINE",
"569 33 OFFCURVE",
"625 -14 OFFCURVE",
"702 -14 CURVE SMOOTH",
"750 -14 OFFCURVE",
"784 -2 OFFCURVE",
"801 8 CURVE",
"801 111 LINE",
"741 111 LINE SMOOTH",
"717 111 OFFCURVE",
"692 129 OFFCURVE",
"692 174 CURVE SMOOTH",
"692 709 LINE SMOOTH",
"692 877 OFFCURVE",
"596 975 OFFCURVE",
"403 975 CURVE SMOOTH"
);
},
{
closed = 1;
nodes = (
"543 346 LINE",
"543 188 OFFCURVE",
"440 111 OFFCURVE",
"346 111 CURVE SMOOTH",
"262 111 OFFCURVE",
"217 147 OFFCURVE",
"217 256 CURVE SMOOTH",
"217 403 OFFCURVE",
"350 432 OFFCURVE",
"543 432 CURVE"
);
},
{
closed = 1;
nodes = (
"616 1309 LINE",
"453 1309 LINE",
"297 1069 LINE",
"422 1069 LINE",
"616 1303 LINE"
);
}
);
width = 825;
}
);
unicode = 00E1;
},
{
glyphname = abreve;
layers = (
{
layerId = "D4AD7B3F-884E-49D2-9CE4-555FBB692325";
name = Light;
paths = (
{
closed = 1;
nodes = (
"225 975 OFFCURVE",
"98 883 OFFCURVE",
"98 711 CURVE SMOOTH",
"98 694 OFFCURVE",
"98 680 OFFCURVE",
"100 670 CURVE",
"246 670 LINE",
"246 692 LINE SMOOTH",
"246 764 OFFCURVE",
"281 842 OFFCURVE",
"393 842 CURVE SMOOTH",
"514 842 OFFCURVE",
"543 778 OFFCURVE",
"543 688 CURVE SMOOTH",
"543 565 LINE",
"266 565 OFFCURVE",
"61 508 OFFCURVE",
"61 246 CURVE SMOOTH",
"61 16 OFFCURVE",
"217 -23 OFFCURVE",
"311 -23 CURVE SMOOTH",
"412 -23 OFFCURVE",
"494 25 OFFCURVE",
"543 102 CURVE",
"553 102 LINE",
"569 33 OFFCURVE",
"625 -14 OFFCURVE",
"702 -14 CURVE SMOOTH",
"750 -14 OFFCURVE",
"784 -2 OFFCURVE",
"801 8 CURVE",
"801 111 LINE",
"741 111 LINE SMOOTH",
"717 111 OFFCURVE",
"692 129 OFFCURVE",
"692 174 CURVE SMOOTH",
"692 709 LINE SMOOTH",
"692 877 OFFCURVE",
"596 975 OFFCURVE",
"403 975 CURVE SMOOTH"
);
},
{
closed = 1;
nodes = (
"543 346 LINE",
"543 188 OFFCURVE",
"440 111 OFFCURVE",
"346 111 CURVE SMOOTH",
"262 111 OFFCURVE",
"217 147 OFFCURVE",
"217 256 CURVE SMOOTH",
"217 403 OFFCURVE",
"350 432 OFFCURVE",
"543 432 CURVE"
);
},
{
closed = 1;
nodes = (
"522 1309 LINE",
"518 1284 OFFCURVE",
"475 1249 OFFCURVE",
"414 1249 CURVE SMOOTH",
"350 1249 OFFCURVE",
"311 1284 OFFCURVE",
"305 1309 CURVE",
"188 1309 LINE",
"188 1227 OFFCURVE",
"274 1133 OFFCURVE",
"414 1133 CURVE SMOOTH",
"553 1133 OFFCURVE",
"637 1227 OFFCURVE",
"637 1309 CURVE"
);
}
);
width = 825;
}
);
unicode = 0103;
},
{
glyphname = acircumflex;
layers = (
{
layerId = "D4AD7B3F-884E-49D2-9CE4-555FBB692325";
name = Light;
paths = (
{
closed = 1;
nodes = (
"225 975 OFFCURVE",
"98 883 OFFCURVE",
"98 711 CURVE SMOOTH",
"98 694 OFFCURVE",
"98 680 OFFCURVE",
"100 670 CURVE",
"246 670 LINE",
"246 692 LINE SMOOTH",
"246 764 OFFCURVE",
"281 842 OFFCURVE",
"393 842 CURVE SMOOTH",
"514 842 OFFCURVE",
"543 778 OFFCURVE",
"543 688 CURVE SMOOTH",
"543 565 LINE",
"266 565 OFFCURVE",
"61 508 OFFCURVE",
"61 246 CURVE SMOOTH",
"61 16 OFFCURVE",
"217 -23 OFFCURVE",
"311 -23 CURVE SMOOTH",
"412 -23 OFFCURVE",
"494 25 OFFCURVE",
"543 102 CURVE",
"553 102 LINE",
"569 33 OFFCURVE",
"625 -14 OFFCURVE",
"702 -14 CURVE SMOOTH",
"750 -14 OFFCURVE",
"784 -2 OFFCURVE",
"801 8 CURVE",
"801 111 LINE",
"741 111 LINE SMOOTH",
"717 111 OFFCURVE",
"692 129 OFFCURVE",
"692 174 CURVE SMOOTH",
"692 709 LINE SMOOTH",
"692 877 OFFCURVE",
"596 975 OFFCURVE",
"403 975 CURVE SMOOTH"
);
},
{
closed = 1;
nodes = (
"543 346 LINE",
"543 188 OFFCURVE",
"440 111 OFFCURVE",
"346 111 CURVE SMOOTH",
"262 111 OFFCURVE",
"217 147 OFFCURVE",
"217 256 CURVE SMOOTH",
"217 403 OFFCURVE",
"350 432 OFFCURVE",
"543 432 CURVE"
);
},
{
closed = 1;
nodes = (
"639 1063 LINE",
"485 1307 LINE",
"342 1307 LINE",
"188 1063 LINE",
"334 1063 LINE",
"414 1206 LINE",
"494 1063 LINE"
);
}
);
width = 825;
}
);
unicode = 00E2;
},
{
glyphname = adieresis;
layers = (
{
layerId = "D4AD7B3F-884E-49D2-9CE4-555FBB692325";
name = Light;
paths = (
{
closed = 1;
nodes = (
"225 975 OFFCURVE",
"98 883 OFFCURVE",
"98 711 CURVE SMOOTH",
"98 694 OFFCURVE",
"98 680 OFFCURVE",
"100 670 CURVE",
"246 670 LINE",
"246 692 LINE SMOOTH",
"246 764 OFFCURVE",
"281 842 OFFCURVE",
"393 842 CURVE SMOOTH",
"514 842 OFFCURVE",
"543 778 OFFCURVE",
"543 688 CURVE SMOOTH",
"543 565 LINE",
"266 565 OFFCURVE",
"61 508 OFFCURVE",
"61 246 CURVE SMOOTH",
"61 16 OFFCURVE",
"217 -23 OFFCURVE",
"311 -23 CURVE SMOOTH",
"412 -23 OFFCURVE",
"494 25 OFFCURVE",
"543 102 CURVE",
"553 102 LINE",
"569 33 OFFCURVE",
"625 -14 OFFCURVE",
"702 -14 CURVE SMOOTH",
"750 -14 OFFCURVE",
"784 -2 OFFCURVE",
"801 8 CURVE",
"801 111 LINE",
"741 111 LINE SMOOTH",
"717 111 OFFCURVE",
"692 129 OFFCURVE",
"692 174 CURVE SMOOTH",
"692 709 LINE SMOOTH",
"692 877 OFFCURVE",
"596 975 OFFCURVE",
"403 975 CURVE SMOOTH"
);
},
{
closed = 1;
nodes = (
"543 346 LINE",
"543 188 OFFCURVE",
"440 111 OFFCURVE",
"346 111 CURVE SMOOTH",
"262 111 OFFCURVE",
"217 147 OFFCURVE",
"217 256 CURVE SMOOTH",
"217 403 OFFCURVE",
"350 432 OFFCURVE",
"543 432 CURVE"
);
},
{
closed = 1;
nodes = (
"354 1309 LINE",
"197 1309 LINE",
"197 1137 LINE",
"354 1137 LINE"
);
},
{
closed = 1;
nodes = (
"629 1309 LINE",
"469 1309 LINE",
"469 1137 LINE",
"629 1137 LINE"
);
}
);
width = 825;
}
);
unicode = 00E4;
},
{
glyphname = agrave;
layers = (
{
layerId = "D4AD7B3F-884E-49D2-9CE4-555FBB692325";
name = Light;
paths = (
{
closed = 1;
nodes = (
"225 975 OFFCURVE",
"98 883 OFFCURVE",
"98 711 CURVE SMOOTH",
"98 694 OFFCURVE",
"98 680 OFFCURVE",
"100 670 CURVE",
"246 670 LINE",
"246 692 LINE SMOOTH",
"246 764 OFFCURVE",
"281 842 OFFCURVE",
"393 842 CURVE SMOOTH",
"514 842 OFFCURVE",
"543 778 OFFCURVE",
"543 688 CURVE SMOOTH",
"543 565 LINE",
"266 565 OFFCURVE",
"61 508 OFFCURVE",
"61 246 CURVE SMOOTH",
"61 16 OFFCURVE",
"217 -23 OFFCURVE",
"311 -23 CURVE SMOOTH",
"412 -23 OFFCURVE",
"494 25 OFFCURVE",
"543 102 CURVE",
"553 102 LINE",
"569 33 OFFCURVE",
"625 -14 OFFCURVE",
"702 -14 CURVE SMOOTH",
"750 -14 OFFCURVE",
"784 -2 OFFCURVE",
"801 8 CURVE",
"801 111 LINE",
"741 111 LINE SMOOTH",
"717 111 OFFCURVE",
"692 129 OFFCURVE",
"692 174 CURVE SMOOTH",
"692 709 LINE SMOOTH",
"692 877 OFFCURVE",
"596 975 OFFCURVE",
"403 975 CURVE SMOOTH"
);
},
{
closed = 1;
nodes = (
"543 346 LINE",
"543 188 OFFCURVE",
"440 111 OFFCURVE",
"346 111 CURVE SMOOTH",
"262 111 OFFCURVE",
"217 147 OFFCURVE",
"217 256 CURVE SMOOTH",
"217 403 OFFCURVE",
"350 432 OFFCURVE",
"543 432 CURVE"
);
},
{
closed = 1;
nodes = (
"356 1309 LINE",
"195 1309 LINE",
"193 1303 LINE",
"387 1069 LINE",
"512 1069 LINE"
);
}
);
width = 825;
}
);
unicode = 00E0;
},
{
glyphname = amacron;
layers = (
{
layerId = "D4AD7B3F-884E-49D2-9CE4-555FBB692325";
name = Light;
paths = (
{
closed = 1;
nodes = (
"225 975 OFFCURVE",
"98 883 OFFCURVE",
"98 711 CURVE SMOOTH",
"98 694 OFFCURVE",
"98 680 OFFCURVE",
"100 670 CURVE",
"246 670 LINE",
"246 692 LINE SMOOTH",
"246 764 OFFCURVE",
"281 842 OFFCURVE",
"393 842 CURVE SMOOTH",
"514 842 OFFCURVE",
"543 778 OFFCURVE",
"543 688 CURVE SMOOTH",
"543 565 LINE",
"266 565 OFFCURVE",
"61 508 OFFCURVE",
"61 246 CURVE SMOOTH",
"61 16 OFFCURVE",
"217 -23 OFFCURVE",
"311 -23 CURVE SMOOTH",
"412 -23 OFFCURVE",
"494 25 OFFCURVE",
"543 102 CURVE",
"553 102 LINE",
"569 33 OFFCURVE",
"625 -14 OFFCURVE",
"702 -14 CURVE SMOOTH",
"750 -14 OFFCURVE",
"784 -2 OFFCURVE",
"801 8 CURVE",
"801 111 LINE",
"741 111 LINE SMOOTH",
"717 111 OFFCURVE",
"692 129 OFFCURVE",
"692 174 CURVE SMOOTH",
"692 709 LINE SMOOTH",
"692 877 OFFCURVE",
"596 975 OFFCURVE",
"403 975 CURVE SMOOTH"
);
},
{
closed = 1;
nodes = (
"543 346 LINE",
"543 188 OFFCURVE",
"440 111 OFFCURVE",
"346 111 CURVE SMOOTH",
"262 111 OFFCURVE",
"217 147 OFFCURVE",
"217 256 CURVE SMOOTH",
"217 403 OFFCURVE",
"350 432 OFFCURVE",
"543 432 CURVE"
);
},
{
closed = 1;
nodes = (
"641 1085 LINE",
"641 1214 LINE",
"186 1214 LINE",
"186 1085 LINE"
);
}
);
width = 825;
}
);
unicode = 0101;
},
{
glyphname = aogonek;
layers = (
{
layerId = "D4AD7B3F-884E-49D2-9CE4-555FBB692325";
name = Light;
paths = (
{
closed = 1;
nodes = (
"893 -211 LINE",
"836 -211 LINE SMOOTH",
"774 -211 OFFCURVE",
"754 -164 OFFCURVE",
"754 -113 CURVE SMOOTH",
"754 -66 OFFCURVE",
"778 -20 OFFCURVE",
"801 8 CURVE",
"801 111 LINE",
"741 111 LINE SMOOTH",
"717 111 OFFCURVE",
"692 129 OFFCURVE",
"692 174 CURVE SMOOTH",
"692 709 LINE SMOOTH",
"692 877 OFFCURVE",
"596 975 OFFCURVE",
"403 975 CURVE SMOOTH",
"225 975 OFFCURVE",
"98 883 OFFCURVE",
"98 711 CURVE SMOOTH",
"98 694 OFFCURVE",
"98 680 OFFCURVE",
"100 670 CURVE",
"246 670 LINE",
"246 692 LINE SMOOTH",
"246 764 OFFCURVE",
"281 842 OFFCURVE",
"393 842 CURVE SMOOTH",
"514 842 OFFCURVE",
"543 778 OFFCURVE",
"543 688 CURVE SMOOTH",
"543 565 LINE",
"266 565 OFFCURVE",
"61 508 OFFCURVE",
"61 246 CURVE SMOOTH",
"61 16 OFFCURVE",
"217 -23 OFFCURVE",
"311 -23 CURVE SMOOTH",
"412 -23 OFFCURVE",
"494 25 OFFCURVE",
"543 102 CURVE",
"553 102 LINE",
"567 43 OFFCURVE",
"608 2 OFFCURVE",
"666 -10 CURVE",
"635 -51 OFFCURVE",
"612 -96 OFFCURVE",
"612 -166 CURVE SMOOTH",
"612 -291 OFFCURVE",
"705 -330 OFFCURVE",
"782 -330 CURVE SMOOTH",
"819 -330 OFFCURVE",
"854 -319 OFFCURVE",
"893 -305 CURVE"
);
},
{
closed = 1;
nodes = (
"543 346 LINE",
"543 188 OFFCURVE",
"440 111 OFFCURVE",
"346 111 CURVE SMOOTH",
"262 111 OFFCURVE",
"217 147 OFFCURVE",
"217 256 CURVE SMOOTH",
"217 403 OFFCURVE",
"350 432 OFFCURVE",
"543 432 CURVE"
);
}
);
width = 825;
}
);
unicode = 0105;
},
{
glyphname = aring;
layers = (
{
layerId = "D4AD7B3F-884E-49D2-9CE4-555FBB692325";
name = Light;
paths = (
{
closed = 1;
nodes = (
"225 975 OFFCURVE",
"98 883 OFFCURVE",
"98 711 CURVE SMOOTH",
"98 694 OFFCURVE",
"98 680 OFFCURVE",
"100 670 CURVE",
"246 670 LINE",
"246 692 LINE SMOOTH",
"246 764 OFFCURVE",
"281 842 OFFCURVE",
"393 842 CURVE SMOOTH",
"514 842 OFFCURVE",
"543 778 OFFCURVE",
"543 688 CURVE SMOOTH",
"543 565 LINE",
"266 565 OFFCURVE",
"61 508 OFFCURVE",
"61 246 CURVE SMOOTH",
"61 16 OFFCURVE",
"217 -23 OFFCURVE",
"311 -23 CURVE SMOOTH",
"412 -23 OFFCURVE",
"494 25 OFFCURVE",
"543 102 CURVE",
"553 102 LINE",
"569 33 OFFCURVE",
"625 -14 OFFCURVE",
"702 -14 CURVE SMOOTH",
"750 -14 OFFCURVE",
"784 -2 OFFCURVE",
"801 8 CURVE",
"801 111 LINE",
"741 111 LINE SMOOTH",
"717 111 OFFCURVE",
"692 129 OFFCURVE",
"692 174 CURVE SMOOTH",
"692 709 LINE SMOOTH",
"692 877 OFFCURVE",
"596 975 OFFCURVE",
"403 975 CURVE SMOOTH"
);
},
{
closed = 1;
nodes = (
"543 346 LINE",
"543 188 OFFCURVE",
"440 111 OFFCURVE",
"346 111 CURVE SMOOTH",
"262 111 OFFCURVE",
"217 147 OFFCURVE",
"217 256 CURVE SMOOTH",
"217 403 OFFCURVE",
"350 432 OFFCURVE",
"543 432 CURVE"
);
},
{
closed = 1;
nodes = (
"317 1366 OFFCURVE",
"240 1288 OFFCURVE",
"240 1194 CURVE SMOOTH",
"240 1094 OFFCURVE",
"319 1018 OFFCURVE",
"414 1018 CURVE SMOOTH",
"508 1018 OFFCURVE",
"586 1096 OFFCURVE",
"586 1194 CURVE SMOOTH",
"586 1286 OFFCURVE",
"510 1366 OFFCURVE",
"414 1366 CURVE SMOOTH"
);
},
{
closed = 1;
nodes = (
"461 1284 OFFCURVE",
"506 1243 OFFCURVE",
"506 1194 CURVE SMOOTH",
"506 1143 OFFCURVE",
"461 1100 OFFCURVE",
"414 1100 CURVE SMOOTH",
"362 1100 OFFCURVE",
"319 1143 OFFCURVE",
"319 1194 CURVE SMOOTH",
"319 1243 OFFCURVE",
"362 1284 OFFCURVE",
"414 1284 CURVE SMOOTH"
);
}
);
width = 825;
}
);
unicode = 00E5;
},
{
glyphname = aringacute;
layers = (
{
layerId = "D4AD7B3F-884E-49D2-9CE4-555FBB692325";
name = Light;
paths = (
{
closed = 1;
nodes = (
"225 975 OFFCURVE",
"98 883 OFFCURVE",
"98 711 CURVE SMOOTH",
"98 694 OFFCURVE",
"98 680 OFFCURVE",
"100 670 CURVE",
"246 670 LINE",
"246 692 LINE SMOOTH",
"246 764 OFFCURVE",
"281 842 OFFCURVE",
"393 842 CURVE SMOOTH",
"514 842 OFFCURVE",
"543 778 OFFCURVE",
"543 688 CURVE SMOOTH",
"543 565 LINE",
"266 565 OFFCURVE",
"61 508 OFFCURVE",
"61 246 CURVE SMOOTH",
"61 16 OFFCURVE",
"217 -23 OFFCURVE",
"311 -23 CURVE SMOOTH",
"412 -23 OFFCURVE",
"494 25 OFFCURVE",
"543 102 CURVE",
"553 102 LINE",
"569 33 OFFCURVE",
"625 -14 OFFCURVE",
"702 -14 CURVE SMOOTH",
"750 -14 OFFCURVE",
"784 -2 OFFCURVE",
"801 8 CURVE",
"801 111 LINE",
"741 111 LINE SMOOTH",
"717 111 OFFCURVE",
"692 129 OFFCURVE",
"692 174 CURVE SMOOTH",
"692 709 LINE SMOOTH",
"692 877 OFFCURVE",
"596 975 OFFCURVE",
"403 975 CURVE SMOOTH"
);
},
{
closed = 1;
nodes = (
"543 346 LINE",
"543 188 OFFCURVE",
"440 111 OFFCURVE",
"346 111 CURVE SMOOTH",
"262 111 OFFCURVE",
"217 147 OFFCURVE",
"217 256 CURVE SMOOTH",
"217 403 OFFCURVE",
"350 432 OFFCURVE",
"543 432 CURVE"
);
},
{
closed = 1;
nodes = (
"461 1270 OFFCURVE",
"506 1235 OFFCURVE",
"506 1186 CURVE SMOOTH",
"506 1137 OFFCURVE",
"461 1100 OFFCURVE",
"414 1100 CURVE SMOOTH",
"365 1100 OFFCURVE",
"319 1137 OFFCURVE",
"319 1186 CURVE SMOOTH",
"319 1235 OFFCURVE",
"365 1270 OFFCURVE",
"414 1270 CURVE SMOOTH"
);
},
{
closed = 1;
nodes = (
"317 1350 OFFCURVE",
"240 1278 OFFCURVE",
"240 1186 CURVE SMOOTH",
"240 1092 OFFCURVE",
"319 1022 OFFCURVE",
"414 1022 CURVE SMOOTH",
"510 1022 OFFCURVE",
"586 1094 OFFCURVE",
"586 1186 CURVE SMOOTH",
"586 1276 OFFCURVE",
"512 1350 OFFCURVE",
"414 1350 CURVE SMOOTH"
);
},
{
closed = 1;
nodes = (
"653 1599 LINE",
"492 1599 LINE",
"354 1391 LINE",
"479 1391 LINE",
"655 1593 LINE"
);
}
);
width = 825;
}
);
unicode = 01FB;
},
{
glyphname = atilde;
layers = (
{
layerId = "D4AD7B3F-884E-49D2-9CE4-555FBB692325";
name = Light;
paths = (
{
closed = 1;
nodes = (
"225 975 OFFCURVE",
"98 883 OFFCURVE",
"98 711 CURVE SMOOTH",
"98 694 OFFCURVE",
"98 680 OFFCURVE",
"100 670 CURVE",
"246 670 LINE",
"246 692 LINE SMOOTH",
"246 764 OFFCURVE",
"281 842 OFFCURVE",
"393 842 CURVE SMOOTH",
"514 842 OFFCURVE",
"543 778 OFFCURVE",
"543 688 CURVE SMOOTH",
"543 565 LINE",
"266 565 OFFCURVE",
"61 508 OFFCURVE",
"61 246 CURVE SMOOTH",
"61 16 OFFCURVE",
"217 -23 OFFCURVE",
"311 -23 CURVE SMOOTH",
"412 -23 OFFCURVE",
"494 25 OFFCURVE",
"543 102 CURVE",
"553 102 LINE",
"569 33 OFFCURVE",
"625 -14 OFFCURVE",
"702 -14 CURVE SMOOTH",
"750 -14 OFFCURVE",
"784 -2 OFFCURVE",
"801 8 CURVE",
"801 111 LINE",
"741 111 LINE SMOOTH",
"717 111 OFFCURVE",
"692 129 OFFCURVE",
"692 174 CURVE SMOOTH",
"692 709 LINE SMOOTH",
"692 877 OFFCURVE",
"596 975 OFFCURVE",
"403 975 CURVE SMOOTH"
);
},
{
closed = 1;
nodes = (
"543 346 LINE",
"543 188 OFFCURVE",
"440 111 OFFCURVE",
"346 111 CURVE SMOOTH",
"262 111 OFFCURVE",
"217 147 OFFCURVE",
"217 256 CURVE SMOOTH",
"217 403 OFFCURVE",
"350 432 OFFCURVE",
"543 432 CURVE"
);
},
{
closed = 1;
nodes = (
"571 1309 LINE",
"567 1268 OFFCURVE",
"543 1253 OFFCURVE",
"510 1253 CURVE SMOOTH",
"440 1253 OFFCURVE",
"381 1309 OFFCURVE",
"303 1309 CURVE SMOOTH",
"195 1309 OFFCURVE",
"147 1204 OFFCURVE",
"147 1120 CURVE",
"254 1120 LINE",
"258 1163 OFFCURVE",
"283 1178 OFFCURVE",
"315 1178 CURVE SMOOTH",
"385 1178 OFFCURVE",
"444 1120 OFFCURVE",
"522 1120 CURVE SMOOTH",
"633 1120 OFFCURVE",
"678 1225 OFFCURVE",
"678 1309 CURVE"
);
}
);
width = 825;
}
);
unicode = 00E3;
},
{
glyphname = ae;
layers = (
{
anchors = (
{
name = top;
position = "{662, 952}";
}
);
layerId = "D4AD7B3F-884E-49D2-9CE4-555FBB692325";
name = Light;
paths = (
{
closed = 1;
nodes = (
"803 975 OFFCURVE",
"719 940 OFFCURVE",
"659 866 CURVE",
"614 936 OFFCURVE",
"530 975 OFFCURVE",
"414 975 CURVE SMOOTH",
"236 975 OFFCURVE",
"109 883 OFFCURVE",
"109 711 CURVE SMOOTH",
"109 694 OFFCURVE",
"109 680 OFFCURVE",
"111 670 CURVE",
"258 670 LINE",
"258 692 LINE SMOOTH",
"258 764 OFFCURVE",
"291 842 OFFCURVE",
"403 842 CURVE SMOOTH",
"524 842 OFFCURVE",
"555 778 OFFCURVE",
"555 688 CURVE SMOOTH",
"555 565 LINE",
"276 565 OFFCURVE",
"72 508 OFFCURVE",
"72 246 CURVE SMOOTH",
"72 16 OFFCURVE",
"231 -23 OFFCURVE",
"350 -23 CURVE SMOOTH",
"461 -23 OFFCURVE",
"557 35 OFFCURVE",
"625 123 CURVE",
"684 23 OFFCURVE",
"782 -23 OFFCURVE",
"913 -23 CURVE SMOOTH",
"1100 -23 OFFCURVE",
"1225 111 OFFCURVE",
"1225 324 CURVE",
"1079 324 LINE",
"1079 193 OFFCURVE",
"1012 111 OFFCURVE",
"918 111 CURVE SMOOTH",
"776 111 OFFCURVE",
"711 211 OFFCURVE",
"711 432 CURVE",
"1225 432 LINE",
"1225 526 LINE SMOOTH",
"1225 846 OFFCURVE",
"1120 975 OFFCURVE",
"913 975 CURVE SMOOTH"
);
},
{
closed = 1;
nodes = (
"555 332 LINE",
"555 182 OFFCURVE",
"451 111 OFFCURVE",
"356 111 CURVE SMOOTH",
"272 111 OFFCURVE",
"227 147 OFFCURVE",
"227 256 CURVE SMOOTH",
"227 403 OFFCURVE",
"360 432 OFFCURVE",
"555 432 CURVE"
);
},
{
closed = 1;
nodes = (
"1016 842 OFFCURVE",
"1069 745 OFFCURVE",
"1069 565 CURVE",
"711 565 LINE",
"725 748 OFFCURVE",
"780 842 OFFCURVE",
"913 842 CURVE SMOOTH"
);
}
);
width = 1319;
}
);
unicode = 00E6;
},
{
glyphname = aeacute;
layers = (
{
layerId = "D4AD7B3F-884E-49D2-9CE4-555FBB692325";
name = Light;
paths = (
{
closed = 1;
nodes = (
"803 975 OFFCURVE",
"719 940 OFFCURVE",
"659 866 CURVE",
"614 936 OFFCURVE",
"530 975 OFFCURVE",
"414 975 CURVE SMOOTH",
"236 975 OFFCURVE",
"109 883 OFFCURVE",
"109 711 CURVE SMOOTH",
"109 694 OFFCURVE",
"109 680 OFFCURVE",
"111 670 CURVE",
"258 670 LINE",
"258 692 LINE SMOOTH",
"258 764 OFFCURVE",
"291 842 OFFCURVE",
"403 842 CURVE SMOOTH",
"524 842 OFFCURVE",
"555 778 OFFCURVE",
"555 688 CURVE SMOOTH",
"555 565 LINE",
"276 565 OFFCURVE",
"72 508 OFFCURVE",
"72 246 CURVE SMOOTH",
"72 16 OFFCURVE",
"231 -23 OFFCURVE",
"350 -23 CURVE SMOOTH",
"461 -23 OFFCURVE",
"557 35 OFFCURVE",
"625 123 CURVE",
"684 23 OFFCURVE",
"782 -23 OFFCURVE",
"913 -23 CURVE SMOOTH",
"1100 -23 OFFCURVE",
"1225 111 OFFCURVE",
"1225 324 CURVE",
"1079 324 LINE",
"1079 193 OFFCURVE",
"1012 111 OFFCURVE",
"918 111 CURVE SMOOTH",
"776 111 OFFCURVE",
"711 211 OFFCURVE",
"711 432 CURVE",
"1225 432 LINE",
"1225 526 LINE SMOOTH",
"1225 846 OFFCURVE",
"1120 975 OFFCURVE",
"913 975 CURVE SMOOTH"
);
},
{
closed = 1;
nodes = (
"555 332 LINE",
"555 182 OFFCURVE",
"451 111 OFFCURVE",
"356 111 CURVE SMOOTH",
"272 111 OFFCURVE",
"227 147 OFFCURVE",
"227 256 CURVE SMOOTH",
"227 403 OFFCURVE",
"360 432 OFFCURVE",
"555 432 CURVE"
);
},
{
closed = 1;
nodes = (
"1016 842 OFFCURVE",
"1069 745 OFFCURVE",
"1069 565 CURVE",
"711 565 LINE",
"725 748 OFFCURVE",
"780 842 OFFCURVE",
"913 842 CURVE SMOOTH"
);
},
{
closed = 1;
nodes = (
"870 1309 LINE",
"709 1309 LINE",
"553 1069 LINE",
"678 1069 LINE",
"872 1303 LINE"
);
}
);
width = 1319;
}
);
unicode = 01FD;
},
{
glyphname = b;
layers = (
{
layerId = "D4AD7B3F-884E-49D2-9CE4-555FBB692325";
name = Light;
paths = (
{
closed = 1;
nodes = (
"258 1309 LINE",
"109 1309 LINE",
"109 0 LINE",
"221 0 LINE",
"242 111 LINE",
"250 111 LINE",
"295 23 OFFCURVE",
"371 -23 OFFCURVE",
"459 -23 CURVE SMOOTH",
"639 -23 OFFCURVE",
"754 129 OFFCURVE",
"754 477 CURVE SMOOTH",
"754 823 OFFCURVE",
"627 975 OFFCURVE",
"469 975 CURVE SMOOTH",
"377 975 OFFCURVE",
"299 932 OFFCURVE",
"266 862 CURVE",
"258 862 LINE"
);
},
{
closed = 1;
nodes = (
"541 842 OFFCURVE",
"598 748 OFFCURVE",
"598 510 CURVE SMOOTH",
"598 442 LINE SMOOTH",
"598 205 OFFCURVE",
"541 111 OFFCURVE",
"428 111 CURVE SMOOTH",
"313 111 OFFCURVE",
"258 223 OFFCURVE",
"258 442 CURVE SMOOTH",
"258 504 LINE SMOOTH",
"258 727 OFFCURVE",
"313 842 OFFCURVE",
"428 842 CURVE SMOOTH"
);
}
);
width = 825;
}
);
unicode = 0062;
},
{
glyphname = c;
layers = (
{
anchors = (
{
name = bottom;
position = "{371, 0}";
},
{
name = top;
position = "{371, 952}";
}
);
layerId = "D4AD7B3F-884E-49D2-9CE4-555FBB692325";
name = Light;
paths = (
{
closed = 1;
nodes = (
"168 975 OFFCURVE",
"66 819 OFFCURVE",
"66 475 CURVE SMOOTH",
"66 133 OFFCURVE",
"166 -23 OFFCURVE",
"391 -23 CURVE SMOOTH",
"600 -23 OFFCURVE",
"682 154 OFFCURVE",
"682 352 CURVE",
"537 352 LINE",
"537 195 OFFCURVE",
"498 111 OFFCURVE",
"391 111 CURVE SMOOTH",
"272 111 OFFCURVE",
"221 223 OFFCURVE",
"221 442 CURVE SMOOTH",
"221 510 LINE SMOOTH",
"221 729 OFFCURVE",
"272 842 OFFCURVE",
"391 842 CURVE SMOOTH",
"498 842 OFFCURVE",
"528 764 OFFCURVE",
"528 600 CURVE",
"682 600 LINE",
"682 842 OFFCURVE",
"598 975 OFFCURVE",
"391 975 CURVE SMOOTH"
);
}
);
width = 741;
}
);
unicode = 0063;
},
{
glyphname = cacute;
layers = (
{
layerId = "D4AD7B3F-884E-49D2-9CE4-555FBB692325";
name = Light;
paths = (
{
closed = 1;
nodes = (
"168 975 OFFCURVE",
"66 819 OFFCURVE",
"66 475 CURVE SMOOTH",
"66 133 OFFCURVE",
"166 -23 OFFCURVE",
"391 -23 CURVE SMOOTH",
"600 -23 OFFCURVE",
"682 154 OFFCURVE",
"682 352 CURVE",
"537 352 LINE",
"537 195 OFFCURVE",
"498 111 OFFCURVE",
"391 111 CURVE SMOOTH",
"272 111 OFFCURVE",
"221 223 OFFCURVE",
"221 442 CURVE SMOOTH",
"221 510 LINE SMOOTH",
"221 729 OFFCURVE",
"272 842 OFFCURVE",
"391 842 CURVE SMOOTH",
"498 842 OFFCURVE",
"528 764 OFFCURVE",
"528 600 CURVE",
"682 600 LINE",
"682 842 OFFCURVE",
"598 975 OFFCURVE",
"391 975 CURVE SMOOTH"
);
},
{
closed = 1;
nodes = (
"600 1309 LINE",
"436 1309 LINE",
"281 1069 LINE",
"408 1069 LINE",
"600 1303 LINE"
);
}
);
width = 741;
}
);
unicode = 0107;
},
{
glyphname = ccaron;
layers = (
{
layerId = "D4AD7B3F-884E-49D2-9CE4-555FBB692325";
name = Light;
paths = (
{
closed = 1;
nodes = (
"168 975 OFFCURVE",
"66 819 OFFCURVE",
"66 475 CURVE SMOOTH",
"66 133 OFFCURVE",
"166 -23 OFFCURVE",
"391 -23 CURVE SMOOTH",
"600 -23 OFFCURVE",
"682 154 OFFCURVE",
"682 352 CURVE",
"537 352 LINE",
"537 195 OFFCURVE",
"498 111 OFFCURVE",
"391 111 CURVE SMOOTH",
"272 111 OFFCURVE",
"221 223 OFFCURVE",
"221 442 CURVE SMOOTH",
"221 510 LINE SMOOTH",
"221 729 OFFCURVE",
"272 842 OFFCURVE",
"391 842 CURVE SMOOTH",
"498 842 OFFCURVE",
"528 764 OFFCURVE",
"528 600 CURVE",
"682 600 LINE",
"682 842 OFFCURVE",
"598 975 OFFCURVE",
"391 975 CURVE SMOOTH"
);
},
{
closed = 1;
nodes = (
"442 1065 LINE",
"598 1309 LINE",
"453 1309 LINE",
"371 1165 LINE",
"291 1309 LINE",
"147 1309 LINE",
"301 1065 LINE"
);
}
);
width = 741;
}
);
unicode = 010D;
},
{
glyphname = ccedilla;
layers = (
{
layerId = "D4AD7B3F-884E-49D2-9CE4-555FBB692325";
name = Light;
paths = (
{
closed = 1;
nodes = (
"168 975 OFFCURVE",
"66 819 OFFCURVE",
"66 475 CURVE SMOOTH",
"66 182 OFFCURVE",
"139 27 OFFCURVE",
"303 -10 CURVE",
"283 -139 LINE",
"342 -139 LINE SMOOTH",
"389 -139 OFFCURVE",
"403 -154 OFFCURVE",
"403 -182 CURVE SMOOTH",
"403 -217 OFFCURVE",
"379 -227 OFFCURVE",
"338 -227 CURVE SMOOTH",
"201 -227 LINE",
"201 -315 LINE",
"244 -324 OFFCURVE",
"303 -330 OFFCURVE",
"352 -330 CURVE SMOOTH",
"428 -330 OFFCURVE",
"541 -305 OFFCURVE",
"541 -182 CURVE SMOOTH",
"541 -100 OFFCURVE",
"473 -70 OFFCURVE",
"395 -66 CURVE",
"399 -23 LINE",
"602 -16 OFFCURVE",
"682 158 OFFCURVE",
"682 352 CURVE",
"537 352 LINE",
"537 195 OFFCURVE",
"498 111 OFFCURVE",
"391 111 CURVE SMOOTH",
"272 111 OFFCURVE",
"221 223 OFFCURVE",
"221 442 CURVE SMOOTH",
"221 510 LINE SMOOTH",
"221 729 OFFCURVE",
"272 842 OFFCURVE",
"391 842 CURVE SMOOTH",
"498 842 OFFCURVE",
"528 764 OFFCURVE",
"528 600 CURVE",
"682 600 LINE",
"682 842 OFFCURVE",
"598 975 OFFCURVE",
"391 975 CURVE SMOOTH"
);
}
);
width = 741;
}
);
unicode = 00E7;
},
{
glyphname = ccircumflex;
layers = (
{
layerId = "D4AD7B3F-884E-49D2-9CE4-555FBB692325";
name = Light;
paths = (
{
closed = 1;
nodes = (
"168 975 OFFCURVE",
"66 819 OFFCURVE",
"66 475 CURVE SMOOTH",
"66 133 OFFCURVE",
"166 -23 OFFCURVE",
"391 -23 CURVE SMOOTH",
"600 -23 OFFCURVE",
"682 154 OFFCURVE",
"682 352 CURVE",
"537 352 LINE",
"537 195 OFFCURVE",
"498 111 OFFCURVE",
"391 111 CURVE SMOOTH",
"272 111 OFFCURVE",
"221 223 OFFCURVE",
"221 442 CURVE SMOOTH",
"221 510 LINE SMOOTH",
"221 729 OFFCURVE",
"272 842 OFFCURVE",
"391 842 CURVE SMOOTH",
"498 842 OFFCURVE",
"528 764 OFFCURVE",
"528 600 CURVE",
"682 600 LINE",
"682 842 OFFCURVE",
"598 975 OFFCURVE",
"391 975 CURVE SMOOTH"
);
},
{
closed = 1;
nodes = (
"598 1063 LINE",
"444 1307 LINE",
"303 1307 LINE",
"147 1063 LINE",
"291 1063 LINE",
"373 1206 LINE",
"453 1063 LINE"
);
}
);
width = 741;
}
);
unicode = 0109;
},
{
glyphname = cdotaccent;
layers = (
{
layerId = "D4AD7B3F-884E-49D2-9CE4-555FBB692325";
name = Light;
paths = (
{
closed = 1;
nodes = (
"168 975 OFFCURVE",
"66 819 OFFCURVE",
"66 475 CURVE SMOOTH",
"66 133 OFFCURVE",
"166 -23 OFFCURVE",
"391 -23 CURVE SMOOTH",
"600 -23 OFFCURVE",
"682 154 OFFCURVE",
"682 352 CURVE",
"537 352 LINE",
"537 195 OFFCURVE",
"498 111 OFFCURVE",
"391 111 CURVE SMOOTH",
"272 111 OFFCURVE",
"221 223 OFFCURVE",
"221 442 CURVE SMOOTH",
"221 510 LINE SMOOTH",
"221 729 OFFCURVE",
"272 842 OFFCURVE",
"391 842 CURVE SMOOTH",
"498 842 OFFCURVE",
"528 764 OFFCURVE",
"528 600 CURVE",
"682 600 LINE",
"682 842 OFFCURVE",
"598 975 OFFCURVE",
"391 975 CURVE SMOOTH"
);
},
{
closed = 1;
nodes = (
"451 1137 LINE",
"451 1309 LINE",
"293 1309 LINE",
"293 1137 LINE"
);
}
);
width = 741;
}
);
unicode = 010B;
},
{
glyphname = d;
layers = (
{
anchors = (
{
name = center;
position = "{414, 475}";
}
);
layerId = "D4AD7B3F-884E-49D2-9CE4-555FBB692325";
name = Light;
paths = (
{
closed = 1;
nodes = (
"717 0 LINE",
"717 1309 LINE",
"569 1309 LINE",
"569 862 LINE",
"559 862 LINE",
"526 932 OFFCURVE",
"449 975 OFFCURVE",
"356 975 CURVE SMOOTH",
"199 975 OFFCURVE",
"72 823 OFFCURVE",
"72 477 CURVE SMOOTH",
"72 129 OFFCURVE",
"186 -23 OFFCURVE",
"367 -23 CURVE SMOOTH",
"455 -23 OFFCURVE",
"530 23 OFFCURVE",
"575 111 CURVE",
"586 111 LINE",
"604 0 LINE"
);
},
{
closed = 1;
nodes = (
"512 842 OFFCURVE",
"569 727 OFFCURVE",
"569 504 CURVE SMOOTH",
"569 442 LINE SMOOTH",
"569 223 OFFCURVE",
"512 111 OFFCURVE",
"397 111 CURVE SMOOTH",
"285 111 OFFCURVE",
"227 205 OFFCURVE",
"227 442 CURVE SMOOTH",
"227 510 LINE SMOOTH",
"227 748 OFFCURVE",
"285 842 OFFCURVE",
"397 842 CURVE SMOOTH"
);
}
);
width = 825;
}
);
unicode = 0064;
},
{
glyphname = eth;
layers = (
{
layerId = "D4AD7B3F-884E-49D2-9CE4-555FBB692325";
name = Light;
paths = (
{
closed = 1;
nodes = (
"215 1309 LINE",
"211 1303 LINE",
"242 1270 OFFCURVE",
"270 1237 OFFCURVE",
"297 1206 CURVE",
"168 1194 LINE",
"168 1085 LINE",
"383 1104 LINE",
"422 1051 OFFCURVE",
"459 999 OFFCURVE",
"487 944 CURVE",
"492 948 LINE",
"461 963 OFFCURVE",
"430 975 OFFCURVE",
"393 975 CURVE SMOOTH",
"207 975 OFFCURVE",
"72 827 OFFCURVE",
"72 475 CURVE SMOOTH",
"72 133 OFFCURVE",
"190 -23 OFFCURVE",
"414 -23 CURVE SMOOTH",
"635 -23 OFFCURVE",
"754 133 OFFCURVE",
"754 475 CURVE SMOOTH",
"754 739 OFFCURVE",
"668 944 OFFCURVE",
"539 1118 CURVE",
"668 1130 LINE",
"668 1241 LINE",
"457 1221 LINE",
"430 1251 OFFCURVE",
"401 1280 OFFCURVE",
"375 1309 CURVE"
);
},
{
closed = 1;
nodes = (
"535 842 OFFCURVE",
"598 729 OFFCURVE",
"598 510 CURVE SMOOTH",
"598 442 LINE SMOOTH",
"598 223 OFFCURVE",
"537 111 OFFCURVE",
"414 111 CURVE SMOOTH",
"289 111 OFFCURVE",
"227 223 OFFCURVE",
"227 442 CURVE SMOOTH",
"227 510 LINE SMOOTH",
"227 729 OFFCURVE",
"289 842 OFFCURVE",
"414 842 CURVE SMOOTH"
);
}
);
width = 825;
}
);
unicode = 00F0;
},
{
glyphname = dcaron;
layers = (
{
layerId = "D4AD7B3F-884E-49D2-9CE4-555FBB692325";
name = Light;
paths = (
{
closed = 1;
nodes = (
"717 0 LINE",
"717 1309 LINE",
"569 1309 LINE",
"569 862 LINE",
"559 862 LINE",
"526 932 OFFCURVE",
"449 975 OFFCURVE",
"356 975 CURVE SMOOTH",
"199 975 OFFCURVE",
"72 823 OFFCURVE",
"72 477 CURVE SMOOTH",
"72 129 OFFCURVE",
"186 -23 OFFCURVE",
"367 -23 CURVE SMOOTH",
"455 -23 OFFCURVE",
"530 23 OFFCURVE",
"575 111 CURVE",
"586 111 LINE",
"604 0 LINE"
);
},
{
closed = 1;
nodes = (
"512 842 OFFCURVE",
"569 727 OFFCURVE",
"569 504 CURVE SMOOTH",
"569 442 LINE SMOOTH",
"569 223 OFFCURVE",
"512 111 OFFCURVE",
"397 111 CURVE SMOOTH",
"285 111 OFFCURVE",
"227 205 OFFCURVE",
"227 442 CURVE SMOOTH",
"227 510 LINE SMOOTH",
"227 748 OFFCURVE",
"285 842 OFFCURVE",
"397 842 CURVE SMOOTH"
);
},
{
closed = 1;
nodes = (
"971 1063 LINE",
"971 1241 LINE",
"788 1241 LINE",
"788 1047 LINE",
"862 1047 LINE",
"788 821 LINE",
"883 821 LINE"
);
}
);
width = 913;
}
);
unicode = 010F;
},
{
glyphname = dcroat;
layers = (
{
layerId = "D4AD7B3F-884E-49D2-9CE4-555FBB692325";
name = Light;
paths = (
{
closed = 1;
nodes = (
"717 1309 LINE",
"569 1309 LINE",
"569 1178 LINE",
"367 1178 LINE",
"367 1055 LINE",
"569 1055 LINE",
"569 862 LINE",
"559 862 LINE",
"526 932 OFFCURVE",
"449 975 OFFCURVE",
"356 975 CURVE SMOOTH",
"199 975 OFFCURVE",
"72 823 OFFCURVE",
"72 477 CURVE SMOOTH",
"72 129 OFFCURVE",
"186 -23 OFFCURVE",
"367 -23 CURVE SMOOTH",
"455 -23 OFFCURVE",
"530 23 OFFCURVE",
"575 111 CURVE",
"586 111 LINE",
"604 0 LINE",
"717 0 LINE",
"717 1055 LINE",
"821 1055 LINE",
"821 1178 LINE",
"717 1178 LINE"
);
},
{
closed = 1;
nodes = (
"512 842 OFFCURVE",
"569 727 OFFCURVE",
"569 504 CURVE SMOOTH",
"569 442 LINE SMOOTH",
"569 223 OFFCURVE",
"512 111 OFFCURVE",
"397 111 CURVE SMOOTH",
"285 111 OFFCURVE",
"227 205 OFFCURVE",
"227 442 CURVE SMOOTH",
"227 510 LINE SMOOTH",
"227 748 OFFCURVE",
"285 842 OFFCURVE",
"397 842 CURVE SMOOTH"
);
}
);
width = 819;
}
);
unicode = 0111;
},
{
glyphname = e;
layers = (
{
anchors = (
{
name = bottom;
position = "{414, 0}";
},
{
name = ogonek;
position = "{741, 18}";
},
{
name = top;
position = "{414, 952}";
}
);
layerId = "D4AD7B3F-884E-49D2-9CE4-555FBB692325";
name = Light;
paths = (
{
closed = 1;
nodes = (
"195 975 OFFCURVE",
"76 819 OFFCURVE",
"76 475 CURVE SMOOTH",
"76 123 OFFCURVE",
"199 -23 OFFCURVE",
"436 -23 CURVE SMOOTH",
"621 -23 OFFCURVE",
"748 111 OFFCURVE",
"748 324 CURVE",
"600 324 LINE",
"600 193 OFFCURVE",
"535 111 OFFCURVE",
"440 111 CURVE SMOOTH",
"299 111 OFFCURVE",
"233 211 OFFCURVE",
"231 432 CURVE",
"748 432 LINE",
"748 526 LINE SMOOTH",
"748 846 OFFCURVE",
"643 975 OFFCURVE",
"434 975 CURVE SMOOTH"
);
},
{
closed = 1;
nodes = (
"539 842 OFFCURVE",
"592 745 OFFCURVE",
"592 565 CURVE",
"233 565 LINE",
"246 748 OFFCURVE",
"303 842 OFFCURVE",
"434 842 CURVE SMOOTH"
);
}
);
width = 825;
}
);
unicode = 0065;
},
{
glyphname = eacute;
layers = (
{
layerId = "D4AD7B3F-884E-49D2-9CE4-555FBB692325";
name = Light;
paths = (
{
closed = 1;
nodes = (
"195 975 OFFCURVE",
"76 819 OFFCURVE",
"76 475 CURVE SMOOTH",
"76 123 OFFCURVE",
"199 -23 OFFCURVE",
"436 -23 CURVE SMOOTH",
"621 -23 OFFCURVE",
"748 111 OFFCURVE",
"748 324 CURVE",
"600 324 LINE",
"600 193 OFFCURVE",
"535 111 OFFCURVE",
"440 111 CURVE SMOOTH",
"299 111 OFFCURVE",
"233 211 OFFCURVE",
"231 432 CURVE",
"748 432 LINE",
"748 526 LINE SMOOTH",
"748 846 OFFCURVE",
"643 975 OFFCURVE",
"434 975 CURVE SMOOTH"
);
},
{
closed = 1;
nodes = (
"539 842 OFFCURVE",
"592 745 OFFCURVE",
"592 565 CURVE",
"233 565 LINE",
"246 748 OFFCURVE",
"303 842 OFFCURVE",
"434 842 CURVE SMOOTH"
);
},
{
closed = 1;
nodes = (
"645 1309 LINE",
"481 1309 LINE",
"326 1069 LINE",
"453 1069 LINE",
"647 1303 LINE"
);
}
);
width = 825;
}
);
unicode = 00E9;
},
{
glyphname = ebreve;
layers = (
{
layerId = "D4AD7B3F-884E-49D2-9CE4-555FBB692325";
name = Light;
paths = (
{
closed = 1;
nodes = (
"195 975 OFFCURVE",
"76 819 OFFCURVE",
"76 475 CURVE SMOOTH",
"76 123 OFFCURVE",
"199 -23 OFFCURVE",
"436 -23 CURVE SMOOTH",
"621 -23 OFFCURVE",
"748 111 OFFCURVE",
"748 324 CURVE",
"600 324 LINE",
"600 193 OFFCURVE",
"535 111 OFFCURVE",
"440 111 CURVE SMOOTH",
"299 111 OFFCURVE",
"233 211 OFFCURVE",
"231 432 CURVE",
"748 432 LINE",
"748 526 LINE SMOOTH",
"748 846 OFFCURVE",
"643 975 OFFCURVE",
"434 975 CURVE SMOOTH"
);
},
{
closed = 1;
nodes = (
"539 842 OFFCURVE",
"592 745 OFFCURVE",
"592 565 CURVE",
"233 565 LINE",
"246 748 OFFCURVE",
"303 842 OFFCURVE",
"434 842 CURVE SMOOTH"
);
},
{
closed = 1;
nodes = (
"522 1309 LINE",
"518 1284 OFFCURVE",
"475 1249 OFFCURVE",
"414 1249 CURVE SMOOTH",
"350 1249 OFFCURVE",
"311 1284 OFFCURVE",
"305 1309 CURVE",
"188 1309 LINE",
"188 1227 OFFCURVE",
"274 1133 OFFCURVE",
"414 1133 CURVE SMOOTH",
"553 1133 OFFCURVE",
"637 1227 OFFCURVE",
"637 1309 CURVE"
);
}
);
width = 825;
}
);
unicode = 0115;
},
{
glyphname = ecaron;
layers = (
{
layerId = "D4AD7B3F-884E-49D2-9CE4-555FBB692325";
name = Light;
paths = (
{
closed = 1;
nodes = (
"195 975 OFFCURVE",
"76 819 OFFCURVE",
"76 475 CURVE SMOOTH",
"76 123 OFFCURVE",
"199 -23 OFFCURVE",
"436 -23 CURVE SMOOTH",
"621 -23 OFFCURVE",
"748 111 OFFCURVE",
"748 324 CURVE",
"600 324 LINE",
"600 193 OFFCURVE",
"535 111 OFFCURVE",
"440 111 CURVE SMOOTH",
"299 111 OFFCURVE",
"233 211 OFFCURVE",
"231 432 CURVE",
"748 432 LINE",
"748 526 LINE SMOOTH",
"748 846 OFFCURVE",
"643 975 OFFCURVE",
"434 975 CURVE SMOOTH"
);
},
{
closed = 1;
nodes = (
"539 842 OFFCURVE",
"592 745 OFFCURVE",
"592 565 CURVE",
"233 565 LINE",
"246 748 OFFCURVE",
"303 842 OFFCURVE",
"434 842 CURVE SMOOTH"
);
},
{
closed = 1;
nodes = (
"483 1065 LINE",
"639 1309 LINE",
"494 1309 LINE",
"414 1165 LINE",
"334 1309 LINE",
"188 1309 LINE",
"340 1065 LINE"
);
}
);
width = 825;
}
);
unicode = 011B;
},
{
glyphname = ecircumflex;
layers = (
{
layerId = "D4AD7B3F-884E-49D2-9CE4-555FBB692325";
name = Light;
paths = (
{
closed = 1;
nodes = (
"195 975 OFFCURVE",
"76 819 OFFCURVE",
"76 475 CURVE SMOOTH",
"76 123 OFFCURVE",
"199 -23 OFFCURVE",
"436 -23 CURVE SMOOTH",
"621 -23 OFFCURVE",
"748 111 OFFCURVE",
"748 324 CURVE",
"600 324 LINE",
"600 193 OFFCURVE",
"535 111 OFFCURVE",
"440 111 CURVE SMOOTH",
"299 111 OFFCURVE",
"233 211 OFFCURVE",
"231 432 CURVE",
"748 432 LINE",
"748 526 LINE SMOOTH",
"748 846 OFFCURVE",
"643 975 OFFCURVE",
"434 975 CURVE SMOOTH"
);
},
{
closed = 1;
nodes = (
"539 842 OFFCURVE",
"592 745 OFFCURVE",
"592 565 CURVE",
"233 565 LINE",
"246 748 OFFCURVE",
"303 842 OFFCURVE",
"434 842 CURVE SMOOTH"
);
},
{
closed = 1;
nodes = (
"639 1063 LINE",
"485 1307 LINE",
"342 1307 LINE",
"188 1063 LINE",
"334 1063 LINE",
"414 1206 LINE",
"494 1063 LINE"
);
}
);
width = 825;
}
);
unicode = 00EA;
},
{
glyphname = edieresis;
layers = (
{
layerId = "D4AD7B3F-884E-49D2-9CE4-555FBB692325";
name = Light;
paths = (
{
closed = 1;
nodes = (
"195 975 OFFCURVE",
"76 819 OFFCURVE",
"76 475 CURVE SMOOTH",
"76 123 OFFCURVE",
"199 -23 OFFCURVE",
"436 -23 CURVE SMOOTH",
"621 -23 OFFCURVE",
"748 111 OFFCURVE",
"748 324 CURVE",
"600 324 LINE",
"600 193 OFFCURVE",
"535 111 OFFCURVE",
"440 111 CURVE SMOOTH",
"299 111 OFFCURVE",
"233 211 OFFCURVE",
"231 432 CURVE",
"748 432 LINE",
"748 526 LINE SMOOTH",
"748 846 OFFCURVE",
"643 975 OFFCURVE",
"434 975 CURVE SMOOTH"
);
},
{
closed = 1;
nodes = (
"539 842 OFFCURVE",
"592 745 OFFCURVE",
"592 565 CURVE",
"233 565 LINE",
"246 748 OFFCURVE",
"303 842 OFFCURVE",
"434 842 CURVE SMOOTH"
);
},
{
closed = 1;
nodes = (
"354 1309 LINE",
"197 1309 LINE",
"197 1137 LINE",
"354 1137 LINE"
);
},
{
closed = 1;
nodes = (
"629 1309 LINE",
"469 1309 LINE",
"469 1137 LINE",
"629 1137 LINE"
);
}
);
width = 825;
}
);
unicode = 00EB;
},
{
glyphname = edotaccent;
layers = (
{
layerId = "D4AD7B3F-884E-49D2-9CE4-555FBB692325";
name = Light;
paths = (
{
closed = 1;
nodes = (
"195 975 OFFCURVE",
"76 819 OFFCURVE",
"76 475 CURVE SMOOTH",
"76 123 OFFCURVE",
"199 -23 OFFCURVE",
"436 -23 CURVE SMOOTH",
"621 -23 OFFCURVE",
"748 111 OFFCURVE",
"748 324 CURVE",
"600 324 LINE",
"600 193 OFFCURVE",
"535 111 OFFCURVE",
"440 111 CURVE SMOOTH",
"299 111 OFFCURVE",
"233 211 OFFCURVE",
"231 432 CURVE",
"748 432 LINE",
"748 526 LINE SMOOTH",
"748 846 OFFCURVE",
"643 975 OFFCURVE",
"434 975 CURVE SMOOTH"
);
},
{
closed = 1;
nodes = (
"539 842 OFFCURVE",
"592 745 OFFCURVE",
"592 565 CURVE",
"233 565 LINE",
"246 748 OFFCURVE",
"303 842 OFFCURVE",
"434 842 CURVE SMOOTH"
);
},
{
closed = 1;
nodes = (
"492 1137 LINE",
"492 1309 LINE",
"336 1309 LINE",
"336 1137 LINE"
);
}
);
width = 825;
}
);
unicode = 0117;
},
{
glyphname = egrave;
layers = (
{
layerId = "D4AD7B3F-884E-49D2-9CE4-555FBB692325";
name = Light;
paths = (
{
closed = 1;
nodes = (
"195 975 OFFCURVE",
"76 819 OFFCURVE",
"76 475 CURVE SMOOTH",
"76 123 OFFCURVE",
"199 -23 OFFCURVE",
"436 -23 CURVE SMOOTH",
"621 -23 OFFCURVE",
"748 111 OFFCURVE",
"748 324 CURVE",
"600 324 LINE",
"600 193 OFFCURVE",
"535 111 OFFCURVE",
"440 111 CURVE SMOOTH",
"299 111 OFFCURVE",
"233 211 OFFCURVE",
"231 432 CURVE",
"748 432 LINE",
"748 526 LINE SMOOTH",
"748 846 OFFCURVE",
"643 975 OFFCURVE",
"434 975 CURVE SMOOTH"
);
},
{
closed = 1;
nodes = (
"539 842 OFFCURVE",
"592 745 OFFCURVE",
"592 565 CURVE",
"233 565 LINE",
"246 748 OFFCURVE",
"303 842 OFFCURVE",
"434 842 CURVE SMOOTH"
);
},
{
closed = 1;
nodes = (
"385 1309 LINE",
"223 1309 LINE",
"221 1303 LINE",
"416 1069 LINE",
"541 1069 LINE"
);
}
);
width = 825;
}
);
unicode = 00E8;
},
{
glyphname = emacron;
layers = (
{
layerId = "D4AD7B3F-884E-49D2-9CE4-555FBB692325";
name = Light;
paths = (
{
closed = 1;
nodes = (
"195 975 OFFCURVE",
"76 819 OFFCURVE",
"76 475 CURVE SMOOTH",
"76 123 OFFCURVE",
"199 -23 OFFCURVE",
"436 -23 CURVE SMOOTH",
"621 -23 OFFCURVE",
"748 111 OFFCURVE",
"748 324 CURVE",
"600 324 LINE",
"600 193 OFFCURVE",
"535 111 OFFCURVE",
"440 111 CURVE SMOOTH",
"299 111 OFFCURVE",
"233 211 OFFCURVE",
"231 432 CURVE",
"748 432 LINE",
"748 526 LINE SMOOTH",
"748 846 OFFCURVE",
"643 975 OFFCURVE",
"434 975 CURVE SMOOTH"
);
},
{
closed = 1;
nodes = (
"539 842 OFFCURVE",
"592 745 OFFCURVE",
"592 565 CURVE",
"233 565 LINE",
"246 748 OFFCURVE",
"303 842 OFFCURVE",
"434 842 CURVE SMOOTH"
);
},
{
closed = 1;
nodes = (
"641 1085 LINE",
"641 1214 LINE",
"186 1214 LINE",
"186 1085 LINE"
);
}
);
width = 825;
}
);
unicode = 0113;
},
{
glyphname = eogonek;
layers = (
{
layerId = "D4AD7B3F-884E-49D2-9CE4-555FBB692325";
name = Light;
paths = (
{
closed = 1;
nodes = (
"195 975 OFFCURVE",
"76 819 OFFCURVE",
"76 475 CURVE SMOOTH",
"76 123 OFFCURVE",
"199 -23 OFFCURVE",
"436 -23 CURVE SMOOTH",
"461 -23 OFFCURVE",
"477 -20 OFFCURVE",
"500 -16 CURVE",
"467 8 LINE",
"424 -35 OFFCURVE",
"391 -86 OFFCURVE",
"391 -166 CURVE SMOOTH",
"391 -291 OFFCURVE",
"483 -330 OFFCURVE",
"561 -330 CURVE SMOOTH",
"598 -330 OFFCURVE",
"633 -319 OFFCURVE",
"672 -305 CURVE",
"672 -211 LINE",
"614 -211 LINE SMOOTH",
"555 -211 OFFCURVE",
"532 -164 OFFCURVE",
"532 -113 CURVE SMOOTH",
"532 -61 OFFCURVE",
"563 -12 OFFCURVE",
"586 12 CURVE",
"684 66 OFFCURVE",
"748 174 OFFCURVE",
"748 324 CURVE",
"600 324 LINE",
"600 193 OFFCURVE",
"535 111 OFFCURVE",
"440 111 CURVE SMOOTH",
"299 111 OFFCURVE",
"233 211 OFFCURVE",
"231 432 CURVE",
"748 432 LINE",
"748 526 LINE SMOOTH",
"748 846 OFFCURVE",
"643 975 OFFCURVE",
"434 975 CURVE SMOOTH"
);
},
{
closed = 1;
nodes = (
"539 842 OFFCURVE",
"592 745 OFFCURVE",
"592 565 CURVE",
"233 565 LINE",
"246 748 OFFCURVE",
"303 842 OFFCURVE",
"434 842 CURVE SMOOTH"
);
}
);
width = 825;
}
);
unicode = 0119;
},
{
glyphname = f;
layers = (
{
layerId = "D4AD7B3F-884E-49D2-9CE4-555FBB692325";
name = Light;
paths = (
{
closed = 1;
nodes = (
"143 1323 OFFCURVE",
"100 1212 OFFCURVE",
"100 1104 CURVE SMOOTH",
"100 952 LINE",
"16 952 LINE",
"16 819 LINE",
"100 819 LINE",
"100 0 LINE",
"248 0 LINE",
"248 819 LINE",
"414 819 LINE",
"414 952 LINE",
"248 952 LINE",
"248 1112 LINE SMOOTH",
"248 1167 OFFCURVE",
"276 1198 OFFCURVE",
"334 1198 CURVE SMOOTH",
"414 1198 LINE",
"414 1303 LINE",
"383 1313 OFFCURVE",
"332 1323 OFFCURVE",
"289 1323 CURVE SMOOTH"
);
}
);
width = 414;
}
);
unicode = 0066;
},
{
glyphname = g;
layers = (
{
anchors = (
{
name = top;
position = "{414, 952}";
}
);
layerId = "D4AD7B3F-884E-49D2-9CE4-555FBB692325";
name = Light;
paths = (
{
closed = 1;
nodes = (
"659 1106 LINE",
"649 1047 OFFCURVE",
"627 985 OFFCURVE",
"541 940 CURVE",
"502 961 OFFCURVE",
"453 975 OFFCURVE",
"403 975 CURVE SMOOTH",
"211 975 OFFCURVE",
"92 852 OFFCURVE",
"92 653 CURVE SMOOTH",
"92 547 OFFCURVE",
"133 463 OFFCURVE",
"203 408 CURVE",
"123 379 OFFCURVE",
"70 319 OFFCURVE",
"70 242 CURVE SMOOTH",
"70 186 OFFCURVE",
"98 131 OFFCURVE",
"147 100 CURVE",
"70 70 OFFCURVE",
"23 -10 OFFCURVE",
"23 -102 CURVE SMOOTH",
"23 -227 OFFCURVE",
"102 -330 OFFCURVE",
"258 -330 CURVE SMOOTH",
"528 -330 LINE SMOOTH",
"711 -330 OFFCURVE",
"807 -211 OFFCURVE",
"807 -59 CURVE SMOOTH",
"807 61 OFFCURVE",
"721 164 OFFCURVE",
"584 164 CURVE SMOOTH",
"311 164 LINE SMOOTH",
"264 164 OFFCURVE",
"225 201 OFFCURVE",
"225 248 CURVE SMOOTH",
"225 295 OFFCURVE",
"262 334 OFFCURVE",
"311 334 CURVE SMOOTH",
"412 334 LINE SMOOTH",
"596 336 OFFCURVE",
"715 457 OFFCURVE",
"715 653 CURVE SMOOTH",
"715 748 OFFCURVE",
"682 823 OFFCURVE",
"631 879 CURVE",
"729 903 OFFCURVE",
"788 991 OFFCURVE",
"788 1106 CURVE"
);
},
{
closed = 1;
nodes = (
"545 23 LINE",
"621 23 OFFCURVE",
"657 -27 OFFCURVE",
"657 -88 CURVE SMOOTH",
"657 -150 OFFCURVE",
"608 -201 OFFCURVE",
"545 -201 CURVE SMOOTH",
"283 -201 LINE SMOOTH",
"209 -201 OFFCURVE",
"172 -150 OFFCURVE",
"172 -88 CURVE SMOOTH",
"172 -27 OFFCURVE",
"207 23 OFFCURVE",
"283 23 CURVE SMOOTH"
);
},
{
closed = 1;
nodes = (
"508 850 OFFCURVE",
"565 780 OFFCURVE",
"565 653 CURVE SMOOTH",
"565 532 OFFCURVE",
"508 457 OFFCURVE",
"401 457 CURVE SMOOTH",
"297 457 OFFCURVE",
"242 526 OFFCURVE",
"242 653 CURVE SMOOTH",
"242 774 OFFCURVE",
"297 850 OFFCURVE",
"401 850 CURVE SMOOTH"
);
}
);
width = 825;
}
);
unicode = 0067;
},
{
glyphname = gbreve;
layers = (
{
layerId = "D4AD7B3F-884E-49D2-9CE4-555FBB692325";
name = Light;
paths = (
{
closed = 1;
nodes = (
"659 1106 LINE",
"649 1047 OFFCURVE",
"627 985 OFFCURVE",
"541 940 CURVE",
"502 961 OFFCURVE",
"453 975 OFFCURVE",
"403 975 CURVE SMOOTH",
"211 975 OFFCURVE",
"92 852 OFFCURVE",
"92 653 CURVE SMOOTH",
"92 547 OFFCURVE",
"133 463 OFFCURVE",
"203 408 CURVE",
"123 379 OFFCURVE",
"70 319 OFFCURVE",
"70 242 CURVE SMOOTH",
"70 186 OFFCURVE",
"98 131 OFFCURVE",
"147 100 CURVE",
"70 70 OFFCURVE",
"23 -10 OFFCURVE",
"23 -102 CURVE SMOOTH",
"23 -227 OFFCURVE",
"102 -330 OFFCURVE",
"258 -330 CURVE SMOOTH",
"528 -330 LINE SMOOTH",
"711 -330 OFFCURVE",
"807 -211 OFFCURVE",
"807 -59 CURVE SMOOTH",
"807 61 OFFCURVE",
"721 164 OFFCURVE",
"584 164 CURVE SMOOTH",
"311 164 LINE SMOOTH",
"264 164 OFFCURVE",
"225 201 OFFCURVE",
"225 248 CURVE SMOOTH",
"225 295 OFFCURVE",
"262 334 OFFCURVE",
"311 334 CURVE SMOOTH",
"412 334 LINE SMOOTH",
"596 336 OFFCURVE",
"715 457 OFFCURVE",
"715 653 CURVE SMOOTH",
"715 748 OFFCURVE",
"682 823 OFFCURVE",
"631 879 CURVE",
"729 903 OFFCURVE",
"788 991 OFFCURVE",
"788 1106 CURVE"
);
},
{
closed = 1;
nodes = (
"545 23 LINE",
"621 23 OFFCURVE",
"657 -27 OFFCURVE",
"657 -88 CURVE SMOOTH",
"657 -150 OFFCURVE",
"608 -201 OFFCURVE",
"545 -201 CURVE SMOOTH",
"283 -201 LINE SMOOTH",
"209 -201 OFFCURVE",
"172 -150 OFFCURVE",
"172 -88 CURVE SMOOTH",
"172 -27 OFFCURVE",
"207 23 OFFCURVE",
"283 23 CURVE SMOOTH"
);
},
{
closed = 1;
nodes = (
"508 850 OFFCURVE",
"565 780 OFFCURVE",
"565 653 CURVE SMOOTH",
"565 532 OFFCURVE",
"508 457 OFFCURVE",
"401 457 CURVE SMOOTH",
"297 457 OFFCURVE",
"242 526 OFFCURVE",
"242 653 CURVE SMOOTH",
"242 774 OFFCURVE",
"297 850 OFFCURVE",
"401 850 CURVE SMOOTH"
);
},
{
closed = 1;
nodes = (
"522 1309 LINE",
"518 1284 OFFCURVE",
"475 1249 OFFCURVE",
"414 1249 CURVE SMOOTH",
"350 1249 OFFCURVE",
"311 1284 OFFCURVE",
"305 1309 CURVE",
"188 1309 LINE",
"188 1227 OFFCURVE",
"274 1133 OFFCURVE",
"414 1133 CURVE SMOOTH",
"553 1133 OFFCURVE",
"637 1227 OFFCURVE",
"637 1309 CURVE"
);
}
);
width = 825;
}
);
unicode = 011F;
},
{
glyphname = gcircumflex;
layers = (
{
layerId = "D4AD7B3F-884E-49D2-9CE4-555FBB692325";
name = Light;
paths = (
{
closed = 1;
nodes = (
"668 1106 LINE",
"664 1020 OFFCURVE",
"633 985 OFFCURVE",
"541 940 CURVE",
"502 961 OFFCURVE",
"453 975 OFFCURVE",
"403 975 CURVE SMOOTH",
"211 975 OFFCURVE",
"92 852 OFFCURVE",
"92 653 CURVE SMOOTH",
"92 547 OFFCURVE",
"133 463 OFFCURVE",
"203 408 CURVE",
"123 379 OFFCURVE",
"70 319 OFFCURVE",
"70 242 CURVE SMOOTH",
"70 186 OFFCURVE",
"98 131 OFFCURVE",
"147 100 CURVE",
"70 70 OFFCURVE",
"23 -10 OFFCURVE",
"23 -102 CURVE SMOOTH",
"23 -227 OFFCURVE",
"102 -330 OFFCURVE",
"258 -330 CURVE SMOOTH",
"528 -330 LINE SMOOTH",
"711 -330 OFFCURVE",
"807 -211 OFFCURVE",
"807 -59 CURVE SMOOTH",
"807 61 OFFCURVE",
"721 164 OFFCURVE",
"584 164 CURVE SMOOTH",
"311 164 LINE SMOOTH",
"264 164 OFFCURVE",
"225 201 OFFCURVE",
"225 248 CURVE SMOOTH",
"225 295 OFFCURVE",
"262 334 OFFCURVE",
"311 334 CURVE SMOOTH",
"412 334 LINE SMOOTH",
"596 336 OFFCURVE",
"715 457 OFFCURVE",
"715 653 CURVE SMOOTH",
"715 748 OFFCURVE",
"682 823 OFFCURVE",
"631 879 CURVE",
"729 903 OFFCURVE",
"788 991 OFFCURVE",
"788 1106 CURVE"
);
},
{
closed = 1;
nodes = (
"545 23 LINE",
"621 23 OFFCURVE",
"657 -27 OFFCURVE",
"657 -88 CURVE SMOOTH",
"657 -150 OFFCURVE",
"608 -201 OFFCURVE",
"545 -201 CURVE SMOOTH",
"283 -201 LINE SMOOTH",
"209 -201 OFFCURVE",
"172 -150 OFFCURVE",
"172 -88 CURVE SMOOTH",
"172 -27 OFFCURVE",
"207 23 OFFCURVE",
"283 23 CURVE SMOOTH"
);
},
{
closed = 1;
nodes = (
"508 850 OFFCURVE",
"565 780 OFFCURVE",
"565 653 CURVE SMOOTH",
"565 532 OFFCURVE",
"508 457 OFFCURVE",
"401 457 CURVE SMOOTH",
"297 457 OFFCURVE",
"242 526 OFFCURVE",
"242 653 CURVE SMOOTH",
"242 774 OFFCURVE",
"297 850 OFFCURVE",
"401 850 CURVE SMOOTH"
);
},
{
closed = 1;
nodes = (
"639 1063 LINE",
"485 1307 LINE",
"342 1307 LINE",
"188 1063 LINE",
"334 1063 LINE",
"414 1206 LINE",
"494 1063 LINE"
);
}
);
width = 825;
}
);
unicode = 011D;
},
{
glyphname = gcommaaccent;
layers = (
{
layerId = "D4AD7B3F-884E-49D2-9CE4-555FBB692325";
name = Light;
paths = (
{
closed = 1;
nodes = (
"659 1106 LINE",
"649 1047 OFFCURVE",
"627 985 OFFCURVE",
"541 940 CURVE",
"502 961 OFFCURVE",
"453 975 OFFCURVE",
"403 975 CURVE SMOOTH",
"211 975 OFFCURVE",
"92 852 OFFCURVE",
"92 653 CURVE SMOOTH",
"92 547 OFFCURVE",
"133 463 OFFCURVE",
"203 408 CURVE",
"123 379 OFFCURVE",
"70 319 OFFCURVE",
"70 242 CURVE SMOOTH",
"70 186 OFFCURVE",
"98 131 OFFCURVE",
"147 100 CURVE",
"70 70 OFFCURVE",
"23 -10 OFFCURVE",
"23 -102 CURVE SMOOTH",
"23 -227 OFFCURVE",
"102 -330 OFFCURVE",
"258 -330 CURVE SMOOTH",
"528 -330 LINE SMOOTH",
"711 -330 OFFCURVE",
"807 -211 OFFCURVE",
"807 -59 CURVE SMOOTH",
"807 61 OFFCURVE",
"721 164 OFFCURVE",
"584 164 CURVE SMOOTH",
"311 164 LINE SMOOTH",
"264 164 OFFCURVE",
"225 201 OFFCURVE",
"225 248 CURVE SMOOTH",
"225 295 OFFCURVE",
"262 334 OFFCURVE",
"311 334 CURVE SMOOTH",
"412 334 LINE SMOOTH",
"596 336 OFFCURVE",
"715 457 OFFCURVE",
"715 653 CURVE SMOOTH",
"715 748 OFFCURVE",
"682 823 OFFCURVE",
"631 879 CURVE",
"729 903 OFFCURVE",
"788 991 OFFCURVE",
"788 1106 CURVE"
);
},
{
closed = 1;
nodes = (
"545 23 LINE",
"621 23 OFFCURVE",
"657 -27 OFFCURVE",
"657 -88 CURVE SMOOTH",
"657 -150 OFFCURVE",
"608 -201 OFFCURVE",
"545 -201 CURVE SMOOTH",
"283 -201 LINE SMOOTH",
"209 -201 OFFCURVE",
"172 -150 OFFCURVE",
"172 -88 CURVE SMOOTH",
"172 -27 OFFCURVE",
"207 23 OFFCURVE",
"283 23 CURVE SMOOTH"
);
},
{
closed = 1;
nodes = (
"508 850 OFFCURVE",
"565 780 OFFCURVE",
"565 653 CURVE SMOOTH",
"565 532 OFFCURVE",
"508 457 OFFCURVE",
"401 457 CURVE SMOOTH",
"297 457 OFFCURVE",
"242 526 OFFCURVE",
"242 653 CURVE SMOOTH",
"242 774 OFFCURVE",
"297 850 OFFCURVE",
"401 850 CURVE SMOOTH"
);
},
{
closed = 1;
nodes = (
"442 1370 LINE",
"362 1370 LINE",
"307 1229 LINE",
"307 1077 LINE",
"463 1077 LINE",
"463 1241 LINE",
"401 1241 LINE"
);
}
);
width = 825;
}
);
unicode = 0123;
},
{
glyphname = gdotaccent;
layers = (
{
layerId = "D4AD7B3F-884E-49D2-9CE4-555FBB692325";
name = Light;
paths = (
{
closed = 1;
nodes = (
"659 1106 LINE",
"649 1047 OFFCURVE",
"627 985 OFFCURVE",
"541 940 CURVE",
"502 961 OFFCURVE",
"453 975 OFFCURVE",
"403 975 CURVE SMOOTH",
"211 975 OFFCURVE",
"92 852 OFFCURVE",
"92 653 CURVE SMOOTH",
"92 547 OFFCURVE",
"133 463 OFFCURVE",
"203 408 CURVE",
"123 379 OFFCURVE",
"70 319 OFFCURVE",
"70 242 CURVE SMOOTH",
"70 186 OFFCURVE",
"98 131 OFFCURVE",
"147 100 CURVE",
"70 70 OFFCURVE",
"23 -10 OFFCURVE",
"23 -102 CURVE SMOOTH",
"23 -227 OFFCURVE",
"102 -330 OFFCURVE",
"258 -330 CURVE SMOOTH",
"528 -330 LINE SMOOTH",
"711 -330 OFFCURVE",
"807 -211 OFFCURVE",
"807 -59 CURVE SMOOTH",
"807 61 OFFCURVE",
"721 164 OFFCURVE",
"584 164 CURVE SMOOTH",
"311 164 LINE SMOOTH",
"264 164 OFFCURVE",
"225 201 OFFCURVE",
"225 248 CURVE SMOOTH",
"225 295 OFFCURVE",
"262 334 OFFCURVE",
"311 334 CURVE SMOOTH",
"412 334 LINE SMOOTH",
"596 336 OFFCURVE",
"715 457 OFFCURVE",
"715 653 CURVE SMOOTH",
"715 748 OFFCURVE",
"682 823 OFFCURVE",
"631 879 CURVE",
"729 903 OFFCURVE",
"788 991 OFFCURVE",
"788 1106 CURVE"
);
},
{
closed = 1;
nodes = (
"545 23 LINE",
"621 23 OFFCURVE",
"657 -27 OFFCURVE",
"657 -88 CURVE SMOOTH",
"657 -150 OFFCURVE",
"608 -201 OFFCURVE",
"545 -201 CURVE SMOOTH",
"283 -201 LINE SMOOTH",
"209 -201 OFFCURVE",
"172 -150 OFFCURVE",
"172 -88 CURVE SMOOTH",
"172 -27 OFFCURVE",
"207 23 OFFCURVE",
"283 23 CURVE SMOOTH"
);
},
{
closed = 1;
nodes = (
"508 850 OFFCURVE",
"565 780 OFFCURVE",
"565 653 CURVE SMOOTH",
"565 532 OFFCURVE",
"508 457 OFFCURVE",
"401 457 CURVE SMOOTH",
"297 457 OFFCURVE",
"242 526 OFFCURVE",
"242 653 CURVE SMOOTH",
"242 774 OFFCURVE",
"297 850 OFFCURVE",
"401 850 CURVE SMOOTH"
);
},
{
closed = 1;
nodes = (
"492 1137 LINE",
"492 1309 LINE",
"336 1309 LINE",
"336 1137 LINE"
);
}
);
width = 825;
}
);
unicode = 0121;
},
{
glyphname = h;
layers = (
{
anchors = (
{
name = center;
position = "{414, 475}";
},
{
name = top;
position = "{414, 952}";
}
);
layerId = "D4AD7B3F-884E-49D2-9CE4-555FBB692325";
name = Light;
paths = (
{
closed = 1;
nodes = (
"258 852 LINE",
"258 1309 LINE",
"109 1309 LINE",
"109 0 LINE",
"258 0 LINE",
"258 582 LINE SMOOTH",
"258 745 OFFCURVE",
"340 842 OFFCURVE",
"434 842 CURVE SMOOTH",
"514 842 OFFCURVE",
"569 807 OFFCURVE",
"569 676 CURVE SMOOTH",
"569 0 LINE",
"717 0 LINE",
"717 686 LINE SMOOTH",
"717 897 OFFCURVE",
"625 975 OFFCURVE",
"481 975 CURVE SMOOTH",
"387 975 OFFCURVE",
"317 938 OFFCURVE",
"268 852 CURVE"
);
}
);
width = 825;
}
);
unicode = 0068;
},
{
glyphname = hbar;
layers = (
{
layerId = "D4AD7B3F-884E-49D2-9CE4-555FBB692325";
name = Light;
paths = (
{
closed = 1;
nodes = (
"258 1309 LINE",
"109 1309 LINE",
"109 1178 LINE",
"0 1178 LINE",
"0 1055 LINE",
"109 1055 LINE",
"109 0 LINE",
"258 0 LINE",
"258 582 LINE SMOOTH",
"258 745 OFFCURVE",
"340 842 OFFCURVE",
"434 842 CURVE SMOOTH",
"514 842 OFFCURVE",
"569 807 OFFCURVE",
"569 676 CURVE SMOOTH",
"569 0 LINE",
"717 0 LINE",
"717 686 LINE SMOOTH",
"717 897 OFFCURVE",
"625 975 OFFCURVE",
"481 975 CURVE SMOOTH",
"387 975 OFFCURVE",
"317 938 OFFCURVE",
"268 852 CURVE",
"258 852 LINE",
"258 1055 LINE",
"453 1055 LINE",
"453 1178 LINE",
"258 1178 LINE"
);
}
);
width = 825;
}
);
unicode = 0127;
},
{
glyphname = hcircumflex;
layers = (
{
layerId = "D4AD7B3F-884E-49D2-9CE4-555FBB692325";
name = Light;
paths = (
{
closed = 1;
nodes = (
"258 852 LINE",
"258 1309 LINE",
"109 1309 LINE",
"109 0 LINE",
"258 0 LINE",
"258 582 LINE SMOOTH",
"258 745 OFFCURVE",
"340 842 OFFCURVE",
"434 842 CURVE SMOOTH",
"514 842 OFFCURVE",
"569 807 OFFCURVE",
"569 676 CURVE SMOOTH",
"569 0 LINE",
"717 0 LINE",
"717 686 LINE SMOOTH",
"717 897 OFFCURVE",
"625 975 OFFCURVE",
"481 975 CURVE SMOOTH",
"387 975 OFFCURVE",
"317 938 OFFCURVE",
"268 852 CURVE"
);
},
{
closed = 1;
nodes = (
"414 1352 LINE",
"258 1597 LINE",
"117 1597 LINE",
"-39 1352 LINE",
"106 1352 LINE",
"188 1495 LINE",
"268 1352 LINE"
);
}
);
width = 825;
}
);
unicode = 0125;
},
{
glyphname = i;
layers = (
{
layerId = "D4AD7B3F-884E-49D2-9CE4-555FBB692325";
name = Light;
paths = (
{
closed = 1;
nodes = (
"240 0 LINE",
"240 952 LINE",
"90 952 LINE",
"90 0 LINE"
);
},
{
closed = 1;
nodes = (
"240 1130 LINE",
"240 1309 LINE",
"90 1309 LINE",
"90 1130 LINE"
);
}
);
width = 330;
}
);
unicode = 0069;
},
{
glyphname = dotlessi;
layers = (
{
anchors = (
{
name = ogonek;
position = "{371, 18}";
},
{
name = top;
position = "{207, 952}";
}
);
layerId = "D4AD7B3F-884E-49D2-9CE4-555FBB692325";
name = Light;
paths = (
{
closed = 1;
nodes = (
"281 0 LINE",
"281 952 LINE",
"133 952 LINE",
"133 0 LINE"
);
}
);
width = 414;
}
);
unicode = 0131;
},
{
glyphname = iacute;
layers = (
{
layerId = "D4AD7B3F-884E-49D2-9CE4-555FBB692325";
name = Light;
paths = (
{
closed = 1;
nodes = (
"281 952 LINE",
"133 952 LINE",
"133 0 LINE",
"281 0 LINE"
);
},
{
closed = 1;
nodes = (
"416 1309 LINE",
"256 1309 LINE",
"100 1069 LINE",
"225 1069 LINE",
"418 1303 LINE"
);
}
);
width = 414;
}
);
unicode = 00ED;
},
{
glyphname = ibreve;
layers = (
{
layerId = "D4AD7B3F-884E-49D2-9CE4-555FBB692325";
name = Light;
paths = (
{
closed = 1;
nodes = (
"281 0 LINE",
"281 952 LINE",
"133 952 LINE",
"133 0 LINE"
);
},
{
closed = 1;
nodes = (
"315 1309 LINE",
"311 1284 OFFCURVE",
"268 1249 OFFCURVE",
"207 1249 CURVE SMOOTH",
"147 1249 OFFCURVE",
"104 1284 OFFCURVE",
"100 1309 CURVE",
"-18 1309 LINE",
"-18 1227 OFFCURVE",
"70 1133 OFFCURVE",
"207 1133 CURVE SMOOTH",
"346 1133 OFFCURVE",
"430 1227 OFFCURVE",
"430 1309 CURVE"
);
}
);
width = 414;
}
);
unicode = 012D;
},
{
glyphname = icircumflex;
layers = (
{
layerId = "D4AD7B3F-884E-49D2-9CE4-555FBB692325";
name = Light;
paths = (
{
closed = 1;
nodes = (
"281 0 LINE",
"281 952 LINE",
"133 952 LINE",
"133 0 LINE"
);
},
{
closed = 1;
nodes = (
"432 1063 LINE",
"279 1307 LINE",
"137 1307 LINE",
"-20 1063 LINE",
"127 1063 LINE",
"209 1206 LINE",
"289 1063 LINE"
);
}
);
width = 414;
}
);
unicode = 00EE;
},
{
glyphname = idieresis;
layers = (
{
layerId = "D4AD7B3F-884E-49D2-9CE4-555FBB692325";
name = Light;
paths = (
{
closed = 1;
nodes = (
"281 952 LINE",
"133 952 LINE",
"133 0 LINE",
"281 0 LINE"
);
},
{
closed = 1;
nodes = (
"150 1309 LINE",
"-8 1309 LINE",
"-8 1137 LINE",
"150 1137 LINE"
);
},
{
closed = 1;
nodes = (
"422 1309 LINE",
"264 1309 LINE",
"264 1137 LINE",
"422 1137 LINE"
);
}
);
width = 414;
}
);
unicode = 00EF;
},
{
glyphname = igrave;
layers = (
{
layerId = "D4AD7B3F-884E-49D2-9CE4-555FBB692325";
name = Light;
paths = (
{
closed = 1;
nodes = (
"281 952 LINE",
"133 952 LINE",
"133 0 LINE",
"281 0 LINE"
);
},
{
closed = 1;
nodes = (
"160 1309 LINE",
"-4 1309 LINE",
"-6 1303 LINE",
"190 1069 LINE",
"315 1069 LINE"
);
}
);
width = 414;
}
);
unicode = 00EC;
},
{
glyphname = ij;
layers = (
{
layerId = "D4AD7B3F-884E-49D2-9CE4-555FBB692325";
name = Light;
paths = (
{
closed = 1;
nodes = (
"569 952 LINE",
"420 952 LINE",
"420 -117 LINE SMOOTH",
"420 -174 OFFCURVE",
"391 -205 OFFCURVE",
"336 -205 CURVE SMOOTH",
"256 -205 LINE",
"256 -307 LINE",
"287 -319 OFFCURVE",
"336 -330 OFFCURVE",
"381 -330 CURVE SMOOTH",
"524 -330 OFFCURVE",
"569 -219 OFFCURVE",
"569 -111 CURVE SMOOTH"
);
},
{
closed = 1;
nodes = (
"240 952 LINE",
"90 952 LINE",
"90 0 LINE",
"240 0 LINE"
);
},
{
closed = 1;
nodes = (
"240 1309 LINE",
"90 1309 LINE",
"90 1130 LINE",
"240 1130 LINE"
);
},
{
closed = 1;
nodes = (
"569 1309 LINE",
"420 1309 LINE",
"420 1130 LINE",
"569 1130 LINE"
);
}
);
width = 659;
}
);
unicode = 0133;
},
{
glyphname = imacron;
layers = (
{
layerId = "D4AD7B3F-884E-49D2-9CE4-555FBB692325";
name = Light;
paths = (
{
closed = 1;
nodes = (
"281 0 LINE",
"281 952 LINE",
"133 952 LINE",
"133 0 LINE"
);
},
{
closed = 1;
nodes = (
"434 1085 LINE",
"434 1214 LINE",
"-20 1214 LINE",
"-20 1085 LINE"
);
}
);
width = 414;
}
);
unicode = 012B;
},
{
glyphname = iogonek;
layers = (
{
layerId = "D4AD7B3F-884E-49D2-9CE4-555FBB692325";
name = Light;
paths = (
{
closed = 1;
nodes = (
"240 952 LINE",
"90 952 LINE",
"90 0 LINE",
"121 0 LINE",
"84 -41 OFFCURVE",
"55 -90 OFFCURVE",
"55 -166 CURVE SMOOTH",
"55 -291 OFFCURVE",
"147 -330 OFFCURVE",
"225 -330 CURVE SMOOTH",
"260 -330 OFFCURVE",
"297 -319 OFFCURVE",
"336 -305 CURVE",
"336 -211 LINE",
"276 -211 LINE SMOOTH",
"217 -211 OFFCURVE",
"195 -164 OFFCURVE",
"195 -113 CURVE SMOOTH",
"195 -70 OFFCURVE",
"219 -27 OFFCURVE",
"240 0 CURVE"
);
},
{
closed = 1;
nodes = (
"246 1309 LINE",
"86 1309 LINE",
"86 1137 LINE",
"246 1137 LINE"
);
}
);
width = 330;
}
);
unicode = 012F;
},
{
glyphname = itilde;
layers = (
{
layerId = "D4AD7B3F-884E-49D2-9CE4-555FBB692325";
name = Light;
paths = (
{
closed = 1;
nodes = (
"281 0 LINE",
"281 952 LINE",
"133 952 LINE",
"133 0 LINE"
);
},
{
closed = 1;
nodes = (
"367 1309 LINE",
"360 1268 OFFCURVE",
"336 1253 OFFCURVE",
"305 1253 CURVE SMOOTH",
"233 1253 OFFCURVE",
"174 1309 OFFCURVE",
"96 1309 CURVE SMOOTH",
"-12 1309 OFFCURVE",
"-57 1204 OFFCURVE",
"-57 1120 CURVE",
"47 1120 LINE",
"53 1163 OFFCURVE",
"76 1178 OFFCURVE",
"109 1178 CURVE SMOOTH",
"180 1178 OFFCURVE",
"240 1120 OFFCURVE",
"317 1120 CURVE SMOOTH",
"426 1120 OFFCURVE",
"471 1225 OFFCURVE",
"471 1309 CURVE"
);
}
);
width = 414;
}
);
unicode = 0129;
},
{
glyphname = j;
layers = (
{
layerId = "D4AD7B3F-884E-49D2-9CE4-555FBB692325";
name = Light;
paths = (
{
closed = 1;
nodes = (
"240 952 LINE",
"90 952 LINE",
"90 -117 LINE SMOOTH",
"90 -174 OFFCURVE",
"61 -205 OFFCURVE",
"6 -205 CURVE SMOOTH",
"-74 -205 LINE",
"-74 -307 LINE",
"-43 -319 OFFCURVE",
"8 -330 OFFCURVE",
"51 -330 CURVE SMOOTH",
"195 -330 OFFCURVE",
"240 -219 OFFCURVE",
"240 -111 CURVE SMOOTH"
);
},
{
closed = 1;
nodes = (
"240 1130 LINE",
"240 1309 LINE",
"90 1309 LINE",
"90 1130 LINE"
);
}
);
width = 330;
}
);
unicode = 006A;
},
{
glyphname = jcircumflex;
layers = (
{
layerId = "D4AD7B3F-884E-49D2-9CE4-555FBB692325";
name = Light;
paths = (
{
closed = 1;
nodes = (
"240 952 LINE",
"90 952 LINE",
"90 -117 LINE SMOOTH",
"90 -174 OFFCURVE",
"61 -205 OFFCURVE",
"6 -205 CURVE SMOOTH",
"-74 -205 LINE",
"-74 -307 LINE",
"-43 -319 OFFCURVE",
"8 -330 OFFCURVE",
"51 -330 CURVE SMOOTH",
"195 -330 OFFCURVE",
"240 -219 OFFCURVE",
"240 -111 CURVE SMOOTH"
);
},
{
closed = 1;
nodes = (
"391 1063 LINE",
"236 1307 LINE",
"94 1307 LINE",
"-61 1063 LINE",
"84 1063 LINE",
"166 1206 LINE",
"246 1063 LINE"
);
}
);
width = 330;
}
);
unicode = 0135;
},
{
glyphname = k;
layers = (
{
anchors = (
{
name = bottom;
position = "{371, 0}";
}
);
layerId = "D4AD7B3F-884E-49D2-9CE4-555FBB692325";
name = Light;
paths = (
{
closed = 1;
nodes = (
"258 510 LINE",
"258 1309 LINE",
"109 1309 LINE",
"109 0 LINE",
"258 0 LINE",
"258 324 LINE",
"358 434 LINE",
"575 0 LINE",
"743 0 LINE",
"449 561 LINE",
"729 952 LINE",
"565 952 LINE"
);
}
);
width = 741;
}
);
unicode = 006B;
},
{
glyphname = kcommaaccent;
layers = (
{
layerId = "D4AD7B3F-884E-49D2-9CE4-555FBB692325";
name = Light;
paths = (
{
closed = 1;
nodes = (
"258 510 LINE",
"258 1309 LINE",
"109 1309 LINE",
"109 0 LINE",
"258 0 LINE",
"258 324 LINE",
"358 434 LINE",
"575 0 LINE",
"743 0 LINE",
"449 561 LINE",
"729 952 LINE",
"565 952 LINE"
);
},
{
closed = 1;
nodes = (
"449 -260 LINE",
"449 -109 LINE",
"295 -109 LINE",
"295 -272 LINE",
"356 -272 LINE",
"315 -401 LINE",
"397 -401 LINE"
);
}
);
width = 741;
}
);
unicode = 0137;
},
{
glyphname = kgreenlandic;
layers = (
{
layerId = "D4AD7B3F-884E-49D2-9CE4-555FBB692325";
name = Light;
paths = (
{
closed = 1;
nodes = (
"449 561 LINE",
"729 952 LINE",
"565 952 LINE",
"258 510 LINE",
"258 952 LINE",
"109 952 LINE",
"109 0 LINE",
"258 0 LINE",
"258 324 LINE",
"358 434 LINE",
"575 0 LINE",
"743 0 LINE"
);
}
);
width = 739;
}
);
unicode = 0138;
},
{
glyphname = l;
layers = (
{
anchors = (
{
name = bottom;
position = "{164, 0}";
},
{
name = top;
position = "{164, 952}";
},
{
name = topright;
position = "{293, 952}";
}
);
layerId = "D4AD7B3F-884E-49D2-9CE4-555FBB692325";
name = Light;
paths = (
{
closed = 1;
nodes = (
"240 0 LINE",
"240 1309 LINE",
"90 1309 LINE",
"90 0 LINE"
);
}
);
width = 330;
}
);
unicode = 006C;
},
{
glyphname = lacute;
layers = (
{
layerId = "D4AD7B3F-884E-49D2-9CE4-555FBB692325";
name = Light;
paths = (
{
closed = 1;
nodes = (
"240 1309 LINE",
"90 1309 LINE",
"90 0 LINE",
"240 0 LINE"
);
},
{
closed = 1;
nodes = (
"377 1599 LINE",
"213 1599 LINE",
"57 1360 LINE",
"182 1360 LINE",
"377 1593 LINE"
);
}
);
width = 330;
}
);
unicode = 013A;
},
{
glyphname = lcaron;
layers = (
{
layerId = "D4AD7B3F-884E-49D2-9CE4-555FBB692325";
name = Light;
paths = (
{
closed = 1;
nodes = (
"240 0 LINE",
"240 1309 LINE",
"90 1309 LINE",
"90 0 LINE"
);
},
{
closed = 1;
nodes = (
"492 1063 LINE",
"492 1241 LINE",
"311 1241 LINE",
"311 1047 LINE",
"383 1047 LINE",
"311 821 LINE",
"406 821 LINE"
);
}
);
width = 432;
}
);
unicode = 013E;
},
{
glyphname = lcommaaccent;
layers = (
{
layerId = "D4AD7B3F-884E-49D2-9CE4-555FBB692325";
name = Light;
paths = (
{
closed = 1;
nodes = (
"240 0 LINE",
"240 1309 LINE",
"90 1309 LINE",
"90 0 LINE"
);
},
{
closed = 1;
nodes = (
"242 -260 LINE",
"242 -109 LINE",
"88 -109 LINE",
"88 -272 LINE",
"150 -272 LINE",
"111 -401 LINE",
"190 -401 LINE"
);
}
);
width = 330;
}
);
unicode = 013C;
},
{
glyphname = ldot;
layers = (
{
layerId = "D4AD7B3F-884E-49D2-9CE4-555FBB692325";
name = Light;
paths = (
{
closed = 1;
nodes = (
"240 0 LINE",
"240 1309 LINE",
"90 1309 LINE",
"90 0 LINE"
);
},
{
closed = 1;
nodes = (
"494 522 LINE",
"494 723 LINE",
"311 723 LINE",
"311 522 LINE"
);
}
);
width = 586;
}
);
unicode = 0140;
},
{
glyphname = lslash;
layers = (
{
layerId = "D4AD7B3F-884E-49D2-9CE4-555FBB692325";
name = Light;
paths = (
{
closed = 1;
nodes = (
"240 709 LINE",
"240 1309 LINE",
"90 1309 LINE",
"90 575 LINE",
"-39 461 LINE",
"-39 334 LINE",
"90 444 LINE",
"90 0 LINE",
"240 0 LINE",
"240 578 LINE",
"397 717 LINE",
"397 848 LINE"
);
}
);
width = 330;
}
);
unicode = 0142;
},
{
glyphname = m;
layers = (
{
layerId = "D4AD7B3F-884E-49D2-9CE4-555FBB692325";
name = Light;
paths = (
{
closed = 1;
nodes = (
"813 975 OFFCURVE",
"723 928 OFFCURVE",
"672 836 CURVE",
"637 934 OFFCURVE",
"563 975 OFFCURVE",
"469 975 CURVE SMOOTH",
"379 975 OFFCURVE",
"303 936 OFFCURVE",
"252 842 CURVE",
"242 842 LINE",
"221 952 LINE",
"109 952 LINE",
"109 0 LINE",
"258 0 LINE",
"258 582 LINE SMOOTH",
"258 745 OFFCURVE",
"334 842 OFFCURVE",
"422 842 CURVE SMOOTH",
"492 842 OFFCURVE",
"545 807 OFFCURVE",
"545 676 CURVE SMOOTH",
"545 0 LINE",
"694 0 LINE",
"694 582 LINE SMOOTH",
"694 745 OFFCURVE",
"768 842 OFFCURVE",
"856 842 CURVE SMOOTH",
"928 842 OFFCURVE",
"979 807 OFFCURVE",
"979 676 CURVE SMOOTH",
"979 0 LINE",
"1128 0 LINE",
"1128 686 LINE SMOOTH",
"1128 897 OFFCURVE",
"1038 975 OFFCURVE",
"903 975 CURVE SMOOTH"
);
}
);
width = 1237;
}
);
unicode = 006D;
},
{
glyphname = n;
layers = (
{
anchors = (
{
name = bottom;
position = "{414, 0}";
},
{
name = top;
position = "{414, 952}";
}
);
layerId = "D4AD7B3F-884E-49D2-9CE4-555FBB692325";
name = Light;
paths = (
{
closed = 1;
nodes = (
"387 975 OFFCURVE",
"305 936 OFFCURVE",
"252 842 CURVE",
"242 842 LINE",
"221 952 LINE",
"109 952 LINE",
"109 0 LINE",
"258 0 LINE",
"258 582 LINE SMOOTH",
"258 745 OFFCURVE",
"340 842 OFFCURVE",
"434 842 CURVE SMOOTH",
"514 842 OFFCURVE",
"569 807 OFFCURVE",
"569 676 CURVE SMOOTH",
"569 0 LINE",
"717 0 LINE",
"717 686 LINE SMOOTH",
"717 897 OFFCURVE",
"625 975 OFFCURVE",
"481 975 CURVE SMOOTH"
);
}
);
width = 825;
}
);
unicode = 006E;
},
{
glyphname = nacute;
layers = (
{
layerId = "D4AD7B3F-884E-49D2-9CE4-555FBB692325";
name = Light;
paths = (
{
closed = 1;
nodes = (
"387 975 OFFCURVE",
"305 936 OFFCURVE",
"252 842 CURVE",
"242 842 LINE",
"221 952 LINE",
"109 952 LINE",
"109 0 LINE",
"258 0 LINE",
"258 582 LINE SMOOTH",
"258 745 OFFCURVE",
"340 842 OFFCURVE",
"434 842 CURVE SMOOTH",
"514 842 OFFCURVE",
"569 807 OFFCURVE",
"569 676 CURVE SMOOTH",
"569 0 LINE",
"717 0 LINE",
"717 686 LINE SMOOTH",
"717 897 OFFCURVE",
"625 975 OFFCURVE",
"481 975 CURVE SMOOTH"
);
},
{
closed = 1;
nodes = (
"623 1309 LINE",
"461 1309 LINE",
"305 1069 LINE",
"430 1069 LINE",
"625 1303 LINE"
);
}
);
width = 825;
}
);
unicode = 0144;
},
{
glyphname = napostrophe;
layers = (
{
layerId = "D4AD7B3F-884E-49D2-9CE4-555FBB692325";
name = Light;
paths = (
{
closed = 1;
nodes = (
"600 975 OFFCURVE",
"516 936 OFFCURVE",
"463 842 CURVE",
"453 842 LINE",
"432 952 LINE",
"319 952 LINE",
"319 0 LINE",
"469 0 LINE",
"469 582 LINE SMOOTH",
"469 745 OFFCURVE",
"553 842 OFFCURVE",
"645 842 CURVE SMOOTH",
"725 842 OFFCURVE",
"780 807 OFFCURVE",
"780 676 CURVE SMOOTH",
"780 0 LINE",
"928 0 LINE",
"928 686 LINE SMOOTH",
"928 897 OFFCURVE",
"836 975 OFFCURVE",
"694 975 CURVE SMOOTH"
);
},
{
closed = 1;
nodes = (
"242 1241 LINE",
"86 1241 LINE",
"86 1075 LINE",
"147 1075 LINE",
"106 946 LINE",
"188 946 LINE",
"242 1087 LINE"
);
}
);
width = 1038;
}
);
unicode = 0149;
},
{
glyphname = ncaron;
layers = (
{
layerId = "D4AD7B3F-884E-49D2-9CE4-555FBB692325";
name = Light;
paths = (
{
closed = 1;
nodes = (
"387 975 OFFCURVE",
"305 936 OFFCURVE",
"252 842 CURVE",
"242 842 LINE",
"221 952 LINE",
"109 952 LINE",
"109 0 LINE",
"258 0 LINE",
"258 582 LINE SMOOTH",
"258 745 OFFCURVE",
"340 842 OFFCURVE",
"434 842 CURVE SMOOTH",
"514 842 OFFCURVE",
"569 807 OFFCURVE",
"569 676 CURVE SMOOTH",
"569 0 LINE",
"717 0 LINE",
"717 686 LINE SMOOTH",
"717 897 OFFCURVE",
"625 975 OFFCURVE",
"481 975 CURVE SMOOTH"
);
},
{
closed = 1;
nodes = (
"483 1065 LINE",
"639 1309 LINE",
"494 1309 LINE",
"414 1165 LINE",
"334 1309 LINE",
"188 1309 LINE",
"340 1065 LINE"
);
}
);
width = 825;
}
);
unicode = 0148;
},
{
glyphname = ncommaaccent;
layers = (
{
layerId = "D4AD7B3F-884E-49D2-9CE4-555FBB692325";
name = Light;
paths = (
{
closed = 1;
nodes = (
"387 975 OFFCURVE",
"305 936 OFFCURVE",
"252 842 CURVE",
"242 842 LINE",
"221 952 LINE",
"109 952 LINE",
"109 0 LINE",
"258 0 LINE",
"258 582 LINE SMOOTH",
"258 745 OFFCURVE",
"340 842 OFFCURVE",
"434 842 CURVE SMOOTH",
"514 842 OFFCURVE",
"569 807 OFFCURVE",
"569 676 CURVE SMOOTH",
"569 0 LINE",
"717 0 LINE",
"717 686 LINE SMOOTH",
"717 897 OFFCURVE",
"625 975 OFFCURVE",
"481 975 CURVE SMOOTH"
);
},
{
closed = 1;
nodes = (
"492 -260 LINE",
"492 -109 LINE",
"336 -109 LINE",
"336 -272 LINE",
"397 -272 LINE",
"356 -401 LINE",
"438 -401 LINE"
);
}
);
width = 825;
}
);
unicode = 0146;
},
{
glyphname = eng;
layers = (
{
layerId = "D4AD7B3F-884E-49D2-9CE4-555FBB692325";
name = Light;
paths = (
{
closed = 1;
nodes = (
"387 975 OFFCURVE",
"305 936 OFFCURVE",
"252 842 CURVE",
"242 842 LINE",
"221 952 LINE",
"109 952 LINE",
"109 0 LINE",
"258 0 LINE",
"258 582 LINE SMOOTH",
"258 745 OFFCURVE",
"340 842 OFFCURVE",
"434 842 CURVE SMOOTH",
"514 842 OFFCURVE",
"569 807 OFFCURVE",
"569 676 CURVE SMOOTH",
"569 -117 LINE SMOOTH",
"569 -174 OFFCURVE",
"539 -205 OFFCURVE",
"483 -205 CURVE SMOOTH",
"403 -205 LINE",
"403 -307 LINE",
"434 -319 OFFCURVE",
"485 -330 OFFCURVE",
"528 -330 CURVE SMOOTH",
"674 -330 OFFCURVE",
"717 -219 OFFCURVE",
"717 -111 CURVE SMOOTH",
"717 686 LINE SMOOTH",
"717 897 OFFCURVE",
"625 975 OFFCURVE",
"481 975 CURVE SMOOTH"
);
}
);
width = 825;
}
);
unicode = 014B;
},
{
glyphname = ntilde;
layers = (
{
layerId = "D4AD7B3F-884E-49D2-9CE4-555FBB692325";
name = Light;
paths = (
{
closed = 1;
nodes = (
"387 975 OFFCURVE",
"305 936 OFFCURVE",
"252 842 CURVE",
"242 842 LINE",
"221 952 LINE",
"109 952 LINE",
"109 0 LINE",
"258 0 LINE",
"258 582 LINE SMOOTH",
"258 745 OFFCURVE",
"340 842 OFFCURVE",
"434 842 CURVE SMOOTH",
"514 842 OFFCURVE",
"569 807 OFFCURVE",
"569 676 CURVE SMOOTH",
"569 0 LINE",
"717 0 LINE",
"717 686 LINE SMOOTH",
"717 897 OFFCURVE",
"625 975 OFFCURVE",
"481 975 CURVE SMOOTH"
);
},
{
closed = 1;
nodes = (
"571 1309 LINE",
"567 1268 OFFCURVE",
"543 1253 OFFCURVE",
"510 1253 CURVE SMOOTH",
"440 1253 OFFCURVE",
"381 1309 OFFCURVE",
"303 1309 CURVE SMOOTH",
"195 1309 OFFCURVE",
"147 1204 OFFCURVE",
"147 1120 CURVE",
"254 1120 LINE",
"258 1163 OFFCURVE",
"283 1178 OFFCURVE",
"315 1178 CURVE SMOOTH",
"385 1178 OFFCURVE",
"444 1120 OFFCURVE",
"522 1120 CURVE SMOOTH",
"633 1120 OFFCURVE",
"678 1225 OFFCURVE",
"678 1309 CURVE"
);
}
);
width = 825;
}
);
unicode = 00F1;
},
{
glyphname = o;
layers = (
{
anchors = (
{
name = top;
position = "{414, 952}";
}
);
layerId = "D4AD7B3F-884E-49D2-9CE4-555FBB692325";
name = Light;
paths = (
{
closed = 1;
nodes = (
"190 975 OFFCURVE",
"72 819 OFFCURVE",
"72 475 CURVE SMOOTH",
"72 133 OFFCURVE",
"190 -23 OFFCURVE",
"414 -23 CURVE SMOOTH",
"635 -23 OFFCURVE",
"754 133 OFFCURVE",
"754 475 CURVE SMOOTH",
"754 819 OFFCURVE",
"635 975 OFFCURVE",
"414 975 CURVE SMOOTH"
);
},
{
closed = 1;
nodes = (
"537 842 OFFCURVE",
"598 729 OFFCURVE",
"598 510 CURVE SMOOTH",
"598 442 LINE SMOOTH",
"598 223 OFFCURVE",
"537 111 OFFCURVE",
"414 111 CURVE SMOOTH",
"289 111 OFFCURVE",
"227 223 OFFCURVE",
"227 442 CURVE SMOOTH",
"227 510 LINE SMOOTH",
"227 729 OFFCURVE",
"289 842 OFFCURVE",
"414 842 CURVE SMOOTH"
);
}
);
width = 825;
}
);
unicode = 006F;
},
{
glyphname = oacute;
layers = (
{
layerId = "D4AD7B3F-884E-49D2-9CE4-555FBB692325";
name = Light;
paths = (
{
closed = 1;
nodes = (
"190 975 OFFCURVE",
"72 819 OFFCURVE",
"72 475 CURVE SMOOTH",
"72 133 OFFCURVE",
"190 -23 OFFCURVE",
"414 -23 CURVE SMOOTH",
"635 -23 OFFCURVE",
"754 133 OFFCURVE",
"754 475 CURVE SMOOTH",
"754 819 OFFCURVE",
"635 975 OFFCURVE",
"414 975 CURVE SMOOTH"
);
},
{
closed = 1;
nodes = (
"537 842 OFFCURVE",
"598 729 OFFCURVE",
"598 510 CURVE SMOOTH",
"598 442 LINE SMOOTH",
"598 223 OFFCURVE",
"537 111 OFFCURVE",
"414 111 CURVE SMOOTH",
"289 111 OFFCURVE",
"227 223 OFFCURVE",
"227 442 CURVE SMOOTH",
"227 510 LINE SMOOTH",
"227 729 OFFCURVE",
"289 842 OFFCURVE",
"414 842 CURVE SMOOTH"
);
},
{
closed = 1;
nodes = (
"623 1309 LINE",
"461 1309 LINE",
"305 1069 LINE",
"430 1069 LINE",
"625 1303 LINE"
);
}
);
width = 825;
}
);
unicode = 00F3;
},
{
glyphname = obreve;
layers = (
{
layerId = "D4AD7B3F-884E-49D2-9CE4-555FBB692325";
name = Light;
paths = (
{
closed = 1;
nodes = (
"190 975 OFFCURVE",
"72 819 OFFCURVE",
"72 475 CURVE SMOOTH",
"72 133 OFFCURVE",
"190 -23 OFFCURVE",
"414 -23 CURVE SMOOTH",
"635 -23 OFFCURVE",
"754 133 OFFCURVE",
"754 475 CURVE SMOOTH",
"754 819 OFFCURVE",
"635 975 OFFCURVE",
"414 975 CURVE SMOOTH"
);
},
{
closed = 1;
nodes = (
"537 842 OFFCURVE",
"598 729 OFFCURVE",
"598 510 CURVE SMOOTH",
"598 442 LINE SMOOTH",
"598 223 OFFCURVE",
"537 111 OFFCURVE",
"414 111 CURVE SMOOTH",
"289 111 OFFCURVE",
"227 223 OFFCURVE",
"227 442 CURVE SMOOTH",
"227 510 LINE SMOOTH",
"227 729 OFFCURVE",
"289 842 OFFCURVE",
"414 842 CURVE SMOOTH"
);
},
{
closed = 1;
nodes = (
"522 1309 LINE",
"518 1284 OFFCURVE",
"475 1249 OFFCURVE",
"414 1249 CURVE SMOOTH",
"350 1249 OFFCURVE",
"311 1284 OFFCURVE",
"305 1309 CURVE",
"188 1309 LINE",
"188 1227 OFFCURVE",
"274 1133 OFFCURVE",
"414 1133 CURVE SMOOTH",
"553 1133 OFFCURVE",
"637 1227 OFFCURVE",
"637 1309 CURVE"
);
}
);
width = 825;
}
);
unicode = 014F;
},
{
glyphname = ocircumflex;
layers = (
{
layerId = "D4AD7B3F-884E-49D2-9CE4-555FBB692325";
name = Light;
paths = (
{
closed = 1;
nodes = (
"190 975 OFFCURVE",
"72 819 OFFCURVE",
"72 475 CURVE SMOOTH",
"72 133 OFFCURVE",
"190 -23 OFFCURVE",
"414 -23 CURVE SMOOTH",
"635 -23 OFFCURVE",
"754 133 OFFCURVE",
"754 475 CURVE SMOOTH",
"754 819 OFFCURVE",
"635 975 OFFCURVE",
"414 975 CURVE SMOOTH"
);
},
{
closed = 1;
nodes = (
"537 842 OFFCURVE",
"598 729 OFFCURVE",
"598 510 CURVE SMOOTH",
"598 442 LINE SMOOTH",
"598 223 OFFCURVE",
"537 111 OFFCURVE",
"414 111 CURVE SMOOTH",
"289 111 OFFCURVE",
"227 223 OFFCURVE",
"227 442 CURVE SMOOTH",
"227 510 LINE SMOOTH",
"227 729 OFFCURVE",
"289 842 OFFCURVE",
"414 842 CURVE SMOOTH"
);
},
{
closed = 1;
nodes = (
"639 1063 LINE",
"485 1307 LINE",
"342 1307 LINE",
"188 1063 LINE",
"334 1063 LINE",
"414 1206 LINE",
"494 1063 LINE"
);
}
);
width = 825;
}
);
unicode = 00F4;
},
{
glyphname = odieresis;
layers = (
{
layerId = "D4AD7B3F-884E-49D2-9CE4-555FBB692325";
name = Light;
paths = (
{
closed = 1;
nodes = (
"190 975 OFFCURVE",
"72 819 OFFCURVE",
"72 475 CURVE SMOOTH",
"72 133 OFFCURVE",
"190 -23 OFFCURVE",
"414 -23 CURVE SMOOTH",
"635 -23 OFFCURVE",
"754 133 OFFCURVE",
"754 475 CURVE SMOOTH",
"754 819 OFFCURVE",
"635 975 OFFCURVE",
"414 975 CURVE SMOOTH"
);
},
{
closed = 1;
nodes = (
"537 842 OFFCURVE",
"598 729 OFFCURVE",
"598 510 CURVE SMOOTH",
"598 442 LINE SMOOTH",
"598 223 OFFCURVE",
"537 111 OFFCURVE",
"414 111 CURVE SMOOTH",
"289 111 OFFCURVE",
"227 223 OFFCURVE",
"227 442 CURVE SMOOTH",
"227 510 LINE SMOOTH",
"227 729 OFFCURVE",
"289 842 OFFCURVE",
"414 842 CURVE SMOOTH"
);
},
{
closed = 1;
nodes = (
"354 1309 LINE",
"197 1309 LINE",
"197 1137 LINE",
"354 1137 LINE"
);
},
{
closed = 1;
nodes = (
"629 1309 LINE",
"469 1309 LINE",
"469 1137 LINE",
"629 1137 LINE"
);
}
);
width = 825;
}
);
unicode = 00F6;
},
{
glyphname = ograve;
layers = (
{
layerId = "D4AD7B3F-884E-49D2-9CE4-555FBB692325";
name = Light;
paths = (
{
closed = 1;
nodes = (
"190 975 OFFCURVE",
"72 819 OFFCURVE",
"72 475 CURVE SMOOTH",
"72 133 OFFCURVE",
"190 -23 OFFCURVE",
"414 -23 CURVE SMOOTH",
"635 -23 OFFCURVE",
"754 133 OFFCURVE",
"754 475 CURVE SMOOTH",
"754 819 OFFCURVE",
"635 975 OFFCURVE",
"414 975 CURVE SMOOTH"
);
},
{
closed = 1;
nodes = (
"537 842 OFFCURVE",
"598 729 OFFCURVE",
"598 510 CURVE SMOOTH",
"598 442 LINE SMOOTH",
"598 223 OFFCURVE",
"537 111 OFFCURVE",
"414 111 CURVE SMOOTH",
"289 111 OFFCURVE",
"227 223 OFFCURVE",
"227 442 CURVE SMOOTH",
"227 510 LINE SMOOTH",
"227 729 OFFCURVE",
"289 842 OFFCURVE",
"414 842 CURVE SMOOTH"
);
},
{
closed = 1;
nodes = (
"367 1309 LINE",
"201 1309 LINE",
"199 1303 LINE",
"397 1069 LINE",
"522 1069 LINE"
);
}
);
width = 825;
}
);
unicode = 00F2;
},
{
glyphname = ohungarumlaut;
layers = (
{
layerId = "D4AD7B3F-884E-49D2-9CE4-555FBB692325";
name = Light;
paths = (
{
closed = 1;
nodes = (
"190 975 OFFCURVE",
"72 819 OFFCURVE",
"72 475 CURVE SMOOTH",
"72 133 OFFCURVE",
"190 -23 OFFCURVE",
"414 -23 CURVE SMOOTH",
"635 -23 OFFCURVE",
"754 133 OFFCURVE",
"754 475 CURVE SMOOTH",
"754 819 OFFCURVE",
"635 975 OFFCURVE",
"414 975 CURVE SMOOTH"
);
},
{
closed = 1;
nodes = (
"537 842 OFFCURVE",
"598 729 OFFCURVE",
"598 510 CURVE SMOOTH",
"598 442 LINE SMOOTH",
"598 223 OFFCURVE",
"537 111 OFFCURVE",
"414 111 CURVE SMOOTH",
"289 111 OFFCURVE",
"227 223 OFFCURVE",
"227 442 CURVE SMOOTH",
"227 510 LINE SMOOTH",
"227 729 OFFCURVE",
"289 842 OFFCURVE",
"414 842 CURVE SMOOTH"
);
},
{
closed = 1;
nodes = (
"754 1303 LINE",
"752 1309 LINE",
"588 1309 LINE",
"475 1069 LINE",
"600 1069 LINE"
);
},
{
closed = 1;
nodes = (
"516 1303 LINE",
"514 1309 LINE",
"350 1309 LINE",
"240 1069 LINE",
"365 1069 LINE"
);
}
);
width = 825;
}
);
unicode = 0151;
},
{
glyphname = omacron;
layers = (
{
layerId = "D4AD7B3F-884E-49D2-9CE4-555FBB692325";
name = Light;
paths = (
{
closed = 1;
nodes = (
"190 975 OFFCURVE",
"72 819 OFFCURVE",
"72 475 CURVE SMOOTH",
"72 133 OFFCURVE",
"190 -23 OFFCURVE",
"414 -23 CURVE SMOOTH",
"635 -23 OFFCURVE",
"754 133 OFFCURVE",
"754 475 CURVE SMOOTH",
"754 819 OFFCURVE",
"635 975 OFFCURVE",
"414 975 CURVE SMOOTH"
);
},
{
closed = 1;
nodes = (
"537 842 OFFCURVE",
"598 729 OFFCURVE",
"598 510 CURVE SMOOTH",
"598 442 LINE SMOOTH",
"598 223 OFFCURVE",
"537 111 OFFCURVE",
"414 111 CURVE SMOOTH",
"289 111 OFFCURVE",
"227 223 OFFCURVE",
"227 442 CURVE SMOOTH",
"227 510 LINE SMOOTH",
"227 729 OFFCURVE",
"289 842 OFFCURVE",
"414 842 CURVE SMOOTH"
);
},
{
closed = 1;
nodes = (
"641 1085 LINE",
"641 1214 LINE",
"186 1214 LINE",
"186 1085 LINE"
);
}
);
width = 825;
}
);
unicode = 014D;
},
{
glyphname = oslash;
layers = (
{
anchors = (
{
name = top;
position = "{455, 952}";
}
);
layerId = "D4AD7B3F-884E-49D2-9CE4-555FBB692325";
name = Light;
paths = (
{
closed = 1;
nodes = (
"793 1010 LINE",
"694 1010 LINE",
"643 918 LINE",
"592 956 OFFCURVE",
"528 975 OFFCURVE",
"453 975 CURVE SMOOTH",
"229 975 OFFCURVE",
"113 819 OFFCURVE",
"113 475 CURVE SMOOTH",
"113 305 OFFCURVE",
"141 180 OFFCURVE",
"197 100 CURVE",
"113 -57 LINE",
"211 -57 LINE",
"260 35 LINE",
"311 -4 OFFCURVE",
"377 -23 OFFCURVE",
"453 -23 CURVE SMOOTH",
"676 -23 OFFCURVE",
"793 133 OFFCURVE",
"793 475 CURVE SMOOTH",
"793 647 OFFCURVE",
"764 772 OFFCURVE",
"707 852 CURVE"
);
},
{
closed = 1;
nodes = (
"616 688 LINE",
"631 641 OFFCURVE",
"637 582 OFFCURVE",
"637 510 CURVE SMOOTH",
"637 442 LINE SMOOTH",
"637 223 OFFCURVE",
"575 111 OFFCURVE",
"453 111 CURVE SMOOTH",
"401 111 OFFCURVE",
"362 129 OFFCURVE",
"334 164 CURVE"
);
},
{
closed = 1;
nodes = (
"502 842 OFFCURVE",
"541 823 OFFCURVE",
"571 788 CURVE",
"287 262 LINE",
"272 311 OFFCURVE",
"268 371 OFFCURVE",
"268 442 CURVE SMOOTH",
"268 510 LINE SMOOTH",
"268 729 OFFCURVE",
"330 842 OFFCURVE",
"453 842 CURVE SMOOTH"
);
}
);
width = 907;
}
);
unicode = 00F8;
},
{
glyphname = oslashacute;
layers = (
{
layerId = "D4AD7B3F-884E-49D2-9CE4-555FBB692325";
name = Light;
paths = (
{
closed = 1;
nodes = (
"793 1010 LINE",
"694 1010 LINE",
"643 918 LINE",
"592 956 OFFCURVE",
"528 975 OFFCURVE",
"453 975 CURVE SMOOTH",
"229 975 OFFCURVE",
"113 819 OFFCURVE",
"113 475 CURVE SMOOTH",
"113 305 OFFCURVE",
"141 180 OFFCURVE",
"197 100 CURVE",
"113 -57 LINE",
"211 -57 LINE",
"260 35 LINE",
"311 -4 OFFCURVE",
"377 -23 OFFCURVE",
"453 -23 CURVE SMOOTH",
"676 -23 OFFCURVE",
"793 133 OFFCURVE",
"793 475 CURVE SMOOTH",
"793 647 OFFCURVE",
"764 772 OFFCURVE",
"707 852 CURVE"
);
},
{
closed = 1;
nodes = (
"616 688 LINE",
"631 641 OFFCURVE",
"637 582 OFFCURVE",
"637 510 CURVE SMOOTH",
"637 442 LINE SMOOTH",
"637 223 OFFCURVE",
"575 111 OFFCURVE",
"453 111 CURVE SMOOTH",
"401 111 OFFCURVE",
"362 129 OFFCURVE",
"334 164 CURVE"
);
},
{
closed = 1;
nodes = (
"502 842 OFFCURVE",
"541 823 OFFCURVE",
"571 788 CURVE",
"287 262 LINE",
"272 311 OFFCURVE",
"268 371 OFFCURVE",
"268 442 CURVE SMOOTH",
"268 510 LINE SMOOTH",
"268 729 OFFCURVE",
"330 842 OFFCURVE",
"453 842 CURVE SMOOTH"
);
},
{
closed = 1;
nodes = (
"664 1309 LINE",
"502 1309 LINE",
"346 1069 LINE",
"471 1069 LINE",
"666 1303 LINE"
);
}
);
width = 907;
}
);
unicode = 01FF;
},
{
glyphname = otilde;
layers = (
{
layerId = "D4AD7B3F-884E-49D2-9CE4-555FBB692325";
name = Light;
paths = (
{
closed = 1;
nodes = (
"190 975 OFFCURVE",
"72 819 OFFCURVE",
"72 475 CURVE SMOOTH",
"72 133 OFFCURVE",
"190 -23 OFFCURVE",
"414 -23 CURVE SMOOTH",
"635 -23 OFFCURVE",
"754 133 OFFCURVE",
"754 475 CURVE SMOOTH",
"754 819 OFFCURVE",
"635 975 OFFCURVE",
"414 975 CURVE SMOOTH"
);
},
{
closed = 1;
nodes = (
"537 842 OFFCURVE",
"598 729 OFFCURVE",
"598 510 CURVE SMOOTH",
"598 442 LINE SMOOTH",
"598 223 OFFCURVE",
"537 111 OFFCURVE",
"414 111 CURVE SMOOTH",
"289 111 OFFCURVE",
"227 223 OFFCURVE",
"227 442 CURVE SMOOTH",
"227 510 LINE SMOOTH",
"227 729 OFFCURVE",
"289 842 OFFCURVE",
"414 842 CURVE SMOOTH"
);
},
{
closed = 1;
nodes = (
"571 1309 LINE",
"567 1268 OFFCURVE",
"543 1253 OFFCURVE",
"510 1253 CURVE SMOOTH",
"440 1253 OFFCURVE",
"381 1309 OFFCURVE",
"303 1309 CURVE SMOOTH",
"195 1309 OFFCURVE",
"147 1204 OFFCURVE",
"147 1120 CURVE",
"254 1120 LINE",
"258 1163 OFFCURVE",
"283 1178 OFFCURVE",
"315 1178 CURVE SMOOTH",
"385 1178 OFFCURVE",
"444 1120 OFFCURVE",
"522 1120 CURVE SMOOTH",
"633 1120 OFFCURVE",
"678 1225 OFFCURVE",
"678 1309 CURVE"
);
}
);
width = 825;
}
);
unicode = 00F5;
},
{
glyphname = oe;
layers = (
{
anchors = (
{
name = top;
position = "{700, 952}";
}
);
layerId = "D4AD7B3F-884E-49D2-9CE4-555FBB692325";
name = Light;
paths = (
{
closed = 1;
nodes = (
"854 975 OFFCURVE",
"760 928 OFFCURVE",
"700 836 CURVE",
"645 928 OFFCURVE",
"555 975 OFFCURVE",
"436 975 CURVE SMOOTH",
"213 975 OFFCURVE",
"96 819 OFFCURVE",
"96 475 CURVE SMOOTH",
"96 133 OFFCURVE",
"213 -23 OFFCURVE",
"436 -23 CURVE SMOOTH",
"555 -23 OFFCURVE",
"645 23 OFFCURVE",
"700 117 CURVE",
"760 20 OFFCURVE",
"856 -23 OFFCURVE",
"985 -23 CURVE SMOOTH",
"1169 -23 OFFCURVE",
"1296 111 OFFCURVE",
"1296 324 CURVE",
"1149 324 LINE",
"1149 193 OFFCURVE",
"1083 111 OFFCURVE",
"989 111 CURVE SMOOTH",
"848 111 OFFCURVE",
"782 211 OFFCURVE",
"780 432 CURVE",
"1296 432 LINE",
"1296 526 LINE SMOOTH",
"1296 846 OFFCURVE",
"1192 975 OFFCURVE",
"983 975 CURVE SMOOTH"
);
},
{
closed = 1;
nodes = (
"559 842 OFFCURVE",
"621 729 OFFCURVE",
"621 510 CURVE SMOOTH",
"621 442 LINE SMOOTH",
"621 223 OFFCURVE",
"559 111 OFFCURVE",
"436 111 CURVE SMOOTH",
"313 111 OFFCURVE",
"252 223 OFFCURVE",
"252 442 CURVE SMOOTH",
"252 510 LINE SMOOTH",
"252 729 OFFCURVE",
"313 842 OFFCURVE",
"436 842 CURVE SMOOTH"
);
},
{
closed = 1;
nodes = (
"1085 842 OFFCURVE",
"1141 745 OFFCURVE",
"1141 565 CURVE",
"782 565 LINE",
"795 748 OFFCURVE",
"850 842 OFFCURVE",
"983 842 CURVE SMOOTH"
);
}
);
width = 1401;
}
);
unicode = 0153;
},
{
glyphname = p;
layers = (
{
layerId = "D4AD7B3F-884E-49D2-9CE4-555FBB692325";
name = Light;
paths = (
{
closed = 1;
nodes = (
"371 975 OFFCURVE",
"295 928 OFFCURVE",
"250 842 CURVE",
"242 842 LINE",
"221 952 LINE",
"109 952 LINE",
"109 -313 LINE",
"258 -313 LINE",
"258 84 LINE",
"266 84 LINE",
"299 18 OFFCURVE",
"377 -23 OFFCURVE",
"469 -23 CURVE SMOOTH",
"627 -23 OFFCURVE",
"754 129 OFFCURVE",
"754 475 CURVE SMOOTH",
"754 823 OFFCURVE",
"639 975 OFFCURVE",
"459 975 CURVE SMOOTH"
);
},
{
closed = 1;
nodes = (
"541 842 OFFCURVE",
"598 748 OFFCURVE",
"598 510 CURVE SMOOTH",
"598 442 LINE SMOOTH",
"598 205 OFFCURVE",
"541 111 OFFCURVE",
"428 111 CURVE SMOOTH",
"313 111 OFFCURVE",
"258 223 OFFCURVE",
"258 442 CURVE SMOOTH",
"258 510 LINE SMOOTH",
"258 729 OFFCURVE",
"313 842 OFFCURVE",
"428 842 CURVE SMOOTH"
);
}
);
width = 825;
}
);
unicode = 0070;
},
{
glyphname = thorn;
layers = (
{
layerId = "D4AD7B3F-884E-49D2-9CE4-555FBB692325";
name = Light;
paths = (
{
closed = 1;
nodes = (
"258 1309 LINE",
"109 1309 LINE",
"109 -313 LINE",
"258 -313 LINE",
"258 84 LINE",
"266 84 LINE",
"299 18 OFFCURVE",
"377 -23 OFFCURVE",
"469 -23 CURVE SMOOTH",
"627 -23 OFFCURVE",
"754 129 OFFCURVE",
"754 475 CURVE SMOOTH",
"754 823 OFFCURVE",
"639 975 OFFCURVE",
"459 975 CURVE SMOOTH",
"375 975 OFFCURVE",
"303 932 OFFCURVE",
"264 866 CURVE",
"258 868 LINE"
);
},
{
closed = 1;
nodes = (
"541 842 OFFCURVE",
"598 748 OFFCURVE",
"598 510 CURVE SMOOTH",
"598 442 LINE SMOOTH",
"598 205 OFFCURVE",
"541 111 OFFCURVE",
"428 111 CURVE SMOOTH",
"313 111 OFFCURVE",
"258 223 OFFCURVE",
"258 442 CURVE SMOOTH",
"258 510 LINE SMOOTH",
"258 729 OFFCURVE",
"313 842 OFFCURVE",
"428 842 CURVE SMOOTH"
);
}
);
width = 825;
}
);
unicode = 00FE;
},
{
glyphname = q;
layers = (
{
layerId = "D4AD7B3F-884E-49D2-9CE4-555FBB692325";
name = Light;
paths = (
{
closed = 1;
nodes = (
"186 975 OFFCURVE",
"72 823 OFFCURVE",
"72 475 CURVE SMOOTH",
"72 129 OFFCURVE",
"199 -23 OFFCURVE",
"356 -23 CURVE SMOOTH",
"449 -23 OFFCURVE",
"526 18 OFFCURVE",
"559 84 CURVE",
"569 84 LINE",
"569 -313 LINE",
"717 -313 LINE",
"717 952 LINE",
"604 952 LINE",
"586 842 LINE",
"575 842 LINE",
"530 928 OFFCURVE",
"455 975 OFFCURVE",
"367 975 CURVE SMOOTH"
);
},
{
closed = 1;
nodes = (
"512 842 OFFCURVE",
"569 729 OFFCURVE",
"569 510 CURVE SMOOTH",
"569 442 LINE SMOOTH",
"569 223 OFFCURVE",
"512 111 OFFCURVE",
"397 111 CURVE SMOOTH",
"285 111 OFFCURVE",
"227 205 OFFCURVE",
"227 442 CURVE SMOOTH",
"227 510 LINE SMOOTH",
"227 748 OFFCURVE",
"285 842 OFFCURVE",
"397 842 CURVE SMOOTH"
);
}
);
width = 825;
}
);
unicode = 0071;
},
{
glyphname = r;
layers = (
{
anchors = (
{
name = bottom;
position = "{248, 0}";
},
{
name = top;
position = "{248, 952}";
}
);
layerId = "D4AD7B3F-884E-49D2-9CE4-555FBB692325";
name = Light;
paths = (
{
closed = 1;
nodes = (
"322 975 OFFCURVE",
"274 899 OFFCURVE",
"252 827 CURVE",
"242 827 LINE",
"221 952 LINE",
"109 952 LINE",
"109 0 LINE",
"258 0 LINE",
"258 582 LINE SMOOTH",
"258 750 OFFCURVE",
"340 805 OFFCURVE",
"434 805 CURVE SMOOTH",
"483 805 LINE",
"483 961 LINE",
"483 961 OFFCURVE",
"453 975 OFFCURVE",
"414 975 CURVE SMOOTH"
);
}
);
width = 494;
}
);
unicode = 0072;
},
{
glyphname = racute;
layers = (
{
layerId = "D4AD7B3F-884E-49D2-9CE4-555FBB692325";
name = Light;
paths = (
{
closed = 1;
nodes = (
"322 975 OFFCURVE",
"274 899 OFFCURVE",
"252 827 CURVE",
"242 827 LINE",
"221 952 LINE",
"109 952 LINE",
"109 0 LINE",
"258 0 LINE",
"258 582 LINE SMOOTH",
"258 750 OFFCURVE",
"340 805 OFFCURVE",
"434 805 CURVE SMOOTH",
"483 805 LINE",
"483 961 LINE",
"483 961 OFFCURVE",
"453 975 OFFCURVE",
"414 975 CURVE SMOOTH"
);
},
{
closed = 1;
nodes = (
"379 1309 LINE",
"215 1309 LINE",
"59 1069 LINE",
"186 1069 LINE",
"381 1303 LINE"
);
}
);
width = 494;
}
);
unicode = 0155;
},
{
glyphname = rcaron;
layers = (
{
layerId = "D4AD7B3F-884E-49D2-9CE4-555FBB692325";
name = Light;
paths = (
{
closed = 1;
nodes = (
"322 975 OFFCURVE",
"274 899 OFFCURVE",
"252 827 CURVE",
"242 827 LINE",
"221 952 LINE",
"109 952 LINE",
"109 0 LINE",
"258 0 LINE",
"258 582 LINE SMOOTH",
"258 750 OFFCURVE",
"340 805 OFFCURVE",
"434 805 CURVE SMOOTH",
"483 805 LINE",
"483 961 LINE",
"483 961 OFFCURVE",
"453 975 OFFCURVE",
"414 975 CURVE SMOOTH"
);
},
{
closed = 1;
nodes = (
"291 1065 LINE",
"446 1309 LINE",
"303 1309 LINE",
"221 1165 LINE",
"141 1309 LINE",
"-6 1309 LINE",
"150 1065 LINE"
);
}
);
width = 494;
}
);
unicode = 0159;
},
{
glyphname = rcommaaccent;
layers = (
{
layerId = "D4AD7B3F-884E-49D2-9CE4-555FBB692325";
name = Light;
paths = (
{
closed = 1;
nodes = (
"322 975 OFFCURVE",
"274 899 OFFCURVE",
"252 827 CURVE",
"242 827 LINE",
"221 952 LINE",
"109 952 LINE",
"109 0 LINE",
"258 0 LINE",
"258 582 LINE SMOOTH",
"258 750 OFFCURVE",
"340 805 OFFCURVE",
"434 805 CURVE SMOOTH",
"483 805 LINE",
"483 961 LINE",
"483 961 OFFCURVE",
"453 975 OFFCURVE",
"414 975 CURVE SMOOTH"
);
},
{
closed = 1;
nodes = (
"274 -260 LINE",
"274 -109 LINE",
"119 -109 LINE",
"119 -272 LINE",
"182 -272 LINE",
"141 -401 LINE",
"223 -401 LINE"
);
}
);
width = 494;
}
);
unicode = 0157;
},
{
glyphname = s;
layers = (
{
anchors = (
{
name = bottom;
position = "{371, 0}";
},
{
name = top;
position = "{371, 952}";
}
);
layerId = "D4AD7B3F-884E-49D2-9CE4-555FBB692325";
name = Light;
paths = (
{
closed = 1;
nodes = (
"197 975 OFFCURVE",
"82 870 OFFCURVE",
"82 702 CURVE SMOOTH",
"82 360 OFFCURVE",
"516 489 OFFCURVE",
"516 250 CURVE SMOOTH",
"516 158 OFFCURVE",
"451 109 OFFCURVE",
"373 109 CURVE SMOOTH",
"287 109 OFFCURVE",
"217 160 OFFCURVE",
"217 279 CURVE SMOOTH",
"217 297 LINE",
"61 297 LINE",
"61 293 OFFCURVE",
"59 283 OFFCURVE",
"59 258 CURVE SMOOTH",
"59 117 OFFCURVE",
"147 -23 OFFCURVE",
"367 -23 CURVE SMOOTH",
"541 -23 OFFCURVE",
"670 68 OFFCURVE",
"670 272 CURVE SMOOTH",
"670 627 OFFCURVE",
"236 506 OFFCURVE",
"236 713 CURVE SMOOTH",
"236 766 OFFCURVE",
"258 844 OFFCURVE",
"365 844 CURVE SMOOTH",
"465 844 OFFCURVE",
"496 770 OFFCURVE",
"496 694 CURVE SMOOTH",
"496 678 LINE",
"649 678 LINE",
"649 682 OFFCURVE",
"651 700 OFFCURVE",
"651 713 CURVE SMOOTH",
"651 854 OFFCURVE",
"555 975 OFFCURVE",
"379 975 CURVE SMOOTH"
);
}
);
width = 741;
}
);
unicode = 0073;
},
{
glyphname = sacute;
layers = (
{
layerId = "D4AD7B3F-884E-49D2-9CE4-555FBB692325";
name = Light;
paths = (
{
closed = 1;
nodes = (
"197 975 OFFCURVE",
"82 870 OFFCURVE",
"82 702 CURVE SMOOTH",
"82 360 OFFCURVE",
"516 489 OFFCURVE",
"516 250 CURVE SMOOTH",
"516 158 OFFCURVE",
"451 109 OFFCURVE",
"373 109 CURVE SMOOTH",
"287 109 OFFCURVE",
"217 160 OFFCURVE",
"217 279 CURVE SMOOTH",
"217 297 LINE",
"61 297 LINE",
"61 293 OFFCURVE",
"59 283 OFFCURVE",
"59 258 CURVE SMOOTH",
"59 117 OFFCURVE",
"147 -23 OFFCURVE",
"367 -23 CURVE SMOOTH",
"541 -23 OFFCURVE",
"670 68 OFFCURVE",
"670 272 CURVE SMOOTH",
"670 627 OFFCURVE",
"236 506 OFFCURVE",
"236 713 CURVE SMOOTH",
"236 766 OFFCURVE",
"258 844 OFFCURVE",
"365 844 CURVE SMOOTH",
"465 844 OFFCURVE",
"496 770 OFFCURVE",
"496 694 CURVE SMOOTH",
"496 678 LINE",
"649 678 LINE",
"649 682 OFFCURVE",
"651 700 OFFCURVE",
"651 713 CURVE SMOOTH",
"651 854 OFFCURVE",
"555 975 OFFCURVE",
"379 975 CURVE SMOOTH"
);
},
{
closed = 1;
nodes = (
"582 1309 LINE",
"418 1309 LINE",
"264 1069 LINE",
"389 1069 LINE",
"584 1303 LINE"
);
}
);
width = 741;
}
);
unicode = 015B;
},
{
glyphname = scaron;
layers = (
{
layerId = "D4AD7B3F-884E-49D2-9CE4-555FBB692325";
name = Light;
paths = (
{
closed = 1;
nodes = (
"197 975 OFFCURVE",
"82 870 OFFCURVE",
"82 702 CURVE SMOOTH",
"82 360 OFFCURVE",
"516 489 OFFCURVE",
"516 250 CURVE SMOOTH",
"516 158 OFFCURVE",
"451 109 OFFCURVE",
"373 109 CURVE SMOOTH",
"287 109 OFFCURVE",
"217 160 OFFCURVE",
"217 279 CURVE SMOOTH",
"217 297 LINE",
"61 297 LINE",
"61 293 OFFCURVE",
"59 283 OFFCURVE",
"59 258 CURVE SMOOTH",
"59 117 OFFCURVE",
"147 -23 OFFCURVE",
"367 -23 CURVE SMOOTH",
"541 -23 OFFCURVE",
"670 68 OFFCURVE",
"670 272 CURVE SMOOTH",
"670 627 OFFCURVE",
"236 506 OFFCURVE",
"236 713 CURVE SMOOTH",
"236 766 OFFCURVE",
"258 844 OFFCURVE",
"365 844 CURVE SMOOTH",
"465 844 OFFCURVE",
"496 770 OFFCURVE",
"496 694 CURVE SMOOTH",
"496 678 LINE",
"649 678 LINE",
"649 682 OFFCURVE",
"651 700 OFFCURVE",
"651 713 CURVE SMOOTH",
"651 854 OFFCURVE",
"555 975 OFFCURVE",
"379 975 CURVE SMOOTH"
);
},
{
closed = 1;
nodes = (
"598 1309 LINE",
"453 1309 LINE",
"371 1165 LINE",
"291 1309 LINE",
"147 1309 LINE",
"301 1065 LINE",
"442 1065 LINE"
);
}
);
width = 741;
}
);
unicode = 0161;
},
{
glyphname = scedilla;
layers = (
{
layerId = "D4AD7B3F-884E-49D2-9CE4-555FBB692325";
name = Light;
paths = (
{
closed = 1;
nodes = (
"197 975 OFFCURVE",
"82 870 OFFCURVE",
"82 702 CURVE SMOOTH",
"82 360 OFFCURVE",
"516 489 OFFCURVE",
"516 250 CURVE SMOOTH",
"516 158 OFFCURVE",
"451 109 OFFCURVE",
"373 109 CURVE SMOOTH",
"287 109 OFFCURVE",
"217 160 OFFCURVE",
"217 279 CURVE SMOOTH",
"217 297 LINE",
"61 297 LINE",
"61 293 OFFCURVE",
"59 283 OFFCURVE",
"59 258 CURVE SMOOTH",
"59 131 OFFCURVE",
"129 6 OFFCURVE",
"301 -18 CURVE",
"283 -139 LINE",
"342 -139 LINE SMOOTH",
"389 -139 OFFCURVE",
"403 -154 OFFCURVE",
"403 -182 CURVE SMOOTH",
"403 -217 OFFCURVE",
"379 -227 OFFCURVE",
"338 -227 CURVE SMOOTH",
"201 -227 LINE",
"201 -315 LINE",
"244 -324 OFFCURVE",
"303 -330 OFFCURVE",
"352 -330 CURVE SMOOTH",
"428 -330 OFFCURVE",
"541 -305 OFFCURVE",
"541 -182 CURVE SMOOTH",
"541 -100 OFFCURVE",
"473 -70 OFFCURVE",
"395 -66 CURVE",
"399 -20 LINE",
"557 -8 OFFCURVE",
"670 80 OFFCURVE",
"670 272 CURVE SMOOTH",
"670 627 OFFCURVE",
"236 506 OFFCURVE",
"236 713 CURVE SMOOTH",
"236 766 OFFCURVE",
"258 844 OFFCURVE",
"365 844 CURVE SMOOTH",
"465 844 OFFCURVE",
"496 770 OFFCURVE",
"496 694 CURVE SMOOTH",
"496 678 LINE",
"649 678 LINE",
"649 682 OFFCURVE",
"651 700 OFFCURVE",
"651 713 CURVE SMOOTH",
"651 854 OFFCURVE",
"555 975 OFFCURVE",
"379 975 CURVE SMOOTH"
);
}
);
width = 741;
}
);
unicode = 015F;
},
{
glyphname = scircumflex;
layers = (
{
layerId = "D4AD7B3F-884E-49D2-9CE4-555FBB692325";
name = Light;
paths = (
{
closed = 1;
nodes = (
"197 975 OFFCURVE",
"82 870 OFFCURVE",
"82 702 CURVE SMOOTH",
"82 360 OFFCURVE",
"516 489 OFFCURVE",
"516 250 CURVE SMOOTH",
"516 158 OFFCURVE",
"451 109 OFFCURVE",
"373 109 CURVE SMOOTH",
"287 109 OFFCURVE",
"217 160 OFFCURVE",
"217 279 CURVE SMOOTH",
"217 297 LINE",
"61 297 LINE",
"61 293 OFFCURVE",
"59 283 OFFCURVE",
"59 258 CURVE SMOOTH",
"59 117 OFFCURVE",
"147 -23 OFFCURVE",
"367 -23 CURVE SMOOTH",
"541 -23 OFFCURVE",
"670 68 OFFCURVE",
"670 272 CURVE SMOOTH",
"670 627 OFFCURVE",
"236 506 OFFCURVE",
"236 713 CURVE SMOOTH",
"236 766 OFFCURVE",
"258 844 OFFCURVE",
"365 844 CURVE SMOOTH",
"465 844 OFFCURVE",
"496 770 OFFCURVE",
"496 694 CURVE SMOOTH",
"496 678 LINE",
"649 678 LINE",
"649 682 OFFCURVE",
"651 700 OFFCURVE",
"651 713 CURVE SMOOTH",
"651 854 OFFCURVE",
"555 975 OFFCURVE",
"379 975 CURVE SMOOTH"
);
},
{
closed = 1;
nodes = (
"444 1307 LINE",
"303 1307 LINE",
"147 1063 LINE",
"291 1063 LINE",
"373 1206 LINE",
"453 1063 LINE",
"598 1063 LINE"
);
}
);
width = 741;
}
);
unicode = 015D;
},
{
glyphname = germandbls;
layers = (
{
layerId = "D4AD7B3F-884E-49D2-9CE4-555FBB692325";
name = Light;
paths = (
{
closed = 1;
nodes = (
"254 1331 OFFCURVE",
"90 1217 OFFCURVE",
"90 934 CURVE SMOOTH",
"90 0 LINE",
"240 0 LINE",
"240 938 LINE SMOOTH",
"240 1110 OFFCURVE",
"322 1198 OFFCURVE",
"451 1198 CURVE SMOOTH",
"580 1198 OFFCURVE",
"647 1114 OFFCURVE",
"647 987 CURVE SMOOTH",
"647 866 OFFCURVE",
"557 766 OFFCURVE",
"446 766 CURVE SMOOTH",
"340 766 LINE",
"340 633 LINE",
"461 633 LINE SMOOTH",
"586 633 OFFCURVE",
"686 522 OFFCURVE",
"686 389 CURVE SMOOTH",
"686 248 OFFCURVE",
"586 133 OFFCURVE",
"461 133 CURVE SMOOTH",
"340 133 LINE",
"340 0 LINE",
"475 0 LINE SMOOTH",
"678 0 OFFCURVE",
"838 154 OFFCURVE",
"838 387 CURVE SMOOTH",
"838 526 OFFCURVE",
"752 664 OFFCURVE",
"629 709 CURVE",
"629 715 LINE",
"729 756 OFFCURVE",
"801 872 OFFCURVE",
"801 991 CURVE SMOOTH",
"801 1204 OFFCURVE",
"655 1331 OFFCURVE",
"461 1331 CURVE SMOOTH"
);
}
);
width = 907;
}
);
unicode = 00DF;
},
{
glyphname = longs;
layers = (
{
layerId = "D4AD7B3F-884E-49D2-9CE4-555FBB692325";
name = Light;
paths = (
{
closed = 1;
nodes = (
"143 1323 OFFCURVE",
"100 1212 OFFCURVE",
"100 1104 CURVE SMOOTH",
"100 952 LINE",
"16 952 LINE",
"16 819 LINE",
"100 819 LINE",
"100 0 LINE",
"248 0 LINE",
"248 1112 LINE SMOOTH",
"248 1167 OFFCURVE",
"276 1198 OFFCURVE",
"334 1198 CURVE SMOOTH",
"414 1198 LINE",
"414 1303 LINE",
"383 1313 OFFCURVE",
"332 1323 OFFCURVE",
"289 1323 CURVE SMOOTH"
);
}
);
width = 330;
}
);
unicode = 017F;
},
{
glyphname = t;
layers = (
{
anchors = (
{
name = bottom;
position = "{242, 0}";
},
{
name = center;
position = "{207, 475}";
}
);
layerId = "D4AD7B3F-884E-49D2-9CE4-555FBB692325";
name = Light;
paths = (
{
closed = 1;
nodes = (
"256 952 LINE",
"256 1217 LINE",
"139 1217 LINE",
"106 952 LINE",
"25 952 LINE",
"25 819 LINE",
"106 819 LINE",
"106 201 LINE SMOOTH",
"106 92 OFFCURVE",
"147 -18 OFFCURVE",
"276 -18 CURVE SMOOTH",
"313 -18 OFFCURVE",
"358 -8 OFFCURVE",
"383 8 CURVE",
"383 111 LINE",
"340 111 LINE SMOOTH",
"285 111 OFFCURVE",
"256 141 OFFCURVE",
"256 197 CURVE SMOOTH",
"256 819 LINE",
"383 819 LINE",
"383 952 LINE"
);
}
);
width = 414;
}
);
unicode = 0074;
},
{
glyphname = tbar;
layers = (
{
layerId = "D4AD7B3F-884E-49D2-9CE4-555FBB692325";
name = Light;
paths = (
{
closed = 1;
nodes = (
"256 1217 LINE",
"139 1217 LINE",
"106 952 LINE",
"25 952 LINE",
"25 819 LINE",
"106 819 LINE",
"106 633 LINE",
"29 633 LINE",
"29 508 LINE",
"106 508 LINE",
"106 201 LINE SMOOTH",
"106 92 OFFCURVE",
"147 -18 OFFCURVE",
"276 -18 CURVE SMOOTH",
"313 -18 OFFCURVE",
"358 -8 OFFCURVE",
"383 8 CURVE",
"383 111 LINE",
"340 111 LINE SMOOTH",
"285 111 OFFCURVE",
"256 141 OFFCURVE",
"256 197 CURVE SMOOTH",
"256 508 LINE",
"375 508 LINE",
"375 633 LINE",
"256 633 LINE",
"256 819 LINE",
"383 819 LINE",
"383 952 LINE",
"256 952 LINE"
);
}
);
width = 414;
}
);
unicode = 0167;
},
{
glyphname = tcaron;
layers = (
{
layerId = "D4AD7B3F-884E-49D2-9CE4-555FBB692325";
name = Light;
paths = (
{
closed = 1;
nodes = (
"256 952 LINE",
"256 1217 LINE",
"139 1217 LINE",
"106 952 LINE",
"25 952 LINE",
"25 819 LINE",
"106 819 LINE",
"106 201 LINE SMOOTH",
"106 92 OFFCURVE",
"147 -18 OFFCURVE",
"276 -18 CURVE SMOOTH",
"313 -18 OFFCURVE",
"358 -8 OFFCURVE",
"383 8 CURVE",
"383 111 LINE",
"340 111 LINE SMOOTH",
"285 111 OFFCURVE",
"256 141 OFFCURVE",
"256 197 CURVE SMOOTH",
"256 819 LINE",
"383 819 LINE",
"383 952 LINE"
);
},
{
closed = 1;
nodes = (
"639 1063 LINE",
"639 1241 LINE",
"457 1241 LINE",
"457 1047 LINE",
"528 1047 LINE",
"457 821 LINE",
"551 821 LINE"
);
}
);
width = 555;
}
);
unicode = 0165;
},
{
glyphname = tcommaaccent;
layers = (
{
layerId = "D4AD7B3F-884E-49D2-9CE4-555FBB692325";
name = Light;
paths = (
{
closed = 1;
nodes = (
"256 952 LINE",
"256 1217 LINE",
"139 1217 LINE",
"106 952 LINE",
"25 952 LINE",
"25 819 LINE",
"106 819 LINE",
"106 201 LINE SMOOTH",
"106 92 OFFCURVE",
"147 -18 OFFCURVE",
"276 -18 CURVE SMOOTH",
"313 -18 OFFCURVE",
"358 -8 OFFCURVE",
"383 8 CURVE",
"383 111 LINE",
"340 111 LINE SMOOTH",
"285 111 OFFCURVE",
"256 141 OFFCURVE",
"256 197 CURVE SMOOTH",
"256 819 LINE",
"383 819 LINE",
"383 952 LINE"
);
},
{
closed = 1;
nodes = (
"285 -260 LINE",
"285 -109 LINE",
"131 -109 LINE",
"131 -272 LINE",
"193 -272 LINE",
"150 -401 LINE",
"231 -401 LINE"
);
}
);
width = 414;
}
);
unicode = 021B;
},
{
glyphname = u;
layers = (
{
anchors = (
{
name = ogonek;
position = "{741, 18}";
},
{
name = top;
position = "{414, 952}";
}
);
layerId = "D4AD7B3F-884E-49D2-9CE4-555FBB692325";
name = Light;
paths = (
{
closed = 1;
nodes = (
"717 0 LINE",
"717 952 LINE",
"569 952 LINE",
"569 371 LINE SMOOTH",
"569 207 OFFCURVE",
"485 111 OFFCURVE",
"391 111 CURVE SMOOTH",
"311 111 OFFCURVE",
"258 145 OFFCURVE",
"258 276 CURVE SMOOTH",
"258 952 LINE",
"109 952 LINE",
"109 266 LINE SMOOTH",
"109 55 OFFCURVE",
"201 -23 OFFCURVE",
"344 -23 CURVE SMOOTH",
"438 -23 OFFCURVE",
"522 16 OFFCURVE",
"573 111 CURVE",
"586 111 LINE",
"604 0 LINE"
);
}
);
width = 825;
}
);
unicode = 0075;
},
{
glyphname = uacute;
layers = (
{
layerId = "D4AD7B3F-884E-49D2-9CE4-555FBB692325";
name = Light;
paths = (
{
closed = 1;
nodes = (
"717 952 LINE",
"569 952 LINE",
"569 371 LINE SMOOTH",
"569 207 OFFCURVE",
"485 111 OFFCURVE",
"391 111 CURVE SMOOTH",
"311 111 OFFCURVE",
"258 145 OFFCURVE",
"258 276 CURVE SMOOTH",
"258 952 LINE",
"109 952 LINE",
"109 266 LINE SMOOTH",
"109 55 OFFCURVE",
"201 -23 OFFCURVE",
"344 -23 CURVE SMOOTH",
"438 -23 OFFCURVE",
"522 16 OFFCURVE",
"573 111 CURVE",
"586 111 LINE",
"604 0 LINE",
"717 0 LINE"
);
},
{
closed = 1;
nodes = (
"623 1309 LINE",
"461 1309 LINE",
"305 1069 LINE",
"430 1069 LINE",
"625 1303 LINE"
);
}
);
width = 825;
}
);
unicode = 00FA;
},
{
glyphname = ubreve;
layers = (
{
layerId = "D4AD7B3F-884E-49D2-9CE4-555FBB692325";
name = Light;
paths = (
{
closed = 1;
nodes = (
"717 0 LINE",
"717 952 LINE",
"569 952 LINE",
"569 371 LINE SMOOTH",
"569 207 OFFCURVE",
"485 111 OFFCURVE",
"391 111 CURVE SMOOTH",
"311 111 OFFCURVE",
"258 145 OFFCURVE",
"258 276 CURVE SMOOTH",
"258 952 LINE",
"109 952 LINE",
"109 266 LINE SMOOTH",
"109 55 OFFCURVE",
"201 -23 OFFCURVE",
"344 -23 CURVE SMOOTH",
"438 -23 OFFCURVE",
"522 16 OFFCURVE",
"573 111 CURVE",
"586 111 LINE",
"604 0 LINE"
);
},
{
closed = 1;
nodes = (
"522 1309 LINE",
"518 1284 OFFCURVE",
"475 1249 OFFCURVE",
"414 1249 CURVE SMOOTH",
"350 1249 OFFCURVE",
"311 1284 OFFCURVE",
"305 1309 CURVE",
"188 1309 LINE",
"188 1227 OFFCURVE",
"274 1133 OFFCURVE",
"414 1133 CURVE SMOOTH",
"553 1133 OFFCURVE",
"637 1227 OFFCURVE",
"637 1309 CURVE"
);
}
);
width = 825;
}
);
unicode = 016D;
},
{
glyphname = ucircumflex;
layers = (
{
layerId = "D4AD7B3F-884E-49D2-9CE4-555FBB692325";
name = Light;
paths = (
{
closed = 1;
nodes = (
"717 0 LINE",
"717 952 LINE",
"569 952 LINE",
"569 371 LINE SMOOTH",
"569 207 OFFCURVE",
"485 111 OFFCURVE",
"391 111 CURVE SMOOTH",
"311 111 OFFCURVE",
"258 145 OFFCURVE",
"258 276 CURVE SMOOTH",
"258 952 LINE",
"109 952 LINE",
"109 266 LINE SMOOTH",
"109 55 OFFCURVE",
"201 -23 OFFCURVE",
"344 -23 CURVE SMOOTH",
"438 -23 OFFCURVE",
"522 16 OFFCURVE",
"573 111 CURVE",
"586 111 LINE",
"604 0 LINE"
);
},
{
closed = 1;
nodes = (
"639 1063 LINE",
"485 1307 LINE",
"342 1307 LINE",
"188 1063 LINE",
"334 1063 LINE",
"414 1206 LINE",
"494 1063 LINE"
);
}
);
width = 825;
}
);
unicode = 00FB;
},
{
glyphname = udieresis;
layers = (
{
layerId = "D4AD7B3F-884E-49D2-9CE4-555FBB692325";
name = Light;
paths = (
{
closed = 1;
nodes = (
"717 952 LINE",
"569 952 LINE",
"569 371 LINE SMOOTH",
"569 207 OFFCURVE",
"485 111 OFFCURVE",
"391 111 CURVE SMOOTH",
"311 111 OFFCURVE",
"258 145 OFFCURVE",
"258 276 CURVE SMOOTH",
"258 952 LINE",
"109 952 LINE",
"109 266 LINE SMOOTH",
"109 55 OFFCURVE",
"201 -23 OFFCURVE",
"344 -23 CURVE SMOOTH",
"438 -23 OFFCURVE",
"522 16 OFFCURVE",
"573 111 CURVE",
"586 111 LINE",
"604 0 LINE",
"717 0 LINE"
);
},
{
closed = 1;
nodes = (
"354 1309 LINE",
"197 1309 LINE",
"197 1137 LINE",
"354 1137 LINE"
);
},
{
closed = 1;
nodes = (
"629 1309 LINE",
"469 1309 LINE",
"469 1137 LINE",
"629 1137 LINE"
);
}
);
width = 825;
}
);
unicode = 00FC;
},
{
glyphname = ugrave;
layers = (
{
layerId = "D4AD7B3F-884E-49D2-9CE4-555FBB692325";
name = Light;
paths = (
{
closed = 1;
nodes = (
"717 952 LINE",
"569 952 LINE",
"569 371 LINE SMOOTH",
"569 207 OFFCURVE",
"485 111 OFFCURVE",
"391 111 CURVE SMOOTH",
"311 111 OFFCURVE",
"258 145 OFFCURVE",
"258 276 CURVE SMOOTH",
"258 952 LINE",
"109 952 LINE",
"109 266 LINE SMOOTH",
"109 55 OFFCURVE",
"201 -23 OFFCURVE",
"344 -23 CURVE SMOOTH",
"438 -23 OFFCURVE",
"522 16 OFFCURVE",
"573 111 CURVE",
"586 111 LINE",
"604 0 LINE",
"717 0 LINE"
);
},
{
closed = 1;
nodes = (
"367 1309 LINE",
"201 1309 LINE",
"199 1303 LINE",
"397 1069 LINE",
"522 1069 LINE"
);
}
);
width = 825;
}
);
unicode = 00F9;
},
{
glyphname = uhungarumlaut;
layers = (
{
layerId = "D4AD7B3F-884E-49D2-9CE4-555FBB692325";
name = Light;
paths = (
{
closed = 1;
nodes = (
"717 952 LINE",
"569 952 LINE",
"569 371 LINE SMOOTH",
"569 207 OFFCURVE",
"485 111 OFFCURVE",
"391 111 CURVE SMOOTH",
"311 111 OFFCURVE",
"258 145 OFFCURVE",
"258 276 CURVE SMOOTH",
"258 952 LINE",
"109 952 LINE",
"109 266 LINE SMOOTH",
"109 55 OFFCURVE",
"201 -23 OFFCURVE",
"344 -23 CURVE SMOOTH",
"438 -23 OFFCURVE",
"522 16 OFFCURVE",
"573 111 CURVE",
"586 111 LINE",
"604 0 LINE",
"717 0 LINE"
);
},
{
closed = 1;
nodes = (
"514 1309 LINE",
"350 1309 LINE",
"240 1069 LINE",
"365 1069 LINE",
"516 1303 LINE"
);
},
{
closed = 1;
nodes = (
"752 1309 LINE",
"588 1309 LINE",
"475 1069 LINE",
"600 1069 LINE",
"754 1303 LINE"
);
}
);
width = 825;
}
);
unicode = 0171;
},
{
glyphname = umacron;
layers = (
{
layerId = "D4AD7B3F-884E-49D2-9CE4-555FBB692325";
name = Light;
paths = (
{
closed = 1;
nodes = (
"717 0 LINE",
"717 952 LINE",
"569 952 LINE",
"569 371 LINE SMOOTH",
"569 207 OFFCURVE",
"485 111 OFFCURVE",
"391 111 CURVE SMOOTH",
"311 111 OFFCURVE",
"258 145 OFFCURVE",
"258 276 CURVE SMOOTH",
"258 952 LINE",
"109 952 LINE",
"109 266 LINE SMOOTH",
"109 55 OFFCURVE",
"201 -23 OFFCURVE",
"344 -23 CURVE SMOOTH",
"438 -23 OFFCURVE",
"522 16 OFFCURVE",
"573 111 CURVE",
"586 111 LINE",
"604 0 LINE"
);
},
{
closed = 1;
nodes = (
"641 1085 LINE",
"641 1214 LINE",
"186 1214 LINE",
"186 1085 LINE"
);
}
);
width = 825;
}
);
unicode = 016B;
},
{
glyphname = uogonek;
layers = (
{
layerId = "D4AD7B3F-884E-49D2-9CE4-555FBB692325";
name = Light;
paths = (
{
closed = 1;
nodes = (
"717 952 LINE",
"569 952 LINE",
"569 371 LINE SMOOTH",
"569 207 OFFCURVE",
"485 111 OFFCURVE",
"391 111 CURVE SMOOTH",
"311 111 OFFCURVE",
"258 145 OFFCURVE",
"258 276 CURVE SMOOTH",
"258 952 LINE",
"109 952 LINE",
"109 266 LINE SMOOTH",
"109 55 OFFCURVE",
"201 -23 OFFCURVE",
"344 -23 CURVE SMOOTH",
"438 -23 OFFCURVE",
"522 16 OFFCURVE",
"573 111 CURVE",
"586 111 LINE",
"604 0 LINE",
"616 0 LINE",
"604 8 LINE",
"565 -35 OFFCURVE",
"532 -86 OFFCURVE",
"532 -166 CURVE SMOOTH",
"532 -291 OFFCURVE",
"625 -330 OFFCURVE",
"702 -330 CURVE SMOOTH",
"739 -330 OFFCURVE",
"774 -319 OFFCURVE",
"813 -305 CURVE",
"813 -211 LINE",
"756 -211 LINE SMOOTH",
"694 -211 OFFCURVE",
"674 -164 OFFCURVE",
"674 -113 CURVE SMOOTH",
"674 -70 OFFCURVE",
"696 -27 OFFCURVE",
"717 0 CURVE"
);
}
);
width = 825;
}
);
unicode = 0173;
},
{
glyphname = uring;
layers = (
{
layerId = "D4AD7B3F-884E-49D2-9CE4-555FBB692325";
name = Light;
paths = (
{
closed = 1;
nodes = (
"717 0 LINE",
"717 952 LINE",
"569 952 LINE",
"569 371 LINE SMOOTH",
"569 207 OFFCURVE",
"485 111 OFFCURVE",
"391 111 CURVE SMOOTH",
"311 111 OFFCURVE",
"258 145 OFFCURVE",
"258 276 CURVE SMOOTH",
"258 952 LINE",
"109 952 LINE",
"109 266 LINE SMOOTH",
"109 55 OFFCURVE",
"201 -23 OFFCURVE",
"344 -23 CURVE SMOOTH",
"438 -23 OFFCURVE",
"522 16 OFFCURVE",
"573 111 CURVE",
"586 111 LINE",
"604 0 LINE"
);
},
{
closed = 1;
nodes = (
"317 1366 OFFCURVE",
"240 1288 OFFCURVE",
"240 1194 CURVE SMOOTH",
"240 1094 OFFCURVE",
"319 1018 OFFCURVE",
"414 1018 CURVE SMOOTH",
"508 1018 OFFCURVE",
"586 1096 OFFCURVE",
"586 1194 CURVE SMOOTH",
"586 1286 OFFCURVE",
"510 1366 OFFCURVE",
"414 1366 CURVE SMOOTH"
);
},
{
closed = 1;
nodes = (
"461 1284 OFFCURVE",
"506 1243 OFFCURVE",
"506 1194 CURVE SMOOTH",
"506 1143 OFFCURVE",
"461 1100 OFFCURVE",
"414 1100 CURVE SMOOTH",
"362 1100 OFFCURVE",
"319 1143 OFFCURVE",
"319 1194 CURVE SMOOTH",
"319 1243 OFFCURVE",
"362 1284 OFFCURVE",
"414 1284 CURVE SMOOTH"
);
}
);
width = 825;
}
);
unicode = 016F;
},
{
glyphname = utilde;
layers = (
{
layerId = "D4AD7B3F-884E-49D2-9CE4-555FBB692325";
name = Light;
paths = (
{
closed = 1;
nodes = (
"717 0 LINE",
"717 952 LINE",
"569 952 LINE",
"569 371 LINE SMOOTH",
"569 207 OFFCURVE",
"485 111 OFFCURVE",
"391 111 CURVE SMOOTH",
"311 111 OFFCURVE",
"258 145 OFFCURVE",
"258 276 CURVE SMOOTH",
"258 952 LINE",
"109 952 LINE",
"109 266 LINE SMOOTH",
"109 55 OFFCURVE",
"201 -23 OFFCURVE",
"344 -23 CURVE SMOOTH",
"438 -23 OFFCURVE",
"522 16 OFFCURVE",
"573 111 CURVE",
"586 111 LINE",
"604 0 LINE"
);
},
{
closed = 1;
nodes = (
"571 1309 LINE",
"567 1268 OFFCURVE",
"543 1253 OFFCURVE",
"510 1253 CURVE SMOOTH",
"440 1253 OFFCURVE",
"381 1309 OFFCURVE",
"303 1309 CURVE SMOOTH",
"195 1309 OFFCURVE",
"147 1204 OFFCURVE",
"147 1120 CURVE",
"254 1120 LINE",
"258 1163 OFFCURVE",
"283 1178 OFFCURVE",
"315 1178 CURVE SMOOTH",
"385 1178 OFFCURVE",
"444 1120 OFFCURVE",
"522 1120 CURVE SMOOTH",
"633 1120 OFFCURVE",
"678 1225 OFFCURVE",
"678 1309 CURVE"
);
}
);
width = 825;
}
);
unicode = 0169;
},
{
glyphname = v;
layers = (
{
layerId = "D4AD7B3F-884E-49D2-9CE4-555FBB692325";
name = Light;
paths = (
{
closed = 1;
nodes = (
"725 952 LINE",
"575 952 LINE",
"444 461 LINE SMOOTH",
"424 383 OFFCURVE",
"401 305 OFFCURVE",
"383 227 CURVE",
"375 227 LINE",
"352 307 OFFCURVE",
"334 385 OFFCURVE",
"311 465 CURVE SMOOTH",
"180 952 LINE",
"18 952 LINE",
"291 0 LINE",
"453 0 LINE"
);
}
);
width = 741;
}
);
unicode = 0076;
},
{
glyphname = w;
layers = (
{
anchors = (
{
name = top;
position = "{537, 952}";
}
);
layerId = "D4AD7B3F-884E-49D2-9CE4-555FBB692325";
name = Light;
paths = (
{
closed = 1;
nodes = (
"831 0 LINE",
"1069 952 LINE",
"918 952 LINE",
"799 416 LINE SMOOTH",
"774 307 OFFCURVE",
"760 190 OFFCURVE",
"760 190 CURVE SMOOTH",
"754 190 LINE SMOOTH",
"754 190 OFFCURVE",
"741 319 OFFCURVE",
"725 416 CURVE SMOOTH",
"627 952 LINE",
"455 952 LINE",
"358 416 LINE SMOOTH",
"342 319 OFFCURVE",
"330 190 OFFCURVE",
"330 190 CURVE SMOOTH",
"322 190 LINE SMOOTH",
"322 190 OFFCURVE",
"303 338 OFFCURVE",
"285 416 CURVE SMOOTH",
"164 952 LINE",
"2 952 LINE",
"240 0 LINE",
"403 0 LINE",
"502 543 LINE SMOOTH",
"520 643 OFFCURVE",
"530 762 OFFCURVE",
"530 762 CURVE",
"539 762 LINE",
"539 762 OFFCURVE",
"549 641 OFFCURVE",
"567 543 CURVE SMOOTH",
"666 0 LINE"
);
}
);
width = 1071;
}
);
unicode = 0077;
},
